{"glyphs":{"0":{"ha":1088,"x_min":90,"x_max":997,"o":"m 322 -14 q 153 49 217 -14 q 90 218 90 113 l 90 754 q 153 924 90 861 q 322 986 217 986 l 767 986 q 935 923 872 986 q 997 754 997 860 l 997 218 q 935 49 997 113 q 767 -14 872 -14 l 322 -14 m 688 218 q 724 231 711 218 q 736 267 736 244 l 736 706 q 724 742 736 729 q 688 754 711 754 l 400 754 q 365 742 378 754 q 351 706 351 729 l 351 267 q 365 231 351 244 q 400 218 378 218 l 688 218 z "},"1":{"ha":850,"x_min":88,"x_max":813,"o":"m 813 0 l 88 0 l 88 236 l 319 236 l 319 669 l 96 669 l 96 889 l 319 889 l 319 972 l 581 972 l 581 236 l 813 236 l 813 0 z "},"2":{"ha":983,"x_min":72,"x_max":903,"o":"m 72 0 l 72 225 l 596 596 q 632 653 632 621 l 632 688 q 619 724 632 711 q 583 736 607 736 l 160 736 l 86 810 l 86 972 l 663 972 q 836 909 769 972 q 903 740 903 846 l 903 649 q 870 524 903 576 q 750 414 838 471 l 503 247 l 503 236 l 903 236 l 903 0 l 72 0 z "},"3":{"ha":956,"x_min":65,"x_max":899,"o":"m 65 0 l 65 232 l 579 232 q 615 245 603 232 q 628 281 628 258 l 628 331 q 615 367 628 354 q 579 379 603 379 l 261 379 l 261 565 l 496 729 l 496 740 l 139 740 l 65 815 l 65 972 l 857 972 l 857 768 l 597 588 l 597 576 l 667 576 q 836 514 774 576 q 899 344 899 451 l 899 232 q 836 63 899 126 q 667 0 774 0 l 65 0 z "},"4":{"ha":1007,"x_min":32,"x_max":990,"o":"m 847 0 l 586 0 l 586 183 l 32 183 l 32 399 l 399 972 l 622 972 l 622 847 l 349 426 l 349 419 l 590 419 l 590 586 l 847 586 l 847 419 l 990 419 l 990 183 l 847 183 l 847 0 z "},"5":{"ha":965,"x_min":72,"x_max":906,"o":"m 72 0 l 72 232 l 586 232 q 622 244 608 232 q 635 279 635 257 l 635 351 q 622 388 635 375 q 586 400 610 400 l 86 400 l 86 972 l 878 972 l 878 815 l 803 740 l 347 740 l 347 618 l 674 618 q 843 556 781 618 q 906 386 906 493 l 906 232 q 843 63 906 126 q 674 0 781 0 l 72 0 z "},"6":{"ha":1000,"x_min":63,"x_max":938,"o":"m 294 -14 q 126 49 189 -14 q 63 218 63 113 l 63 406 q 88 520 63 469 q 174 632 113 571 l 514 972 l 733 972 l 733 844 l 476 611 l 476 604 l 543 604 l 706 604 q 875 542 813 604 q 938 372 938 479 l 938 218 q 875 49 938 113 q 706 -14 813 -14 l 294 -14 m 628 213 q 664 226 651 213 q 676 261 676 239 l 676 347 q 664 383 676 371 q 628 396 651 396 l 372 396 q 337 383 350 396 q 324 347 324 371 l 324 261 q 337 226 324 239 q 372 213 350 213 l 628 213 z "},"7":{"ha":906,"x_min":35,"x_max":864,"o":"m 476 0 l 238 0 l 238 128 l 564 722 l 564 733 l 35 733 l 35 972 l 864 972 l 864 746 l 476 0 z "},"8":{"ha":1044,"x_min":74,"x_max":969,"o":"m 306 -14 q 137 49 200 -14 q 74 218 74 113 l 74 306 q 114 437 74 388 q 204 496 154 486 l 204 507 q 126 563 161 517 q 90 683 90 608 l 90 754 q 153 924 90 861 q 322 986 217 986 l 722 986 q 892 924 829 986 q 954 754 954 861 l 954 683 q 918 563 954 608 q 839 507 882 517 l 839 496 q 929 438 889 486 q 969 306 969 389 l 969 218 q 907 49 969 113 q 739 -14 844 -14 l 306 -14 m 635 600 q 671 613 658 600 q 683 649 683 626 l 683 719 q 671 756 683 743 q 635 768 658 768 l 410 768 q 374 756 388 768 q 361 719 361 743 l 361 649 q 374 613 361 626 q 410 600 388 600 l 635 600 m 650 204 q 686 217 674 204 q 699 253 699 231 l 699 343 q 686 379 699 367 q 650 392 674 392 l 393 392 q 358 379 371 392 q 344 343 344 367 l 344 253 q 358 217 344 231 q 393 204 371 204 l 650 204 z "},"9":{"ha":1000,"x_min":63,"x_max":938,"o":"m 267 0 l 267 128 l 524 361 l 524 368 l 457 368 l 294 368 q 126 431 189 368 q 63 600 63 494 l 63 754 q 126 924 63 861 q 294 986 189 986 l 706 986 q 875 924 813 986 q 938 754 938 861 l 938 567 q 913 453 938 504 q 826 340 889 403 l 486 0 l 267 0 m 628 576 q 664 590 651 576 q 676 625 676 603 l 676 711 q 664 747 676 735 q 628 760 651 760 l 372 760 q 337 747 350 760 q 324 711 324 735 l 324 625 q 337 590 324 603 q 372 576 350 576 l 628 576 z "},"\r":{"ha":833,"x_min":0,"x_max":0,"o":""}," ":{"ha":396,"x_min":0,"x_max":0,"o":""}," ":{"ha":396,"x_min":0,"x_max":0,"o":""},"·":{"ha":396,"x_min":72,"x_max":324,"o":"m 324 246 l 72 246 l 72 472 l 324 472 l 324 246 z "},".":{"ha":378,"x_min":63,"x_max":315,"o":"m 315 0 l 63 0 l 63 226 l 315 226 l 315 0 z "},"…":{"ha":1271,"x_min":63,"x_max":1208,"o":"m 315 0 l 63 0 l 63 226 l 315 226 l 315 0 m 763 0 l 510 0 l 510 226 l 763 226 l 763 0 m 1208 0 l 956 0 l 956 226 l 1208 226 l 1208 0 z "},",":{"ha":378,"x_min":63,"x_max":315,"o":"m 204 -146 l 63 -146 l 63 226 l 315 226 l 315 49 l 204 -146 z "},":":{"ha":378,"x_min":63,"x_max":315,"o":"m 315 489 l 63 489 l 63 715 l 315 715 l 315 489 m 315 0 l 63 0 l 63 226 l 315 226 l 315 0 z "},";":{"ha":378,"x_min":63,"x_max":315,"o":"m 315 489 l 63 489 l 63 715 l 315 715 l 315 489 m 204 -146 l 63 -146 l 63 226 l 315 226 l 315 49 l 204 -146 z "},"!":{"ha":493,"x_min":97,"x_max":396,"o":"m 344 324 l 149 324 l 97 653 l 97 972 l 396 972 l 396 653 l 344 324 m 372 0 l 121 0 l 121 226 l 372 226 l 372 0 z "},"¡":{"ha":493,"x_min":97,"x_max":396,"o":"m 372 489 l 121 489 l 121 715 l 372 715 l 372 489 m 396 -236 l 97 -236 l 97 67 l 149 393 l 344 393 l 396 67 l 396 -236 z "},"?":{"ha":903,"x_min":42,"x_max":840,"o":"m 301 414 q 328 514 301 476 q 392 569 356 551 q 483 601 428 586 q 549 626 529 615 q 569 657 569 636 l 569 692 q 557 728 569 715 q 521 740 544 740 l 125 740 l 42 824 l 42 972 l 608 972 q 778 910 715 972 q 840 740 840 847 l 840 618 q 813 517 840 554 q 747 463 785 479 q 651 432 710 446 q 576 406 600 418 q 553 368 553 394 l 553 324 l 301 324 l 301 414 m 553 0 l 301 0 l 301 226 l 553 226 l 553 0 z "},"¿":{"ha":903,"x_min":63,"x_max":861,"o":"m 601 489 l 350 489 l 350 715 l 601 715 l 601 489 m 294 -236 q 126 -174 189 -236 q 63 -4 63 -111 l 63 108 q 90 210 63 174 q 156 263 118 247 q 251 293 193 279 q 327 317 304 306 q 350 354 350 328 l 350 393 l 601 393 l 601 303 q 574 204 601 240 q 510 152 547 168 q 419 122 474 136 q 353 100 374 110 q 333 69 333 90 l 333 38 q 385 -4 333 -4 l 778 -4 l 861 -87 l 861 -236 l 294 -236 z "},"*":{"ha":658,"x_min":56,"x_max":603,"o":"m 576 847 l 603 697 l 571 692 l 463 679 l 540 583 l 558 556 l 433 468 l 415 494 l 329 635 l 243 494 l 225 468 l 100 556 l 118 583 l 196 679 l 88 692 l 56 697 l 82 847 l 115 842 l 260 807 l 253 940 l 253 972 l 406 972 l 406 940 l 399 807 l 543 842 l 576 847 z "},"'":{"ha":351,"x_min":72,"x_max":281,"o":"m 240 600 l 111 600 l 72 778 l 72 972 l 281 972 l 281 778 l 240 600 z "},"\"":{"ha":639,"x_min":72,"x_max":568,"o":"m 240 600 l 111 600 l 72 778 l 72 972 l 281 972 l 281 778 l 240 600 m 528 600 l 399 600 l 360 778 l 360 972 l 568 972 l 568 778 l 528 600 z "},"‚":{"ha":378,"x_min":63,"x_max":315,"o":"m 204 -146 l 63 -146 l 63 226 l 315 226 l 315 49 l 204 -146 z "},"„":{"ha":711,"x_min":63,"x_max":649,"o":"m 204 -146 l 63 -146 l 63 226 l 315 226 l 315 49 l 204 -146 m 538 -146 l 396 -146 l 396 226 l 649 226 l 649 49 l 538 -146 z "},"‘":{"ha":378,"x_min":63,"x_max":315,"o":"m 315 642 l 63 642 l 63 819 l 174 1014 l 315 1014 l 315 642 z "},"’":{"ha":378,"x_min":63,"x_max":315,"o":"m 204 600 l 63 600 l 63 972 l 315 972 l 315 794 l 204 600 z "},"“":{"ha":711,"x_min":63,"x_max":649,"o":"m 315 642 l 63 642 l 63 819 l 174 1014 l 315 1014 l 315 642 m 649 642 l 396 642 l 396 819 l 507 1014 l 649 1014 l 649 642 z "},"”":{"ha":711,"x_min":63,"x_max":649,"o":"m 204 600 l 63 600 l 63 972 l 315 972 l 315 794 l 204 600 m 538 600 l 396 600 l 396 972 l 649 972 l 649 794 l 538 600 z "},"‹":{"ha":563,"x_min":49,"x_max":489,"o":"m 489 56 l 299 56 l 49 361 l 299 667 l 489 667 l 489 560 l 318 361 l 489 163 l 489 56 z "},"›":{"ha":563,"x_min":74,"x_max":514,"o":"m 264 56 l 74 56 l 74 163 l 244 361 l 74 560 l 74 667 l 264 667 l 514 361 l 264 56 z "},"«":{"ha":826,"x_min":49,"x_max":764,"o":"m 410 125 l 225 125 l 49 375 l 225 625 l 410 625 l 410 551 l 281 375 l 410 199 l 410 125 m 764 125 l 579 125 l 403 375 l 579 625 l 764 625 l 764 551 l 635 375 l 764 199 l 764 125 z "},"»":{"ha":826,"x_min":63,"x_max":778,"o":"m 247 125 l 63 125 l 63 199 l 192 375 l 63 551 l 63 625 l 247 625 l 424 375 l 247 125 m 601 125 l 417 125 l 417 199 l 546 375 l 417 551 l 417 625 l 601 625 l 778 375 l 601 125 z "},"•":{"ha":646,"x_min":167,"x_max":479,"o":"m 254 218 q 192 242 217 218 q 167 306 167 267 l 167 414 q 192 478 167 453 q 254 503 217 503 l 392 503 q 454 478 429 503 q 479 414 479 453 l 479 306 q 454 242 479 267 q 392 218 429 218 l 254 218 z "},"-":{"ha":657,"x_min":58,"x_max":600,"o":"m 600 329 l 58 329 l 58 546 l 600 546 l 600 329 z "},"­":{"ha":0,"x_min":0,"x_max":0,"o":""},"–":{"ha":907,"x_min":58,"x_max":850,"o":"m 850 333 l 58 333 l 58 539 l 850 539 l 850 333 z "},"—":{"ha":1296,"x_min":58,"x_max":1239,"o":"m 1239 333 l 58 333 l 58 539 l 1239 539 l 1239 333 z "},"_":{"ha":690,"x_min":-31,"x_max":719,"o":"m 719 -274 l -31 -274 l -31 -58 l 719 -58 l 719 -274 z "},"(":{"ha":565,"x_min":101,"x_max":528,"o":"m 333 -264 q 165 -201 228 -264 q 101 -32 101 -139 l 101 851 q 165 1021 101 958 q 333 1083 228 1083 l 528 1083 l 528 850 l 410 850 q 364 803 364 850 l 364 17 q 410 -31 364 -31 l 528 -31 l 528 -264 l 333 -264 z "},")":{"ha":565,"x_min":38,"x_max":463,"o":"m 38 -264 l 38 -31 l 156 -31 q 201 17 201 -31 l 201 803 q 156 850 201 850 l 38 850 l 38 1083 l 232 1083 q 400 1020 338 1083 q 463 851 463 957 l 463 -32 q 400 -201 463 -137 q 232 -264 338 -264 l 38 -264 z "},"[":{"ha":594,"x_min":115,"x_max":546,"o":"m 546 -264 l 115 -264 l 115 1083 l 546 1083 l 546 857 l 368 857 l 368 -37 l 546 -37 l 546 -264 z "},"]":{"ha":594,"x_min":49,"x_max":479,"o":"m 479 -264 l 49 -264 l 49 -37 l 226 -37 l 226 857 l 49 857 l 49 1083 l 479 1083 l 479 -264 z "},"{":{"ha":632,"x_min":44,"x_max":583,"o":"m 379 -264 q 216 -203 276 -264 q 156 -39 156 -142 l 156 233 q 131 284 156 272 q 44 296 107 296 l 44 524 q 131 535 107 524 q 156 586 156 547 l 156 858 q 216 1022 156 961 q 379 1083 276 1083 l 583 1083 l 583 857 l 449 857 q 418 845 429 857 q 407 813 407 833 l 407 581 q 367 464 407 507 q 281 415 328 421 l 281 404 q 367 356 328 399 q 407 239 407 313 l 407 7 q 418 -26 407 -14 q 449 -37 429 -37 l 583 -37 l 583 -264 l 379 -264 z "},"}":{"ha":632,"x_min":49,"x_max":588,"o":"m 49 -264 l 49 -37 l 183 -37 q 214 -26 203 -37 q 225 7 225 -14 l 225 239 q 265 356 225 313 q 351 404 304 399 l 351 415 q 265 464 304 421 q 225 581 225 507 l 225 813 q 214 845 225 833 q 183 857 203 857 l 49 857 l 49 1083 l 253 1083 q 416 1022 356 1083 q 476 858 476 961 l 476 586 q 501 535 476 547 q 588 524 525 524 l 588 296 q 501 284 525 296 q 476 233 476 272 l 476 -39 q 416 -203 476 -142 q 253 -264 356 -264 l 49 -264 z "},"|":{"ha":583,"x_min":167,"x_max":417,"o":"m 417 -236 l 167 -236 l 167 1111 l 417 1111 l 417 -236 z "},"¦":{"ha":583,"x_min":167,"x_max":417,"o":"m 417 549 l 167 549 l 167 1111 l 417 1111 l 417 549 m 417 -236 l 167 -236 l 167 326 l 417 326 l 417 -236 z "},"†":{"ha":914,"x_min":60,"x_max":854,"o":"m 583 -236 l 331 -236 l 331 475 l 60 475 l 60 715 l 331 715 l 368 1000 l 546 1000 l 583 715 l 854 715 l 854 475 l 583 475 l 583 -236 z "},"‡":{"ha":914,"x_min":60,"x_max":854,"o":"m 551 -264 l 364 -264 l 331 -32 l 60 -32 l 60 208 l 331 208 l 331 528 l 60 528 l 60 768 l 331 768 l 364 1000 l 551 1000 l 583 768 l 854 768 l 854 528 l 583 528 l 583 208 l 854 208 l 854 -32 l 583 -32 l 551 -264 z "},"/":{"ha":782,"x_min":21,"x_max":761,"o":"m 247 -69 l 21 -69 l 21 58 l 535 1042 l 761 1042 l 761 914 l 247 -69 z "},"\\":{"ha":782,"x_min":21,"x_max":761,"o":"m 761 -69 l 535 -69 l 21 914 l 21 1042 l 247 1042 l 761 58 l 761 -69 z "},"#":{"ha":1115,"x_min":38,"x_max":1079,"o":"m 1079 792 l 1079 586 l 901 586 l 860 386 l 1011 386 l 1011 181 l 815 181 l 778 0 l 553 0 l 592 181 l 394 181 l 357 0 l 132 0 l 169 181 l 38 181 l 38 386 l 214 386 l 256 586 l 104 586 l 104 792 l 300 792 l 338 972 l 563 972 l 525 792 l 721 792 l 760 972 l 983 972 l 946 792 l 1079 792 m 439 386 l 635 386 l 678 586 l 481 586 l 439 386 z "},"№":{"ha":1801,"x_min":107,"x_max":1726,"o":"m 368 0 l 107 0 l 107 972 l 389 972 l 850 379 l 861 379 l 843 569 l 843 972 l 1104 972 l 1104 0 l 822 0 l 361 593 l 350 593 l 368 403 l 368 0 m 1365 389 q 1257 433 1301 389 q 1213 542 1213 478 l 1213 667 q 1257 775 1213 731 q 1365 819 1301 819 l 1574 819 q 1683 776 1639 819 q 1726 667 1726 732 l 1726 542 q 1683 433 1726 478 q 1574 389 1639 389 l 1365 389 m 1510 539 q 1535 549 1525 539 q 1544 574 1544 560 l 1544 635 q 1535 660 1544 650 q 1510 669 1525 669 l 1431 669 q 1406 660 1415 669 q 1396 635 1396 650 l 1396 574 q 1406 549 1396 558 q 1431 539 1415 539 l 1510 539 m 1726 164 l 1213 164 l 1213 313 l 1726 313 l 1726 164 z "},"&":{"ha":1051,"x_min":49,"x_max":1044,"o":"m 281 -14 q 112 49 175 -14 q 49 218 49 113 l 49 285 q 103 433 49 374 q 243 503 158 492 l 243 514 q 183 576 210 532 q 157 681 157 621 l 157 740 q 220 910 157 847 q 389 972 283 972 l 900 972 l 900 819 l 817 736 l 472 736 q 440 726 451 736 q 428 696 428 717 l 428 688 q 437 663 428 675 q 467 633 446 651 l 1044 128 l 1044 0 l 796 0 l 722 69 l 711 69 q 640 12 688 38 q 536 -14 592 -14 l 281 -14 m 456 204 q 501 219 486 204 q 517 257 517 235 l 413 351 l 357 351 q 322 339 335 351 q 310 306 310 326 l 310 250 q 322 217 310 229 q 357 204 335 204 l 456 204 z "},"§":{"ha":903,"x_min":100,"x_max":817,"o":"m 104 -236 l 104 -39 l 525 -39 q 551 -31 542 -39 q 560 -10 560 -22 l 560 33 q 551 53 560 43 q 528 67 543 64 l 254 115 q 143 174 186 128 q 100 282 100 219 l 100 368 q 130 465 100 426 q 197 513 160 503 l 197 525 q 130 577 160 539 q 100 671 100 615 l 100 801 q 150 922 100 872 q 271 972 200 972 l 785 972 l 785 847 l 718 775 l 392 775 q 366 767 375 775 q 357 746 357 758 l 357 703 q 365 682 357 692 q 389 669 374 672 l 663 621 q 774 563 731 608 q 817 454 817 517 l 817 368 q 787 272 817 310 q 719 224 757 233 l 719 211 q 787 159 757 197 q 817 65 817 121 l 817 -65 q 767 -186 817 -136 q 646 -236 717 -236 l 104 -236 m 536 253 q 562 270 550 257 q 574 304 574 283 l 574 421 q 565 443 574 433 q 542 456 557 453 l 381 483 q 355 466 367 479 q 343 432 343 453 l 343 315 q 351 293 343 303 q 375 281 360 283 l 536 253 z "},"¶":{"ha":1079,"x_min":49,"x_max":1060,"o":"m 326 -236 l 326 447 l 240 447 q 104 503 160 447 q 49 639 49 558 l 49 781 q 104 917 49 863 q 240 972 160 972 l 1060 972 l 1060 757 l 896 757 l 896 -236 l 676 -236 l 676 757 l 546 757 l 546 -236 l 326 -236 z "},"©":{"ha":1444,"x_min":114,"x_max":1331,"o":"m 301 -42 q 207 -17 250 -42 q 139 51 164 8 q 114 146 114 94 l 114 826 q 139 921 114 878 q 207 989 164 964 q 301 1014 250 1014 l 1143 1014 q 1238 989 1194 1014 q 1306 921 1281 964 q 1331 826 1331 878 l 1331 146 q 1306 51 1331 94 q 1238 -17 1281 8 q 1143 -42 1194 -42 l 301 -42 m 1104 122 q 1142 137 1128 122 q 1156 174 1156 151 l 1156 799 q 1142 836 1156 822 q 1104 850 1128 850 l 340 850 q 303 836 318 850 q 289 799 289 822 l 289 174 q 303 137 289 151 q 340 122 318 122 l 1104 122 m 611 236 q 509 276 549 236 q 469 378 469 315 l 469 594 q 509 697 469 657 q 611 736 549 736 l 969 736 l 969 636 l 917 583 l 690 583 q 665 574 674 583 q 656 549 656 564 l 656 424 q 665 399 656 408 q 690 389 674 389 l 969 389 l 969 236 l 611 236 z "},"®":{"ha":1444,"x_min":114,"x_max":1331,"o":"m 301 -42 q 207 -17 250 -42 q 139 51 164 8 q 114 146 114 94 l 114 826 q 139 921 114 878 q 207 989 164 964 q 301 1014 250 1014 l 1143 1014 q 1238 989 1194 1014 q 1306 921 1281 964 q 1331 826 1331 878 l 1331 146 q 1306 51 1331 94 q 1238 -17 1281 8 q 1143 -42 1194 -42 l 301 -42 m 1104 122 q 1142 137 1128 122 q 1156 174 1156 151 l 1156 799 q 1142 836 1156 822 q 1104 850 1128 850 l 340 850 q 303 836 318 850 q 289 799 289 822 l 289 174 q 303 137 289 151 q 340 122 318 122 l 1104 122 m 465 236 l 465 736 l 857 736 q 958 698 919 736 q 996 597 996 660 l 996 553 q 970 467 996 500 q 913 428 944 435 l 996 317 l 996 236 l 828 236 l 733 396 l 653 396 l 653 236 l 465 236 m 775 517 q 799 524 790 517 q 808 544 808 532 l 808 576 q 799 597 808 589 q 775 604 790 604 l 653 604 l 653 517 l 775 517 z "},"™":{"ha":1275,"x_min":14,"x_max":1213,"o":"m 354 486 l 171 486 l 171 819 l 14 819 l 14 972 l 511 972 l 511 871 l 461 819 l 354 819 l 354 486 m 719 486 l 549 486 l 549 569 l 597 972 l 778 972 l 878 754 l 885 754 l 983 972 l 1164 972 l 1213 569 l 1213 486 l 1042 486 l 1031 750 l 1024 750 l 935 556 l 826 556 l 739 750 l 732 750 l 719 486 z "},"@":{"ha":1385,"x_min":100,"x_max":1285,"o":"m 296 -167 q 153 -112 207 -167 q 100 31 100 -58 l 100 692 q 153 835 100 781 q 296 889 207 889 l 1088 889 q 1231 835 1176 889 q 1285 692 1285 781 l 1285 142 l 1107 142 l 1074 218 l 1067 218 q 1011 156 1051 183 q 919 128 971 128 l 732 128 q 602 181 656 128 q 549 310 549 233 l 549 399 q 601 527 549 475 q 732 579 654 579 l 1038 579 l 1038 656 q 1025 692 1038 679 q 989 704 1013 704 l 396 704 q 360 692 374 704 q 347 656 347 679 l 347 67 q 360 31 347 44 q 396 18 374 18 l 1271 18 l 1271 -167 l 296 -167 m 969 315 q 1019 333 1001 315 q 1038 382 1038 351 l 1038 424 l 836 424 q 796 385 796 424 l 796 354 q 836 315 796 315 l 969 315 z "},"A":{"ha":1111,"x_min":18,"x_max":1093,"o":"m 385 972 l 726 972 l 1093 128 l 1093 0 l 840 0 l 779 167 l 332 167 l 271 0 l 18 0 l 18 128 l 385 972 m 549 750 l 414 385 l 697 385 l 563 750 l 549 750 z "},"B":{"ha":1139,"x_min":107,"x_max":1069,"o":"m 107 0 l 107 972 l 810 972 q 979 910 917 972 q 1042 740 1042 847 l 1042 713 q 1001 577 1042 629 q 910 514 960 525 l 910 503 q 984 473 947 497 q 1045 405 1021 449 q 1069 299 1069 361 l 1069 232 q 1007 63 1069 126 q 838 0 944 0 l 107 0 m 722 604 q 758 617 746 604 q 771 653 771 631 l 771 706 q 758 742 771 729 q 722 754 746 754 l 368 754 l 368 604 l 722 604 m 750 218 q 786 231 774 218 q 799 267 799 244 l 799 338 q 786 374 799 361 q 750 386 774 386 l 368 386 l 368 218 l 750 218 z "},"C":{"ha":1044,"x_min":90,"x_max":982,"o":"m 322 0 q 153 63 217 0 q 90 232 90 126 l 90 740 q 153 910 90 847 q 322 972 217 972 l 982 972 l 982 819 l 899 736 l 400 736 q 365 724 378 736 q 351 688 351 711 l 351 285 q 365 249 351 263 q 400 236 378 236 l 982 236 l 982 0 l 322 0 z "},"D":{"ha":1174,"x_min":107,"x_max":1083,"o":"m 107 0 l 107 972 l 851 972 q 1021 910 958 972 q 1083 740 1083 847 l 1083 232 q 1021 63 1083 126 q 851 0 958 0 l 107 0 m 774 232 q 810 245 797 232 q 822 281 822 258 l 822 692 q 810 728 822 715 q 774 740 797 740 l 368 740 l 368 232 l 774 232 z "},"E":{"ha":1035,"x_min":107,"x_max":972,"o":"m 972 0 l 107 0 l 107 972 l 972 972 l 972 829 l 889 746 l 368 746 l 368 597 l 815 597 l 815 379 l 368 379 l 368 226 l 972 226 l 972 0 z "},"F":{"ha":982,"x_min":107,"x_max":954,"o":"m 368 0 l 107 0 l 107 972 l 954 972 l 954 819 l 871 736 l 368 736 l 368 556 l 792 556 l 792 319 l 368 319 l 368 0 z "},"G":{"ha":1146,"x_min":90,"x_max":1056,"o":"m 322 0 q 153 63 217 0 q 90 232 90 126 l 90 740 q 153 910 90 847 q 322 972 217 972 l 990 972 l 990 819 l 907 736 l 400 736 q 365 724 378 736 q 351 688 351 711 l 351 281 q 365 245 351 258 q 400 232 378 232 l 794 232 l 794 549 l 1056 549 l 1056 0 l 322 0 z "},"H":{"ha":1199,"x_min":107,"x_max":1093,"o":"m 368 0 l 107 0 l 107 972 l 368 972 l 368 608 l 831 608 l 831 972 l 1093 972 l 1093 0 l 831 0 l 831 371 l 368 371 l 368 0 z "},"I":{"ha":475,"x_min":107,"x_max":368,"o":"m 368 0 l 107 0 l 107 972 l 368 972 l 368 0 z "},"J":{"ha":813,"x_min":35,"x_max":713,"o":"m 35 -14 l 35 222 l 403 222 q 439 235 426 222 q 451 271 451 249 l 451 972 l 713 972 l 713 218 q 650 49 713 113 q 482 -14 588 -14 l 35 -14 z "},"K":{"ha":1139,"x_min":107,"x_max":1090,"o":"m 368 0 l 107 0 l 107 972 l 368 972 l 368 608 l 604 608 l 842 972 l 1072 972 l 1072 844 l 836 511 l 1090 128 l 1090 0 l 853 0 l 613 371 l 368 371 l 368 0 z "},"L":{"ha":975,"x_min":107,"x_max":954,"o":"m 954 0 l 107 0 l 107 972 l 368 972 l 368 239 l 954 239 l 954 0 z "},"M":{"ha":1419,"x_min":60,"x_max":1358,"o":"m 322 0 l 60 0 l 60 128 l 163 972 l 461 972 l 704 458 l 715 458 l 958 972 l 1257 972 l 1358 128 l 1358 0 l 1097 0 l 1050 601 l 1038 601 l 817 139 l 601 139 l 381 601 l 369 601 l 322 0 z "},"N":{"ha":1211,"x_min":107,"x_max":1104,"o":"m 368 0 l 107 0 l 107 972 l 389 972 l 850 379 l 861 379 l 843 569 l 843 972 l 1104 972 l 1104 0 l 822 0 l 361 593 l 350 593 l 368 403 l 368 0 z "},"O":{"ha":1176,"x_min":90,"x_max":1086,"o":"m 322 -14 q 153 49 217 -14 q 90 218 90 113 l 90 754 q 153 924 90 861 q 322 986 217 986 l 854 986 q 1024 924 961 986 q 1086 754 1086 861 l 1086 218 q 1024 49 1086 113 q 854 -14 961 -14 l 322 -14 m 775 218 q 811 231 799 218 q 824 267 824 244 l 824 706 q 811 742 824 729 q 775 754 799 754 l 400 754 q 365 742 378 754 q 351 706 351 729 l 351 267 q 365 231 351 244 q 400 218 378 218 l 775 218 z "},"P":{"ha":1132,"x_min":107,"x_max":1056,"o":"m 107 0 l 107 972 l 824 972 q 993 910 931 972 q 1056 740 1056 847 l 1056 510 q 993 341 1056 404 q 824 278 931 278 l 368 278 l 368 0 l 107 0 m 746 504 q 782 517 769 504 q 794 553 794 531 l 794 697 q 782 733 794 721 q 746 746 769 746 l 368 746 l 368 504 l 746 504 z "},"Q":{"ha":1176,"x_min":90,"x_max":1086,"o":"m 854 986 q 1024 924 961 986 q 1086 754 1086 861 l 1086 218 q 1024 49 1086 113 q 854 -14 961 -14 l 726 -14 l 806 -115 l 806 -222 l 549 -222 l 469 -14 l 322 -14 q 153 49 217 -14 q 90 218 90 113 l 90 754 q 153 924 90 861 q 322 986 217 986 l 854 986 m 824 706 q 811 742 824 729 q 775 754 799 754 l 400 754 q 365 742 378 754 q 351 706 351 729 l 351 267 q 365 231 351 244 q 400 218 378 218 l 775 218 q 811 231 799 218 q 824 267 824 244 l 824 706 z "},"R":{"ha":1157,"x_min":107,"x_max":1086,"o":"m 1086 128 l 1086 0 l 847 0 l 579 333 l 368 333 l 368 0 l 107 0 l 107 972 l 833 972 q 1003 910 940 972 q 1065 740 1065 847 l 1065 565 q 1015 421 1065 475 q 890 344 965 367 l 1086 128 m 368 560 l 754 560 q 790 573 778 560 q 803 608 803 586 l 803 697 q 790 733 803 721 q 754 746 778 746 l 368 746 l 368 560 z "},"S":{"ha":1069,"x_min":69,"x_max":1010,"o":"m 69 0 l 69 232 l 690 232 q 726 245 714 232 q 739 281 739 258 l 739 299 q 726 331 739 317 q 694 347 714 344 l 296 403 q 69 636 69 435 l 69 740 q 133 910 69 847 q 301 972 196 972 l 982 972 l 982 824 l 899 740 l 389 740 q 353 728 367 740 q 340 692 340 715 l 340 676 q 352 644 340 657 q 385 628 364 631 l 782 572 q 1010 338 1010 540 l 1010 232 q 947 63 1010 126 q 778 0 885 0 l 69 0 z "},"T":{"ha":1035,"x_min":28,"x_max":1007,"o":"m 649 0 l 386 0 l 386 736 l 28 736 l 28 972 l 1007 972 l 1007 819 l 924 736 l 649 736 l 649 0 z "},"U":{"ha":1190,"x_min":100,"x_max":1090,"o":"m 331 -14 q 163 49 225 -14 q 100 218 100 113 l 100 972 l 361 972 l 361 267 q 374 231 361 244 q 410 218 388 218 l 781 218 q 817 231 804 218 q 829 267 829 244 l 829 972 l 1090 972 l 1090 218 q 1028 49 1090 113 q 858 -14 965 -14 l 331 -14 z "},"V":{"ha":1125,"x_min":38,"x_max":1088,"o":"m 744 0 l 381 0 l 38 844 l 38 972 l 289 972 l 554 253 l 568 253 l 836 972 l 1088 972 l 1088 844 l 744 0 z "},"W":{"ha":1544,"x_min":38,"x_max":1507,"o":"m 576 0 l 260 0 l 38 844 l 38 972 l 324 972 l 424 329 l 435 329 l 628 972 l 917 972 l 1108 329 l 1121 329 l 1219 972 l 1507 972 l 1507 844 l 1285 0 l 968 0 l 778 625 l 767 625 l 576 0 z "},"X":{"ha":1097,"x_min":44,"x_max":1053,"o":"m 292 0 l 44 0 l 44 128 l 343 482 l 67 844 l 67 972 l 315 972 l 542 650 l 556 650 l 782 972 l 1031 972 l 1031 844 l 754 493 l 1053 128 l 1053 0 l 806 0 l 556 324 l 542 324 l 292 0 z "},"Y":{"ha":1053,"x_min":31,"x_max":1024,"o":"m 657 0 l 396 0 l 396 292 l 31 844 l 31 972 l 281 972 l 524 563 l 539 563 l 774 972 l 1024 972 l 1024 844 l 657 292 l 657 0 z "},"Z":{"ha":1039,"x_min":56,"x_max":983,"o":"m 983 0 l 56 0 l 56 225 l 588 725 l 588 736 l 153 736 l 69 819 l 69 972 l 983 972 l 983 747 l 451 247 l 451 236 l 983 236 l 983 0 z "},"a":{"ha":886,"x_min":56,"x_max":799,"o":"m 250 -14 q 111 42 167 -14 q 56 181 56 97 l 56 243 q 111 382 56 326 q 250 438 167 438 l 551 438 l 551 483 q 540 517 551 506 q 507 528 528 528 l 121 528 l 121 715 l 604 715 q 743 660 688 715 q 799 521 799 604 l 799 0 l 621 0 l 583 86 l 576 86 q 516 17 560 47 q 414 -14 472 -14 l 250 -14 m 483 174 q 533 192 515 174 q 551 240 551 210 l 551 282 l 343 282 q 303 243 303 282 l 303 213 q 343 174 303 174 l 483 174 z "},"b":{"ha":951,"x_min":94,"x_max":878,"o":"m 94 0 l 94 965 l 343 965 l 343 642 l 350 642 q 409 702 367 675 q 510 729 451 729 l 683 729 q 822 674 767 729 q 878 535 878 618 l 878 194 q 822 56 878 111 q 683 0 767 0 l 94 0 m 586 215 q 629 260 629 215 l 629 469 q 586 514 629 514 l 410 514 q 361 497 379 514 q 343 447 343 479 l 343 215 l 586 215 z "},"c":{"ha":817,"x_min":74,"x_max":761,"o":"m 268 0 q 129 56 185 0 q 74 194 74 111 l 74 521 q 129 660 74 604 q 268 715 185 715 l 761 715 l 761 576 l 690 500 l 365 500 q 322 456 322 500 l 322 260 q 365 215 322 215 l 761 215 l 761 0 l 268 0 z "},"d":{"ha":951,"x_min":74,"x_max":857,"o":"m 268 -14 q 129 42 185 -14 q 74 181 74 97 l 74 521 q 129 660 74 604 q 268 715 185 715 l 608 715 l 608 965 l 857 965 l 857 0 l 678 0 l 642 86 l 635 86 q 574 17 618 47 q 472 -14 531 -14 l 268 -14 m 542 201 q 591 219 574 201 q 608 268 608 238 l 608 500 l 365 500 q 322 456 322 500 l 322 246 q 365 201 322 201 l 542 201 z "},"e":{"ha":919,"x_min":74,"x_max":844,"o":"m 268 0 q 129 56 185 0 q 74 194 74 111 l 74 535 q 129 674 74 618 q 268 729 185 729 l 650 729 q 789 674 733 729 q 844 535 844 618 l 844 278 l 322 278 l 322 232 q 365 188 322 188 l 813 188 l 813 0 l 268 0 m 322 435 l 597 435 l 597 497 q 553 542 597 542 l 365 542 q 322 497 322 542 l 322 435 z "},"f":{"ha":650,"x_min":94,"x_max":664,"o":"m 94 785 q 150 924 94 868 q 289 979 206 979 l 664 979 l 664 774 l 386 774 q 354 762 365 774 q 343 729 343 750 l 343 646 l 588 646 l 588 517 l 544 440 l 343 440 l 343 0 l 94 0 l 94 785 z "},"g":{"ha":893,"x_min":35,"x_max":858,"o":"m 206 -250 q 85 -200 135 -250 q 35 -79 35 -150 l 35 0 q 70 99 35 57 q 164 150 106 140 l 164 163 q 126 191 140 169 q 111 239 111 213 q 126 285 111 264 q 164 313 142 307 l 164 324 q 101 374 125 335 q 76 463 76 413 l 76 558 q 126 679 76 629 q 247 729 176 729 l 524 729 l 574 843 l 775 843 l 775 732 l 718 694 l 718 683 q 789 623 761 665 q 817 528 817 581 l 817 426 q 767 304 817 354 q 646 254 717 254 l 338 254 q 318 247 326 254 q 310 226 310 239 q 318 206 310 214 q 338 199 326 199 l 688 199 q 808 149 758 199 q 858 28 858 99 l 858 -79 q 808 -200 858 -150 q 688 -250 758 -250 l 206 -250 m 532 438 q 560 447 550 438 q 569 475 569 457 l 569 510 q 532 546 569 546 l 361 546 q 324 510 324 546 l 324 475 q 333 447 324 457 q 361 438 343 438 l 532 438 m 574 -76 q 601 -67 590 -76 q 611 -42 611 -57 l 611 -10 q 601 15 611 6 q 574 25 590 25 l 319 25 q 292 15 303 25 q 282 -10 282 6 l 282 -42 q 292 -67 282 -57 q 319 -76 303 -76 l 574 -76 z "},"h":{"ha":942,"x_min":94,"x_max":854,"o":"m 94 0 l 94 965 l 343 965 l 343 642 l 350 642 q 409 702 367 675 q 510 729 451 729 l 660 729 q 799 674 743 729 q 854 535 854 618 l 854 0 l 607 0 l 607 465 q 595 498 607 486 q 563 510 583 510 l 410 510 q 361 492 379 510 q 343 442 343 474 l 343 0 l 94 0 z "},"i":{"ha":438,"x_min":94,"x_max":343,"o":"m 343 0 l 94 0 l 94 715 l 343 715 l 343 0 m 342 824 l 94 824 l 94 1039 l 342 1039 l 342 824 z "},"j":{"ha":438,"x_min":-69,"x_max":350,"o":"m -69 -236 l -69 -21 l 58 -21 q 101 24 101 -21 l 101 715 l 350 715 l 350 -42 q 294 -181 350 -125 q 156 -236 239 -236 l -69 -236 m 349 824 l 101 824 l 101 1039 l 349 1039 l 349 824 z "},"k":{"ha":913,"x_min":94,"x_max":871,"o":"m 343 0 l 94 0 l 94 965 l 343 965 l 343 463 l 476 463 l 635 715 l 857 715 l 857 604 l 690 365 l 871 111 l 871 0 l 642 0 l 476 257 l 343 257 l 343 0 z "},"l":{"ha":438,"x_min":94,"x_max":343,"o":"m 343 0 l 94 0 l 94 965 l 343 965 l 343 0 z "},"m":{"ha":1364,"x_min":88,"x_max":1275,"o":"m 88 0 l 88 715 l 267 715 l 303 629 l 310 629 q 370 699 326 668 q 472 729 414 729 l 583 729 q 685 699 642 729 q 746 629 729 668 l 753 629 q 811 698 768 667 q 914 729 854 729 l 1081 729 q 1219 674 1164 729 q 1275 535 1275 618 l 1275 0 l 1028 0 l 1028 465 q 1017 498 1028 486 q 983 510 1006 510 l 858 510 q 806 456 806 510 l 806 0 l 558 0 l 558 465 q 547 498 558 486 q 514 510 535 510 l 403 510 q 354 492 372 510 q 336 442 336 474 l 336 0 l 88 0 z "},"n":{"ha":935,"x_min":88,"x_max":847,"o":"m 88 0 l 88 715 l 267 715 l 303 629 l 310 629 q 370 699 326 668 q 472 729 414 729 l 653 729 q 792 674 736 729 q 847 535 847 618 l 847 0 l 600 0 l 600 465 q 588 498 600 486 q 556 510 576 510 l 403 510 q 354 492 372 510 q 336 442 336 474 l 336 0 l 88 0 z "},"o":{"ha":935,"x_min":74,"x_max":861,"o":"m 268 -14 q 129 42 185 -14 q 74 181 74 97 l 74 535 q 129 674 74 618 q 268 729 185 729 l 667 729 q 806 674 750 729 q 861 535 861 618 l 861 181 q 806 42 861 97 q 667 -14 750 -14 l 268 -14 m 569 197 q 602 208 590 197 q 614 240 614 219 l 614 475 q 602 507 614 496 q 569 518 590 518 l 365 518 q 322 475 322 518 l 322 240 q 365 197 322 197 l 569 197 z "},"p":{"ha":944,"x_min":88,"x_max":871,"o":"m 88 -236 l 88 715 l 267 715 l 303 629 l 310 629 q 370 699 326 668 q 472 729 414 729 l 676 729 q 815 674 760 729 q 871 535 871 618 l 871 194 q 815 56 871 111 q 676 0 760 0 l 336 0 l 336 -236 l 88 -236 m 579 215 q 622 260 622 215 l 622 469 q 579 514 622 514 l 403 514 q 354 497 372 514 q 336 447 336 479 l 336 215 l 579 215 z "},"q":{"ha":944,"x_min":74,"x_max":857,"o":"m 608 -236 l 608 88 l 601 88 q 542 27 585 54 q 442 0 500 0 l 268 0 q 129 56 185 0 q 74 194 74 111 l 74 521 q 129 660 74 604 q 268 715 185 715 l 857 715 l 857 -236 l 608 -236 m 542 215 q 591 233 574 215 q 608 282 608 251 l 608 500 l 365 500 q 322 456 322 500 l 322 260 q 365 215 322 215 l 542 215 z "},"r":{"ha":681,"x_min":88,"x_max":649,"o":"m 88 0 l 88 715 l 267 715 l 303 629 l 310 629 q 370 699 326 668 q 472 729 414 729 l 649 729 l 649 497 l 392 497 q 336 442 336 497 l 336 0 l 88 0 z "},"s":{"ha":824,"x_min":60,"x_max":774,"o":"m 60 0 l 60 197 l 482 197 q 508 203 499 197 q 517 219 517 210 l 517 229 q 508 243 517 235 q 485 254 499 251 l 215 303 q 103 363 147 315 q 60 469 60 410 l 60 544 q 110 665 60 615 q 232 715 160 715 l 746 715 l 746 586 l 683 518 l 351 518 q 317 497 317 518 l 317 488 q 349 461 317 467 l 618 413 q 730 353 686 400 q 774 246 774 306 l 774 171 q 724 50 774 100 q 601 0 674 0 l 60 0 z "},"t":{"ha":690,"x_min":35,"x_max":628,"o":"m 340 0 q 201 56 257 0 q 146 194 146 111 l 146 510 l 35 510 l 35 715 l 157 715 l 240 903 l 393 903 l 393 715 l 611 715 l 611 576 l 549 510 l 393 510 l 393 260 q 405 226 393 238 q 438 215 417 215 l 628 215 l 628 0 l 340 0 z "},"u":{"ha":935,"x_min":88,"x_max":847,"o":"m 282 -14 q 143 42 199 -14 q 88 181 88 97 l 88 715 l 336 715 l 336 246 q 379 201 336 201 l 532 201 q 582 219 564 201 q 600 268 600 238 l 600 715 l 847 715 l 847 0 l 669 0 l 632 86 l 625 86 q 559 14 604 42 q 463 -14 514 -14 l 282 -14 z "},"v":{"ha":857,"x_min":31,"x_max":826,"o":"m 569 0 l 288 0 l 31 604 l 31 715 l 268 715 l 422 254 l 435 254 l 588 715 l 826 715 l 826 604 l 569 0 z "},"w":{"ha":1219,"x_min":38,"x_max":1183,"o":"m 482 0 l 213 0 l 38 604 l 38 715 l 292 715 l 365 296 l 378 296 l 504 715 l 715 715 l 843 296 l 854 296 l 928 715 l 1183 715 l 1183 604 l 1007 0 l 739 0 l 615 396 l 604 396 l 482 0 z "},"x":{"ha":868,"x_min":42,"x_max":826,"o":"m 275 0 l 42 0 l 42 111 l 246 354 l 56 604 l 56 715 l 292 715 l 428 489 l 440 489 l 576 715 l 813 715 l 813 604 l 622 368 l 826 111 l 826 0 l 593 0 l 440 219 l 428 219 l 275 0 z "},"y":{"ha":851,"x_min":31,"x_max":822,"o":"m 586 715 l 822 715 l 822 604 l 585 -25 q 483 -183 546 -129 q 315 -236 421 -236 l 94 -236 l 94 -17 l 244 -17 q 289 19 278 -17 l 289 21 l 31 604 l 31 715 l 271 715 l 438 271 l 449 271 l 586 715 z "},"z":{"ha":806,"x_min":53,"x_max":750,"o":"m 750 0 l 53 0 l 53 192 l 393 497 l 393 510 l 118 510 l 56 576 l 56 715 l 750 715 l 750 524 l 410 218 l 410 206 l 750 206 l 750 0 z "},"Á":{"ha":1111,"x_min":18,"x_max":1093,"o":"m 385 972 l 726 972 l 1093 128 l 1093 0 l 840 0 l 779 167 l 332 167 l 271 0 l 18 0 l 18 128 l 385 972 m 549 750 l 414 385 l 697 385 l 563 750 l 549 750 m 646 1069 l 403 1069 l 514 1296 l 819 1296 l 646 1069 z "},"Ă":{"ha":1111,"x_min":18,"x_max":1093,"o":"m 385 972 l 726 972 l 1093 128 l 1093 0 l 840 0 l 779 167 l 332 167 l 271 0 l 18 0 l 18 128 l 385 972 m 549 750 l 414 385 l 697 385 l 563 750 l 549 750 m 379 1069 q 297 1103 331 1069 q 264 1185 264 1138 l 264 1296 l 472 1296 l 472 1250 q 503 1219 472 1219 l 608 1219 q 639 1250 639 1219 l 639 1296 l 847 1296 l 847 1185 q 813 1103 847 1138 q 732 1069 779 1069 l 379 1069 z "},"Â":{"ha":1111,"x_min":18,"x_max":1093,"o":"m 385 972 l 726 972 l 1093 128 l 1093 0 l 840 0 l 779 167 l 332 167 l 271 0 l 18 0 l 18 128 l 385 972 m 549 750 l 414 385 l 697 385 l 563 750 l 549 750 m 483 1069 l 250 1069 l 419 1296 l 692 1296 l 861 1069 l 628 1069 l 560 1164 l 551 1164 l 483 1069 z "},"Ä":{"ha":1111,"x_min":18,"x_max":1093,"o":"m 385 972 l 726 972 l 1093 128 l 1093 0 l 840 0 l 779 167 l 332 167 l 271 0 l 18 0 l 18 128 l 385 972 m 549 750 l 414 385 l 697 385 l 563 750 l 549 750 m 503 1074 l 264 1074 l 264 1289 l 503 1289 l 503 1074 m 847 1074 l 608 1074 l 608 1289 l 847 1289 l 847 1074 z "},"À":{"ha":1111,"x_min":18,"x_max":1093,"o":"m 385 972 l 726 972 l 1093 128 l 1093 0 l 840 0 l 779 167 l 332 167 l 271 0 l 18 0 l 18 128 l 385 972 m 549 750 l 414 385 l 697 385 l 563 750 l 549 750 m 708 1069 l 465 1069 l 292 1296 l 597 1296 l 708 1069 z "},"Ā":{"ha":1111,"x_min":18,"x_max":1093,"o":"m 385 972 l 726 972 l 1093 128 l 1093 0 l 840 0 l 779 167 l 332 167 l 271 0 l 18 0 l 18 128 l 385 972 m 549 750 l 414 385 l 697 385 l 563 750 l 549 750 m 819 1093 l 292 1093 l 292 1274 l 819 1274 l 819 1093 z "},"Ą":{"ha":1111,"x_min":18,"x_max":1093,"o":"m 1093 0 q 979 -81 1018 -44 q 940 -149 940 -117 q 978 -185 940 -185 l 1093 -185 l 1093 -326 l 924 -326 q 804 -290 844 -326 q 764 -190 764 -254 q 810 -85 764 -135 q 921 0 856 -36 l 840 0 l 779 167 l 332 167 l 271 0 l 18 0 l 18 128 l 385 972 l 726 972 l 1093 128 l 1093 0 m 549 750 l 414 385 l 697 385 l 563 750 l 549 750 z "},"Ã":{"ha":1111,"x_min":18,"x_max":1093,"o":"m 385 972 l 726 972 l 1093 128 l 1093 0 l 840 0 l 779 167 l 332 167 l 271 0 l 18 0 l 18 128 l 385 972 m 549 750 l 414 385 l 697 385 l 563 750 l 549 750 m 703 1063 q 623 1074 658 1063 q 543 1104 588 1085 q 476 1126 496 1126 q 460 1110 460 1126 l 460 1069 l 296 1069 l 296 1201 q 324 1274 296 1247 q 407 1301 353 1301 q 487 1290 451 1301 q 567 1260 522 1279 q 633 1238 614 1238 q 650 1254 650 1238 l 650 1294 l 814 1294 l 814 1161 q 785 1090 814 1117 q 703 1063 757 1063 z "},"Ǎ":{"ha":1111,"x_min":18,"x_max":1093,"o":"m 385 972 l 726 972 l 1093 128 l 1093 0 l 840 0 l 779 167 l 332 167 l 271 0 l 18 0 l 18 128 l 385 972 m 549 750 l 414 385 l 697 385 l 563 750 l 549 750 m 692 1069 l 419 1069 l 250 1296 l 483 1296 l 551 1201 l 560 1201 l 628 1296 l 861 1296 l 692 1069 z "},"Å":{"ha":1111,"x_min":18,"x_max":1093,"o":"m 385 972 l 726 972 l 1093 128 l 1093 0 l 840 0 l 779 167 l 332 167 l 271 0 l 18 0 l 18 128 l 385 972 m 549 750 l 414 385 l 697 385 l 563 750 l 549 750 m 488 1028 q 397 1067 435 1028 q 358 1157 358 1106 l 358 1215 q 397 1306 358 1268 q 488 1344 435 1344 l 622 1344 q 713 1306 674 1344 q 751 1215 751 1268 l 751 1157 q 713 1067 751 1106 q 622 1028 674 1028 l 488 1028 m 578 1149 q 597 1156 589 1149 q 604 1174 604 1163 l 604 1199 q 597 1217 604 1210 q 578 1225 589 1225 l 532 1225 q 514 1217 521 1225 q 507 1199 507 1210 l 507 1174 q 514 1156 507 1164 q 532 1149 521 1149 l 578 1149 z "},"Ǻ":{"ha":1111,"x_min":18,"x_max":1093,"o":"m 385 972 l 726 972 l 1093 128 l 1093 0 l 840 0 l 779 167 l 332 167 l 271 0 l 18 0 l 18 128 l 385 972 m 549 750 l 414 385 l 697 385 l 563 750 l 549 750 m 663 1338 q 726 1290 701 1324 q 751 1215 751 1257 l 751 1157 q 713 1067 751 1106 q 622 1028 674 1028 l 488 1028 q 397 1067 435 1028 q 358 1157 358 1106 l 358 1215 q 387 1294 358 1260 q 457 1340 415 1329 l 535 1489 l 793 1489 l 663 1338 m 604 1199 q 597 1217 604 1210 q 578 1225 589 1225 l 532 1225 q 514 1217 521 1225 q 507 1199 507 1210 l 507 1174 q 514 1156 507 1164 q 532 1149 521 1149 l 578 1149 q 597 1156 589 1149 q 604 1174 604 1163 l 604 1199 z "},"Æ":{"ha":1590,"x_min":18,"x_max":1528,"o":"m 1528 829 l 1444 746 l 958 746 l 958 597 l 1371 597 l 1371 379 l 958 379 l 958 226 l 1528 226 l 1528 0 l 697 0 l 697 169 l 325 169 l 275 0 l 18 0 l 18 128 l 324 972 l 1528 972 l 1528 829 m 497 746 l 390 386 l 697 386 l 697 746 l 497 746 z "},"Ǽ":{"ha":1590,"x_min":18,"x_max":1528,"o":"m 1528 829 l 1444 746 l 958 746 l 958 597 l 1371 597 l 1371 379 l 958 379 l 958 226 l 1528 226 l 1528 0 l 697 0 l 697 169 l 325 169 l 275 0 l 18 0 l 18 128 l 324 972 l 1528 972 l 1528 829 m 497 746 l 390 386 l 697 386 l 697 746 l 497 746 m 942 1069 l 699 1069 l 810 1296 l 1115 1296 l 942 1069 z "},"Ć":{"ha":1044,"x_min":90,"x_max":982,"o":"m 322 0 q 153 63 217 0 q 90 232 90 126 l 90 740 q 153 910 90 847 q 322 972 217 972 l 982 972 l 982 819 l 899 736 l 400 736 q 365 724 378 736 q 351 688 351 711 l 351 285 q 365 249 351 263 q 400 236 378 236 l 982 236 l 982 0 l 322 0 m 669 1069 l 426 1069 l 538 1296 l 843 1296 l 669 1069 z "},"Č":{"ha":1044,"x_min":90,"x_max":982,"o":"m 322 0 q 153 63 217 0 q 90 232 90 126 l 90 740 q 153 910 90 847 q 322 972 217 972 l 982 972 l 982 819 l 899 736 l 400 736 q 365 724 378 736 q 351 688 351 711 l 351 285 q 365 249 351 263 q 400 236 378 236 l 982 236 l 982 0 l 322 0 m 715 1069 l 443 1069 l 274 1296 l 507 1296 l 575 1201 l 583 1201 l 651 1296 l 885 1296 l 715 1069 z "},"Ç":{"ha":1044,"x_min":90,"x_max":982,"o":"m 400 736 q 365 724 378 736 q 351 688 351 711 l 351 285 q 365 249 351 263 q 400 236 378 236 l 982 236 l 982 0 l 632 0 l 621 -49 l 682 -49 q 767 -82 735 -49 q 800 -167 800 -115 l 800 -222 q 767 -307 800 -274 q 682 -340 735 -340 l 429 -340 l 429 -219 l 613 -219 q 631 -214 624 -219 q 638 -199 638 -208 l 638 -190 q 631 -175 638 -181 q 613 -169 624 -169 l 496 -169 l 443 -121 l 471 0 l 322 0 q 153 63 217 0 q 90 232 90 126 l 90 740 q 153 910 90 847 q 322 972 217 972 l 982 972 l 982 819 l 899 736 l 400 736 z "},"Ĉ":{"ha":1044,"x_min":90,"x_max":982,"o":"m 322 0 q 153 63 217 0 q 90 232 90 126 l 90 740 q 153 910 90 847 q 322 972 217 972 l 982 972 l 982 819 l 899 736 l 400 736 q 365 724 378 736 q 351 688 351 711 l 351 285 q 365 249 351 263 q 400 236 378 236 l 982 236 l 982 0 l 322 0 m 507 1069 l 274 1069 l 443 1296 l 715 1296 l 885 1069 l 651 1069 l 583 1164 l 575 1164 l 507 1069 z "},"Ċ":{"ha":1044,"x_min":90,"x_max":982,"o":"m 322 0 q 153 63 217 0 q 90 232 90 126 l 90 740 q 153 910 90 847 q 322 972 217 972 l 982 972 l 982 819 l 899 736 l 400 736 q 365 724 378 736 q 351 688 351 711 l 351 285 q 365 249 351 263 q 400 236 378 236 l 982 236 l 982 0 l 322 0 m 701 1074 l 454 1074 l 454 1289 l 701 1289 l 701 1074 z "},"Ð":{"ha":1188,"x_min":10,"x_max":1097,"o":"m 865 972 q 1035 910 972 972 q 1097 740 1097 847 l 1097 232 q 1035 63 1097 126 q 865 0 972 0 l 121 0 l 121 388 l 10 388 l 10 585 l 121 585 l 121 972 l 865 972 m 836 692 q 824 728 836 715 q 788 740 811 740 l 382 740 l 382 585 l 607 585 l 607 388 l 382 388 l 382 232 l 788 232 q 824 245 811 232 q 836 281 836 258 l 836 692 z "},"Ď":{"ha":1174,"x_min":107,"x_max":1083,"o":"m 107 0 l 107 972 l 851 972 q 1021 910 958 972 q 1083 740 1083 847 l 1083 232 q 1021 63 1083 126 q 851 0 958 0 l 107 0 m 774 232 q 810 245 797 232 q 822 281 822 258 l 822 692 q 810 728 822 715 q 774 740 797 740 l 368 740 l 368 232 l 774 232 m 724 1069 l 451 1069 l 282 1296 l 515 1296 l 583 1201 l 592 1201 l 660 1296 l 893 1296 l 724 1069 z "},"Đ":{"ha":1188,"x_min":10,"x_max":1097,"o":"m 865 972 q 1035 910 972 972 q 1097 740 1097 847 l 1097 232 q 1035 63 1097 126 q 865 0 972 0 l 121 0 l 121 388 l 10 388 l 10 585 l 121 585 l 121 972 l 865 972 m 836 692 q 824 728 836 715 q 788 740 811 740 l 382 740 l 382 585 l 607 585 l 607 388 l 382 388 l 382 232 l 788 232 q 824 245 811 232 q 836 281 836 258 l 836 692 z "},"Ǳ":{"ha":2192,"x_min":107,"x_max":2136,"o":"m 107 0 l 107 972 l 851 972 q 1021 910 958 972 q 1083 740 1083 847 l 1083 232 q 1021 63 1083 126 q 851 0 958 0 l 107 0 m 774 232 q 810 245 797 232 q 822 281 822 258 l 822 692 q 810 728 822 715 q 774 740 797 740 l 368 740 l 368 232 l 774 232 m 2136 0 l 1208 0 l 1208 225 l 1740 725 l 1740 736 l 1306 736 l 1222 819 l 1222 972 l 2136 972 l 2136 747 l 1604 247 l 1604 236 l 2136 236 l 2136 0 z "},"Ǆ":{"ha":2192,"x_min":107,"x_max":2136,"o":"m 107 0 l 107 972 l 851 972 q 1021 910 958 972 q 1083 740 1083 847 l 1083 232 q 1021 63 1083 126 q 851 0 958 0 l 107 0 m 774 232 q 810 245 797 232 q 822 281 822 258 l 822 692 q 810 728 822 715 q 774 740 797 740 l 368 740 l 368 232 l 774 232 z "},"ǲ":{"ha":1979,"x_min":107,"x_max":1924,"o":"m 107 0 l 107 972 l 851 972 q 1021 910 958 972 q 1083 740 1083 847 l 1083 232 q 1021 63 1083 126 q 851 0 958 0 l 107 0 m 774 232 q 810 245 797 232 q 822 281 822 258 l 822 692 q 810 728 822 715 q 774 740 797 740 l 368 740 l 368 232 l 774 232 m 1924 0 l 1226 0 l 1226 192 l 1567 497 l 1567 510 l 1292 510 l 1229 576 l 1229 715 l 1924 715 l 1924 524 l 1583 218 l 1583 206 l 1924 206 l 1924 0 z "},"ǅ":{"ha":1979,"x_min":107,"x_max":1924,"o":"m 107 0 l 107 972 l 851 972 q 1021 910 958 972 q 1083 740 1083 847 l 1083 232 q 1021 63 1083 126 q 851 0 958 0 l 107 0 m 774 232 q 810 245 797 232 q 822 281 822 258 l 822 692 q 810 728 822 715 q 774 740 797 740 l 368 740 l 368 232 l 774 232 z "},"É":{"ha":1035,"x_min":107,"x_max":972,"o":"m 972 0 l 107 0 l 107 972 l 972 972 l 972 829 l 889 746 l 368 746 l 368 597 l 815 597 l 815 379 l 368 379 l 368 226 l 972 226 l 972 0 m 632 1069 l 389 1069 l 500 1296 l 806 1296 l 632 1069 z "},"Ĕ":{"ha":1035,"x_min":107,"x_max":972,"o":"m 972 0 l 107 0 l 107 972 l 972 972 l 972 829 l 889 746 l 368 746 l 368 597 l 815 597 l 815 379 l 368 379 l 368 226 l 972 226 l 972 0 m 365 1069 q 283 1103 317 1069 q 250 1185 250 1138 l 250 1296 l 458 1296 l 458 1250 q 489 1219 458 1219 l 594 1219 q 625 1250 625 1219 l 625 1296 l 833 1296 l 833 1185 q 799 1103 833 1138 q 718 1069 765 1069 l 365 1069 z "},"Ě":{"ha":1035,"x_min":107,"x_max":972,"o":"m 972 0 l 107 0 l 107 972 l 972 972 l 972 829 l 889 746 l 368 746 l 368 597 l 815 597 l 815 379 l 368 379 l 368 226 l 972 226 l 972 0 m 678 1069 l 406 1069 l 236 1296 l 469 1296 l 538 1201 l 546 1201 l 614 1296 l 847 1296 l 678 1069 z "},"Ê":{"ha":1035,"x_min":107,"x_max":972,"o":"m 972 0 l 107 0 l 107 972 l 972 972 l 972 829 l 889 746 l 368 746 l 368 597 l 815 597 l 815 379 l 368 379 l 368 226 l 972 226 l 972 0 m 469 1069 l 236 1069 l 406 1296 l 678 1296 l 847 1069 l 614 1069 l 546 1164 l 538 1164 l 469 1069 z "},"Ë":{"ha":1035,"x_min":107,"x_max":972,"o":"m 972 0 l 107 0 l 107 972 l 972 972 l 972 829 l 889 746 l 368 746 l 368 597 l 815 597 l 815 379 l 368 379 l 368 226 l 972 226 l 972 0 m 489 1074 l 250 1074 l 250 1289 l 489 1289 l 489 1074 m 833 1074 l 594 1074 l 594 1289 l 833 1289 l 833 1074 z "},"Ė":{"ha":1035,"x_min":107,"x_max":972,"o":"m 972 0 l 107 0 l 107 972 l 972 972 l 972 829 l 889 746 l 368 746 l 368 597 l 815 597 l 815 379 l 368 379 l 368 226 l 972 226 l 972 0 m 665 1074 l 418 1074 l 418 1289 l 665 1289 l 665 1074 z "},"È":{"ha":1035,"x_min":107,"x_max":972,"o":"m 972 0 l 107 0 l 107 972 l 972 972 l 972 829 l 889 746 l 368 746 l 368 597 l 815 597 l 815 379 l 368 379 l 368 226 l 972 226 l 972 0 m 694 1069 l 451 1069 l 278 1296 l 583 1296 l 694 1069 z "},"Ē":{"ha":1035,"x_min":107,"x_max":972,"o":"m 972 0 l 107 0 l 107 972 l 972 972 l 972 829 l 889 746 l 368 746 l 368 597 l 815 597 l 815 379 l 368 379 l 368 226 l 972 226 l 972 0 m 806 1093 l 278 1093 l 278 1274 l 806 1274 l 806 1093 z "},"Ę":{"ha":1035,"x_min":107,"x_max":972,"o":"m 889 746 l 368 746 l 368 597 l 815 597 l 815 379 l 368 379 l 368 226 l 972 226 l 972 0 q 858 -81 897 -44 q 819 -149 819 -117 q 857 -185 819 -185 l 972 -185 l 972 -326 l 803 -326 q 683 -290 724 -326 q 643 -190 643 -254 q 689 -85 643 -135 q 800 0 735 -36 l 107 0 l 107 972 l 972 972 l 972 829 l 889 746 z "},"Ẽ":{"ha":1035,"x_min":107,"x_max":972,"o":"m 972 0 l 107 0 l 107 972 l 972 972 l 972 829 l 889 746 l 368 746 l 368 597 l 815 597 l 815 379 l 368 379 l 368 226 l 972 226 l 972 0 m 690 1063 q 610 1074 646 1063 q 531 1104 575 1085 q 464 1126 483 1126 q 447 1110 447 1126 l 447 1069 l 283 1069 l 283 1201 q 312 1274 283 1247 q 394 1301 340 1301 q 474 1290 439 1301 q 554 1260 510 1279 q 621 1238 601 1238 q 638 1254 638 1238 l 638 1294 l 801 1294 l 801 1161 q 773 1090 801 1117 q 690 1063 744 1063 z "},"Ə":{"ha":1176,"x_min":90,"x_max":1086,"o":"m 322 -14 q 153 49 217 -14 q 90 218 90 113 l 90 581 l 824 581 l 824 697 q 811 733 824 721 q 775 746 799 746 l 268 746 l 185 829 l 185 972 l 854 972 q 1024 910 961 972 q 1086 740 1086 847 l 1086 218 q 1024 49 1086 113 q 854 -14 961 -14 l 322 -14 m 775 218 q 811 231 799 218 q 824 267 824 244 l 824 386 l 351 386 l 351 267 q 365 231 351 244 q 400 218 378 218 l 775 218 z "},"Ǵ":{"ha":1146,"x_min":90,"x_max":1056,"o":"m 322 0 q 153 63 217 0 q 90 232 90 126 l 90 740 q 153 910 90 847 q 322 972 217 972 l 990 972 l 990 819 l 907 736 l 400 736 q 365 724 378 736 q 351 688 351 711 l 351 281 q 365 245 351 258 q 400 232 378 232 l 794 232 l 794 549 l 1056 549 l 1056 0 l 322 0 m 682 1069 l 439 1069 l 550 1296 l 856 1296 l 682 1069 z "},"Ğ":{"ha":1146,"x_min":90,"x_max":1056,"o":"m 322 0 q 153 63 217 0 q 90 232 90 126 l 90 740 q 153 910 90 847 q 322 972 217 972 l 990 972 l 990 819 l 907 736 l 400 736 q 365 724 378 736 q 351 688 351 711 l 351 281 q 365 245 351 258 q 400 232 378 232 l 794 232 l 794 549 l 1056 549 l 1056 0 l 322 0 m 415 1069 q 333 1103 367 1069 q 300 1185 300 1138 l 300 1296 l 508 1296 l 508 1250 q 539 1219 508 1219 l 644 1219 q 675 1250 675 1219 l 675 1296 l 883 1296 l 883 1185 q 849 1103 883 1138 q 768 1069 815 1069 l 415 1069 z "},"Ĝ":{"ha":1146,"x_min":90,"x_max":1056,"o":"m 322 0 q 153 63 217 0 q 90 232 90 126 l 90 740 q 153 910 90 847 q 322 972 217 972 l 990 972 l 990 819 l 907 736 l 400 736 q 365 724 378 736 q 351 688 351 711 l 351 281 q 365 245 351 258 q 400 232 378 232 l 794 232 l 794 549 l 1056 549 l 1056 0 l 322 0 m 519 1069 l 286 1069 l 456 1296 l 728 1296 l 897 1069 l 664 1069 l 596 1164 l 588 1164 l 519 1069 z "},"Ģ":{"ha":1146,"x_min":90,"x_max":1056,"o":"m 322 0 q 153 63 217 0 q 90 232 90 126 l 90 740 q 153 910 90 847 q 322 972 217 972 l 990 972 l 990 819 l 907 736 l 400 736 q 365 724 378 736 q 351 688 351 711 l 351 281 q 365 245 351 258 q 400 232 378 232 l 794 232 l 794 549 l 1056 549 l 1056 0 l 322 0 m 597 -399 l 467 -399 l 467 -86 l 696 -86 l 696 -243 l 597 -399 z "},"Ġ":{"ha":1146,"x_min":90,"x_max":1056,"o":"m 322 0 q 153 63 217 0 q 90 232 90 126 l 90 740 q 153 910 90 847 q 322 972 217 972 l 990 972 l 990 819 l 907 736 l 400 736 q 365 724 378 736 q 351 688 351 711 l 351 281 q 365 245 351 258 q 400 232 378 232 l 794 232 l 794 549 l 1056 549 l 1056 0 l 322 0 m 715 1074 l 468 1074 l 468 1289 l 715 1289 l 715 1074 z "},"Ǧ":{"ha":1146,"x_min":90,"x_max":1056,"o":"m 322 0 q 153 63 217 0 q 90 232 90 126 l 90 740 q 153 910 90 847 q 322 972 217 972 l 990 972 l 990 819 l 907 736 l 400 736 q 365 724 378 736 q 351 688 351 711 l 351 281 q 365 245 351 258 q 400 232 378 232 l 794 232 l 794 549 l 1056 549 l 1056 0 l 322 0 m 728 1069 l 456 1069 l 286 1296 l 519 1296 l 588 1201 l 596 1201 l 664 1296 l 897 1296 l 728 1069 z "},"Ħ":{"ha":1226,"x_min":10,"x_max":1218,"o":"m 1107 869 l 1218 869 l 1218 686 l 1107 686 l 1107 0 l 844 0 l 844 371 l 382 371 l 382 0 l 121 0 l 121 686 l 10 686 l 10 869 l 121 869 l 121 972 l 382 972 l 382 869 l 844 869 l 844 972 l 1107 972 l 1107 869 m 382 608 l 844 608 l 844 686 l 382 686 l 382 608 z "},"Ĥ":{"ha":1199,"x_min":107,"x_max":1093,"o":"m 368 0 l 107 0 l 107 972 l 368 972 l 368 608 l 831 608 l 831 972 l 1093 972 l 1093 0 l 831 0 l 831 371 l 368 371 l 368 0 m 528 1069 l 294 1069 l 464 1296 l 736 1296 l 906 1069 l 672 1069 l 604 1164 l 596 1164 l 528 1069 z "},"Ȟ":{"ha":1199,"x_min":107,"x_max":1093,"o":"m 368 0 l 107 0 l 107 972 l 368 972 l 368 608 l 831 608 l 831 972 l 1093 972 l 1093 0 l 831 0 l 831 371 l 368 371 l 368 0 m 736 1069 l 464 1069 l 294 1296 l 528 1296 l 596 1201 l 604 1201 l 672 1296 l 906 1296 l 736 1069 z "},"Ḧ":{"ha":1199,"x_min":107,"x_max":1093,"o":"m 368 0 l 107 0 l 107 972 l 368 972 l 368 608 l 831 608 l 831 972 l 1093 972 l 1093 0 l 831 0 l 831 371 l 368 371 l 368 0 m 547 1074 l 308 1074 l 308 1289 l 547 1289 l 547 1074 m 892 1074 l 653 1074 l 653 1289 l 892 1289 l 892 1074 z "},"Ḥ":{"ha":1199,"x_min":107,"x_max":1093,"o":"m 368 0 l 107 0 l 107 972 l 368 972 l 368 608 l 831 608 l 831 972 l 1093 972 l 1093 0 l 831 0 l 831 371 l 368 371 l 368 0 m 726 -331 l 474 -331 l 474 -104 l 726 -104 l 726 -331 z "},"Í":{"ha":475,"x_min":85,"x_max":501,"o":"m 368 0 l 107 0 l 107 972 l 368 972 l 368 0 m 328 1069 l 85 1069 l 196 1296 l 501 1296 l 328 1069 z "},"Ĭ":{"ha":475,"x_min":-54,"x_max":529,"o":"m 368 0 l 107 0 l 107 972 l 368 972 l 368 0 m 61 1069 q -21 1103 13 1069 q -54 1185 -54 1138 l -54 1296 l 154 1296 l 154 1250 q 185 1219 154 1219 l 290 1219 q 321 1250 321 1219 l 321 1296 l 529 1296 l 529 1185 q 495 1103 529 1138 q 414 1069 461 1069 l 61 1069 z "},"Î":{"ha":475,"x_min":-68,"x_max":543,"o":"m 368 0 l 107 0 l 107 972 l 368 972 l 368 0 m 165 1069 l -68 1069 l 101 1296 l 374 1296 l 543 1069 l 310 1069 l 242 1164 l 233 1164 l 165 1069 z "},"Ï":{"ha":475,"x_min":-54,"x_max":529,"o":"m 368 0 l 107 0 l 107 972 l 368 972 l 368 0 m 185 1074 l -54 1074 l -54 1289 l 185 1289 l 185 1074 m 529 1074 l 290 1074 l 290 1289 l 529 1289 l 529 1074 z "},"İ":{"ha":475,"x_min":107,"x_max":368,"o":"m 368 0 l 107 0 l 107 972 l 368 972 l 368 0 m 361 1074 l 114 1074 l 114 1289 l 361 1289 l 361 1074 z "},"Ì":{"ha":475,"x_min":-26,"x_max":390,"o":"m 368 0 l 107 0 l 107 972 l 368 972 l 368 0 m 390 1069 l 147 1069 l -26 1296 l 279 1296 l 390 1069 z "},"Ī":{"ha":475,"x_min":-26,"x_max":501,"o":"m 368 0 l 107 0 l 107 972 l 368 972 l 368 0 m 501 1093 l -26 1093 l -26 1274 l 501 1274 l 501 1093 z "},"Į":{"ha":475,"x_min":39,"x_max":368,"o":"m 368 0 q 253 -82 290 -46 q 215 -149 215 -118 q 253 -185 215 -185 l 368 -185 l 368 -326 l 199 -326 q 79 -290 119 -326 q 39 -190 39 -254 q 85 -85 39 -135 q 196 0 131 -36 l 107 0 l 107 972 l 368 972 l 368 0 z "},"Ĩ":{"ha":475,"x_min":-22,"x_max":496,"o":"m 368 0 l 107 0 l 107 972 l 368 972 l 368 0 m 385 1063 q 305 1074 340 1063 q 225 1104 269 1085 q 158 1126 178 1126 q 142 1110 142 1126 l 142 1069 l -22 1069 l -22 1201 q 6 1274 -22 1247 q 89 1301 35 1301 q 169 1290 133 1301 q 249 1260 204 1279 q 315 1238 296 1238 q 332 1254 332 1238 l 332 1294 l 496 1294 l 496 1161 q 467 1090 496 1117 q 385 1063 439 1063 z "},"Ĳ":{"ha":1288,"x_min":107,"x_max":1188,"o":"m 368 0 l 107 0 l 107 972 l 368 972 l 368 0 m 510 -14 l 510 222 l 878 222 q 914 235 901 222 q 926 271 926 249 l 926 972 l 1188 972 l 1188 218 q 1125 49 1188 113 q 957 -14 1063 -14 l 510 -14 z "},"":{"ha":1288,"x_min":85,"x_max":1321,"o":"m 368 0 l 107 0 l 107 972 l 368 972 l 368 0 m 328 1069 l 85 1069 l 196 1296 l 501 1296 l 328 1069 m 510 -14 l 510 222 l 878 222 q 914 235 901 222 q 926 271 926 249 l 926 972 l 1188 972 l 1188 218 q 1125 49 1188 113 q 957 -14 1063 -14 l 510 -14 m 1147 1069 l 904 1069 l 1015 1296 l 1321 1296 l 1147 1069 z "},"Ĵ":{"ha":813,"x_min":35,"x_max":888,"o":"m 35 -14 l 35 222 l 403 222 q 439 235 426 222 q 451 271 451 249 l 451 972 l 713 972 l 713 218 q 650 49 713 113 q 482 -14 588 -14 l 35 -14 m 510 1069 l 276 1069 l 446 1296 l 718 1296 l 888 1069 l 654 1069 l 586 1164 l 578 1164 l 510 1069 z "},"Ķ":{"ha":1139,"x_min":107,"x_max":1090,"o":"m 368 0 l 107 0 l 107 972 l 368 972 l 368 608 l 604 608 l 842 972 l 1072 972 l 1072 844 l 836 511 l 1090 128 l 1090 0 l 853 0 l 613 371 l 368 371 l 368 0 m 601 -399 l 471 -399 l 471 -86 l 700 -86 l 700 -243 l 601 -399 z "},"Ḱ":{"ha":1139,"x_min":107,"x_max":1090,"o":"m 368 0 l 107 0 l 107 972 l 368 972 l 368 608 l 604 608 l 842 972 l 1072 972 l 1072 844 l 836 511 l 1090 128 l 1090 0 l 853 0 l 613 371 l 368 371 l 368 0 m 685 1069 l 442 1069 l 553 1296 l 858 1296 l 685 1069 z "},"Ĺ":{"ha":975,"x_min":85,"x_max":954,"o":"m 954 0 l 107 0 l 107 972 l 368 972 l 368 239 l 954 239 l 954 0 m 328 1069 l 85 1069 l 196 1296 l 501 1296 l 328 1069 z "},"Ľ":{"ha":975,"x_min":107,"x_max":954,"o":"m 954 0 l 107 0 l 107 972 l 368 972 l 368 239 l 954 239 l 954 0 m 600 681 l 469 681 l 469 972 l 699 972 l 699 847 l 600 681 z "},"Ļ":{"ha":975,"x_min":107,"x_max":954,"o":"m 954 0 l 107 0 l 107 972 l 368 972 l 368 239 l 954 239 l 954 0 m 546 -399 l 415 -399 l 415 -86 l 644 -86 l 644 -243 l 546 -399 z "},"Ŀ":{"ha":975,"x_min":107,"x_max":954,"o":"m 954 0 l 107 0 l 107 972 l 368 972 l 368 239 l 954 239 l 954 0 m 850 424 l 599 424 l 599 650 l 850 650 l 850 424 z "},"Ł":{"ha":989,"x_min":38,"x_max":968,"o":"m 382 476 l 382 239 l 968 239 l 968 0 l 121 0 l 121 315 l 38 264 l 38 483 l 121 535 l 121 972 l 382 972 l 382 696 l 619 842 l 619 624 l 382 476 z "},"Ǉ":{"ha":1788,"x_min":107,"x_max":1688,"o":"m 954 0 l 107 0 l 107 972 l 368 972 l 368 239 l 954 239 l 954 0 m 1010 -14 l 1010 222 l 1378 222 q 1414 235 1401 222 q 1426 271 1426 249 l 1426 972 l 1688 972 l 1688 218 q 1625 49 1688 113 q 1457 -14 1563 -14 l 1010 -14 z "},"Ḷ":{"ha":975,"x_min":107,"x_max":954,"o":"m 954 0 l 107 0 l 107 972 l 368 972 l 368 239 l 954 239 l 954 0 m 657 -331 l 404 -331 l 404 -104 l 657 -104 l 657 -331 z "},"ǈ":{"ha":1413,"x_min":107,"x_max":1325,"o":"m 954 0 l 107 0 l 107 972 l 368 972 l 368 239 l 954 239 l 954 0 m 906 -236 l 906 -21 l 1033 -21 q 1076 24 1076 -21 l 1076 715 l 1325 715 l 1325 -42 q 1269 -181 1325 -125 q 1131 -236 1214 -236 l 906 -236 m 1324 824 l 1076 824 l 1076 1039 l 1324 1039 l 1324 824 z "},"Ḿ":{"ha":1419,"x_min":60,"x_max":1358,"o":"m 322 0 l 60 0 l 60 128 l 163 972 l 461 972 l 704 458 l 715 458 l 958 972 l 1257 972 l 1358 128 l 1358 0 l 1097 0 l 1050 601 l 1038 601 l 817 139 l 601 139 l 381 601 l 369 601 l 322 0 m 828 1069 l 585 1069 l 696 1296 l 1001 1296 l 828 1069 z "},"Ń":{"ha":1211,"x_min":107,"x_max":1104,"o":"m 368 0 l 107 0 l 107 972 l 389 972 l 850 379 l 861 379 l 843 569 l 843 972 l 1104 972 l 1104 0 l 822 0 l 361 593 l 350 593 l 368 403 l 368 0 m 696 1069 l 453 1069 l 564 1296 l 869 1296 l 696 1069 z "},"Ň":{"ha":1211,"x_min":107,"x_max":1104,"o":"m 368 0 l 107 0 l 107 972 l 389 972 l 850 379 l 861 379 l 843 569 l 843 972 l 1104 972 l 1104 0 l 822 0 l 361 593 l 350 593 l 368 403 l 368 0 m 742 1069 l 469 1069 l 300 1296 l 533 1296 l 601 1201 l 610 1201 l 678 1296 l 911 1296 l 742 1069 z "},"Ņ":{"ha":1211,"x_min":107,"x_max":1104,"o":"m 368 0 l 107 0 l 107 972 l 389 972 l 850 379 l 861 379 l 843 569 l 843 972 l 1104 972 l 1104 0 l 822 0 l 361 593 l 350 593 l 368 403 l 368 0 m 622 -399 l 492 -399 l 492 -86 l 721 -86 l 721 -243 l 622 -399 z "},"Ŋ":{"ha":1211,"x_min":107,"x_max":1104,"o":"m 435 -254 l 435 -51 l 794 -51 q 830 -40 817 -51 q 843 -11 843 -28 l 843 0 l 361 593 l 350 593 l 368 403 l 368 0 l 107 0 l 107 972 l 389 972 l 850 393 l 861 393 l 843 582 l 843 972 l 1104 972 l 1104 -24 q 1041 -192 1104 -129 q 872 -254 978 -254 l 435 -254 z "},"Ñ":{"ha":1211,"x_min":107,"x_max":1104,"o":"m 368 0 l 107 0 l 107 972 l 389 972 l 850 379 l 861 379 l 843 569 l 843 972 l 1104 972 l 1104 0 l 822 0 l 361 593 l 350 593 l 368 403 l 368 0 m 754 1063 q 674 1074 710 1063 q 594 1104 639 1085 q 528 1126 547 1126 q 511 1110 511 1126 l 511 1069 l 347 1069 l 347 1201 q 376 1274 347 1247 q 458 1301 404 1301 q 538 1290 503 1301 q 618 1260 574 1279 q 685 1238 665 1238 q 701 1254 701 1238 l 701 1294 l 865 1294 l 865 1161 q 837 1090 865 1117 q 754 1063 808 1063 z "},"Ǌ":{"ha":2024,"x_min":107,"x_max":1924,"o":"m 368 0 l 107 0 l 107 972 l 389 972 l 850 379 l 861 379 l 843 569 l 843 972 l 1104 972 l 1104 0 l 822 0 l 361 593 l 350 593 l 368 403 l 368 0 m 1246 -14 l 1246 222 l 1614 222 q 1650 235 1638 222 q 1663 271 1663 249 l 1663 972 l 1924 972 l 1924 218 q 1861 49 1924 113 q 1693 -14 1799 -14 l 1246 -14 z "},"ǋ":{"ha":1649,"x_min":107,"x_max":1561,"o":"m 368 0 l 107 0 l 107 972 l 389 972 l 850 379 l 861 379 l 843 569 l 843 972 l 1104 972 l 1104 0 l 822 0 l 361 593 l 350 593 l 368 403 l 368 0 m 1142 -236 l 1142 -21 l 1269 -21 q 1313 24 1313 -21 l 1313 715 l 1561 715 l 1561 -42 q 1506 -181 1561 -125 q 1367 -236 1450 -236 l 1142 -236 m 1560 824 l 1313 824 l 1313 1039 l 1560 1039 l 1560 824 z "},"Ó":{"ha":1176,"x_min":90,"x_max":1086,"o":"m 322 -14 q 153 49 217 -14 q 90 218 90 113 l 90 754 q 153 924 90 861 q 322 986 217 986 l 854 986 q 1024 924 961 986 q 1086 754 1086 861 l 1086 218 q 1024 49 1086 113 q 854 -14 961 -14 l 322 -14 m 775 218 q 811 231 799 218 q 824 267 824 244 l 824 706 q 811 742 824 729 q 775 754 799 754 l 400 754 q 365 742 378 754 q 351 706 351 729 l 351 267 q 365 231 351 244 q 400 218 378 218 l 775 218 m 678 1069 l 435 1069 l 546 1296 l 851 1296 l 678 1069 z "},"Ŏ":{"ha":1176,"x_min":90,"x_max":1086,"o":"m 322 -14 q 153 49 217 -14 q 90 218 90 113 l 90 754 q 153 924 90 861 q 322 986 217 986 l 854 986 q 1024 924 961 986 q 1086 754 1086 861 l 1086 218 q 1024 49 1086 113 q 854 -14 961 -14 l 322 -14 m 775 218 q 811 231 799 218 q 824 267 824 244 l 824 706 q 811 742 824 729 q 775 754 799 754 l 400 754 q 365 742 378 754 q 351 706 351 729 l 351 267 q 365 231 351 244 q 400 218 378 218 l 775 218 m 411 1069 q 329 1103 363 1069 q 296 1185 296 1138 l 296 1296 l 504 1296 l 504 1250 q 535 1219 504 1219 l 640 1219 q 671 1250 671 1219 l 671 1296 l 879 1296 l 879 1185 q 845 1103 879 1138 q 764 1069 811 1069 l 411 1069 z "},"Ô":{"ha":1176,"x_min":90,"x_max":1086,"o":"m 322 -14 q 153 49 217 -14 q 90 218 90 113 l 90 754 q 153 924 90 861 q 322 986 217 986 l 854 986 q 1024 924 961 986 q 1086 754 1086 861 l 1086 218 q 1024 49 1086 113 q 854 -14 961 -14 l 322 -14 m 775 218 q 811 231 799 218 q 824 267 824 244 l 824 706 q 811 742 824 729 q 775 754 799 754 l 400 754 q 365 742 378 754 q 351 706 351 729 l 351 267 q 365 231 351 244 q 400 218 378 218 l 775 218 m 515 1069 l 282 1069 l 451 1296 l 724 1296 l 893 1069 l 660 1069 l 592 1164 l 583 1164 l 515 1069 z "},"Ö":{"ha":1176,"x_min":90,"x_max":1086,"o":"m 322 -14 q 153 49 217 -14 q 90 218 90 113 l 90 754 q 153 924 90 861 q 322 986 217 986 l 854 986 q 1024 924 961 986 q 1086 754 1086 861 l 1086 218 q 1024 49 1086 113 q 854 -14 961 -14 l 322 -14 m 775 218 q 811 231 799 218 q 824 267 824 244 l 824 706 q 811 742 824 729 q 775 754 799 754 l 400 754 q 365 742 378 754 q 351 706 351 729 l 351 267 q 365 231 351 244 q 400 218 378 218 l 775 218 m 535 1074 l 296 1074 l 296 1289 l 535 1289 l 535 1074 m 879 1074 l 640 1074 l 640 1289 l 879 1289 l 879 1074 z "},"Ò":{"ha":1176,"x_min":90,"x_max":1086,"o":"m 322 -14 q 153 49 217 -14 q 90 218 90 113 l 90 754 q 153 924 90 861 q 322 986 217 986 l 854 986 q 1024 924 961 986 q 1086 754 1086 861 l 1086 218 q 1024 49 1086 113 q 854 -14 961 -14 l 322 -14 m 775 218 q 811 231 799 218 q 824 267 824 244 l 824 706 q 811 742 824 729 q 775 754 799 754 l 400 754 q 365 742 378 754 q 351 706 351 729 l 351 267 q 365 231 351 244 q 400 218 378 218 l 775 218 m 740 1069 l 497 1069 l 324 1296 l 629 1296 l 740 1069 z "},"Ő":{"ha":1176,"x_min":90,"x_max":1086,"o":"m 322 -14 q 153 49 217 -14 q 90 218 90 113 l 90 754 q 153 924 90 861 q 322 986 217 986 l 854 986 q 1024 924 961 986 q 1086 754 1086 861 l 1086 218 q 1024 49 1086 113 q 854 -14 961 -14 l 322 -14 m 775 218 q 811 231 799 218 q 824 267 824 244 l 824 706 q 811 742 824 729 q 775 754 799 754 l 400 754 q 365 742 378 754 q 351 706 351 729 l 351 267 q 365 231 351 244 q 400 218 378 218 l 775 218 m 506 1069 l 304 1069 l 415 1296 l 663 1296 l 506 1069 m 829 1069 l 628 1069 l 739 1296 l 988 1296 l 829 1069 z "},"Ō":{"ha":1176,"x_min":90,"x_max":1086,"o":"m 322 -14 q 153 49 217 -14 q 90 218 90 113 l 90 754 q 153 924 90 861 q 322 986 217 986 l 854 986 q 1024 924 961 986 q 1086 754 1086 861 l 1086 218 q 1024 49 1086 113 q 854 -14 961 -14 l 322 -14 m 775 218 q 811 231 799 218 q 824 267 824 244 l 824 706 q 811 742 824 729 q 775 754 799 754 l 400 754 q 365 742 378 754 q 351 706 351 729 l 351 267 q 365 231 351 244 q 400 218 378 218 l 775 218 m 851 1093 l 324 1093 l 324 1274 l 851 1274 l 851 1093 z "},"Ø":{"ha":1176,"x_min":90,"x_max":1086,"o":"m 854 986 q 1024 924 961 986 q 1086 754 1086 861 l 1086 218 q 1024 49 1086 113 q 854 -14 961 -14 l 322 -14 q 153 49 217 -14 q 90 218 90 113 l 90 754 q 153 924 90 861 q 322 986 217 986 l 854 986 m 400 754 q 365 742 378 754 q 351 706 351 729 l 351 271 l 729 754 l 400 754 m 775 218 q 811 231 799 218 q 824 267 824 244 l 824 703 l 444 218 l 775 218 z "},"Ǿ":{"ha":1176,"x_min":90,"x_max":1086,"o":"m 854 986 q 1024 924 961 986 q 1086 754 1086 861 l 1086 218 q 1024 49 1086 113 q 854 -14 961 -14 l 322 -14 q 153 49 217 -14 q 90 218 90 113 l 90 754 q 153 924 90 861 q 322 986 217 986 l 854 986 m 400 754 q 365 742 378 754 q 351 706 351 729 l 351 271 l 729 754 l 400 754 m 775 218 q 811 231 799 218 q 824 267 824 244 l 824 703 l 444 218 l 775 218 m 678 1069 l 435 1069 l 546 1296 l 851 1296 l 678 1069 z "},"Õ":{"ha":1176,"x_min":90,"x_max":1086,"o":"m 322 -14 q 153 49 217 -14 q 90 218 90 113 l 90 754 q 153 924 90 861 q 322 986 217 986 l 854 986 q 1024 924 961 986 q 1086 754 1086 861 l 1086 218 q 1024 49 1086 113 q 854 -14 961 -14 l 322 -14 m 775 218 q 811 231 799 218 q 824 267 824 244 l 824 706 q 811 742 824 729 q 775 754 799 754 l 400 754 q 365 742 378 754 q 351 706 351 729 l 351 267 q 365 231 351 244 q 400 218 378 218 l 775 218 m 736 1063 q 656 1074 692 1063 q 576 1104 621 1085 q 510 1126 529 1126 q 493 1110 493 1126 l 493 1069 l 329 1069 l 329 1201 q 358 1274 329 1247 q 440 1301 386 1301 q 520 1290 485 1301 q 600 1260 556 1279 q 667 1238 647 1238 q 683 1254 683 1238 l 683 1294 l 847 1294 l 847 1161 q 819 1090 847 1117 q 736 1063 790 1063 z "},"Œ":{"ha":1635,"x_min":90,"x_max":1572,"o":"m 322 0 q 153 63 217 0 q 90 232 90 126 l 90 740 q 153 910 90 847 q 322 972 217 972 l 1572 972 l 1572 829 l 1489 746 l 1003 746 l 1003 597 l 1414 597 l 1414 379 l 1003 379 l 1003 226 l 1572 226 l 1572 0 l 322 0 m 740 226 l 740 746 l 400 746 q 365 733 378 746 q 351 697 351 721 l 351 275 q 365 240 351 253 q 400 226 378 226 l 740 226 z "},"Ṕ":{"ha":1132,"x_min":107,"x_max":1056,"o":"m 107 0 l 107 972 l 824 972 q 993 910 931 972 q 1056 740 1056 847 l 1056 510 q 993 341 1056 404 q 824 278 931 278 l 368 278 l 368 0 l 107 0 m 746 504 q 782 517 769 504 q 794 553 794 531 l 794 697 q 782 733 794 721 q 746 746 769 746 l 368 746 l 368 504 l 746 504 m 668 1069 l 425 1069 l 536 1296 l 842 1296 l 668 1069 z "},"Þ":{"ha":1204,"x_min":107,"x_max":1128,"o":"m 107 0 l 107 972 l 368 972 l 368 788 l 896 788 q 1065 725 1003 788 q 1128 556 1128 663 l 1128 407 q 1065 239 1128 301 q 896 176 1001 176 l 368 176 l 368 0 l 107 0 m 817 393 q 853 406 840 393 q 865 442 865 419 l 865 521 q 853 557 865 544 q 817 569 840 569 l 368 569 l 368 393 l 817 393 z "},"Ŕ":{"ha":1157,"x_min":107,"x_max":1086,"o":"m 1086 128 l 1086 0 l 847 0 l 579 333 l 368 333 l 368 0 l 107 0 l 107 972 l 833 972 q 1003 910 940 972 q 1065 740 1065 847 l 1065 565 q 1015 421 1065 475 q 890 344 965 367 l 1086 128 m 368 560 l 754 560 q 790 573 778 560 q 803 608 803 586 l 803 697 q 790 733 803 721 q 754 746 778 746 l 368 746 l 368 560 m 669 1069 l 426 1069 l 538 1296 l 843 1296 l 669 1069 z "},"Ř":{"ha":1157,"x_min":107,"x_max":1086,"o":"m 1086 128 l 1086 0 l 847 0 l 579 333 l 368 333 l 368 0 l 107 0 l 107 972 l 833 972 q 1003 910 940 972 q 1065 740 1065 847 l 1065 565 q 1015 421 1065 475 q 890 344 965 367 l 1086 128 m 368 560 l 754 560 q 790 573 778 560 q 803 608 803 586 l 803 697 q 790 733 803 721 q 754 746 778 746 l 368 746 l 368 560 m 715 1069 l 443 1069 l 274 1296 l 507 1296 l 575 1201 l 583 1201 l 651 1296 l 885 1296 l 715 1069 z "},"Ŗ":{"ha":1157,"x_min":107,"x_max":1086,"o":"m 1086 128 l 1086 0 l 847 0 l 579 333 l 368 333 l 368 0 l 107 0 l 107 972 l 833 972 q 1003 910 940 972 q 1065 740 1065 847 l 1065 565 q 1015 421 1065 475 q 890 344 965 367 l 1086 128 m 368 560 l 754 560 q 790 573 778 560 q 803 608 803 586 l 803 697 q 790 733 803 721 q 754 746 778 746 l 368 746 l 368 560 m 594 -399 l 464 -399 l 464 -86 l 693 -86 l 693 -243 l 594 -399 z "},"Ś":{"ha":1069,"x_min":69,"x_max":1010,"o":"m 69 0 l 69 232 l 690 232 q 726 245 714 232 q 739 281 739 258 l 739 299 q 726 331 739 317 q 694 347 714 344 l 296 403 q 69 636 69 435 l 69 740 q 133 910 69 847 q 301 972 196 972 l 982 972 l 982 824 l 899 740 l 389 740 q 353 728 367 740 q 340 692 340 715 l 340 676 q 352 644 340 657 q 385 628 364 631 l 782 572 q 1010 338 1010 540 l 1010 232 q 947 63 1010 126 q 778 0 885 0 l 69 0 m 629 1069 l 386 1069 l 497 1296 l 803 1296 l 629 1069 z "},"Š":{"ha":1069,"x_min":69,"x_max":1010,"o":"m 69 0 l 69 232 l 690 232 q 726 245 714 232 q 739 281 739 258 l 739 299 q 726 331 739 317 q 694 347 714 344 l 296 403 q 69 636 69 435 l 69 740 q 133 910 69 847 q 301 972 196 972 l 982 972 l 982 824 l 899 740 l 389 740 q 353 728 367 740 q 340 692 340 715 l 340 676 q 352 644 340 657 q 385 628 364 631 l 782 572 q 1010 338 1010 540 l 1010 232 q 947 63 1010 126 q 778 0 885 0 l 69 0 m 675 1069 l 403 1069 l 233 1296 l 467 1296 l 535 1201 l 543 1201 l 611 1296 l 844 1296 l 675 1069 z "},"Ş":{"ha":1069,"x_min":69,"x_max":1010,"o":"m 782 572 q 1010 338 1010 540 l 1010 232 q 947 63 1010 126 q 778 0 885 0 l 565 0 l 554 -49 l 615 -49 q 701 -82 668 -49 q 733 -167 733 -115 l 733 -222 q 701 -307 733 -274 q 615 -340 668 -340 l 363 -340 l 363 -219 l 546 -219 q 564 -214 557 -219 q 571 -199 571 -208 l 571 -190 q 564 -175 571 -181 q 546 -169 557 -169 l 429 -169 l 376 -121 l 404 0 l 69 0 l 69 232 l 690 232 q 726 245 714 232 q 739 281 739 258 l 739 299 q 726 331 739 317 q 694 347 714 344 l 296 403 q 69 636 69 435 l 69 740 q 133 910 69 847 q 301 972 196 972 l 982 972 l 982 824 l 899 740 l 389 740 q 353 728 367 740 q 340 692 340 715 l 340 676 q 352 644 340 657 q 385 628 364 631 l 782 572 z "},"Ŝ":{"ha":1069,"x_min":69,"x_max":1010,"o":"m 69 0 l 69 232 l 690 232 q 726 245 714 232 q 739 281 739 258 l 739 299 q 726 331 739 317 q 694 347 714 344 l 296 403 q 69 636 69 435 l 69 740 q 133 910 69 847 q 301 972 196 972 l 982 972 l 982 824 l 899 740 l 389 740 q 353 728 367 740 q 340 692 340 715 l 340 676 q 352 644 340 657 q 385 628 364 631 l 782 572 q 1010 338 1010 540 l 1010 232 q 947 63 1010 126 q 778 0 885 0 l 69 0 m 467 1069 l 233 1069 l 403 1296 l 675 1296 l 844 1069 l 611 1069 l 543 1164 l 535 1164 l 467 1069 z "},"Ș":{"ha":1069,"x_min":69,"x_max":1010,"o":"m 69 0 l 69 232 l 690 232 q 726 245 714 232 q 739 281 739 258 l 739 299 q 726 331 739 317 q 694 347 714 344 l 296 403 q 69 636 69 435 l 69 740 q 133 910 69 847 q 301 972 196 972 l 982 972 l 982 824 l 899 740 l 389 740 q 353 728 367 740 q 340 692 340 715 l 340 676 q 352 644 340 657 q 385 628 364 631 l 782 572 q 1010 338 1010 540 l 1010 232 q 947 63 1010 126 q 778 0 885 0 l 69 0 m 531 -399 l 400 -399 l 400 -86 l 629 -86 l 629 -243 l 531 -399 z "},"ẞ":{"ha":1174,"x_min":100,"x_max":1097,"o":"m 881 576 q 1038 518 978 576 q 1097 364 1097 460 l 1097 213 q 1038 59 1097 118 q 885 0 979 0 l 560 0 l 560 226 l 788 226 q 824 240 811 226 q 836 275 836 253 l 836 340 q 824 376 836 364 q 788 389 811 389 l 542 389 l 542 563 l 740 733 l 740 746 l 410 746 q 374 733 388 746 q 361 697 361 721 l 361 0 l 100 0 l 100 760 q 158 913 100 854 q 313 972 217 972 l 1056 972 l 1056 757 l 858 588 l 858 576 l 881 576 z "},"Ŧ":{"ha":1035,"x_min":28,"x_max":1007,"o":"m 28 736 l 28 972 l 1007 972 l 1007 819 l 924 736 l 649 736 l 649 553 l 890 553 l 890 365 l 649 365 l 649 0 l 386 0 l 386 365 l 143 365 l 143 553 l 386 553 l 386 736 l 28 736 z "},"Ť":{"ha":1035,"x_min":28,"x_max":1007,"o":"m 649 0 l 386 0 l 386 736 l 28 736 l 28 972 l 1007 972 l 1007 819 l 924 736 l 649 736 l 649 0 m 654 1069 l 382 1069 l 213 1296 l 446 1296 l 514 1201 l 522 1201 l 590 1296 l 824 1296 l 654 1069 z "},"Ţ":{"ha":1035,"x_min":28,"x_max":1007,"o":"m 28 972 l 1007 972 l 1007 819 l 924 736 l 649 736 l 649 0 l 568 0 l 557 -49 l 618 -49 q 703 -82 671 -49 q 736 -167 736 -115 l 736 -222 q 703 -307 736 -274 q 618 -340 671 -340 l 365 -340 l 365 -219 l 549 -219 q 567 -214 560 -219 q 574 -199 574 -208 l 574 -190 q 567 -175 574 -181 q 549 -169 560 -169 l 432 -169 l 379 -121 l 407 0 l 386 0 l 386 736 l 28 736 l 28 972 z "},"Ț":{"ha":1035,"x_min":28,"x_max":1007,"o":"m 649 0 l 386 0 l 386 736 l 28 736 l 28 972 l 1007 972 l 1007 819 l 924 736 l 649 736 l 649 0 m 533 -399 l 403 -399 l 403 -86 l 632 -86 l 632 -243 l 533 -399 z "},"Ú":{"ha":1190,"x_min":100,"x_max":1090,"o":"m 331 -14 q 163 49 225 -14 q 100 218 100 113 l 100 972 l 361 972 l 361 267 q 374 231 361 244 q 410 218 388 218 l 781 218 q 817 231 804 218 q 829 267 829 244 l 829 972 l 1090 972 l 1090 218 q 1028 49 1090 113 q 858 -14 965 -14 l 331 -14 m 685 1069 l 442 1069 l 553 1296 l 858 1296 l 685 1069 z "},"Ʉ":{"ha":1218,"x_min":3,"x_max":1215,"o":"m 1215 650 l 1215 463 l 1104 463 l 1104 218 q 1042 49 1104 113 q 872 -14 979 -14 l 344 -14 q 176 49 239 -14 q 114 218 114 113 l 114 463 l 3 463 l 3 650 l 114 650 l 114 972 l 375 972 l 375 650 l 843 650 l 843 972 l 1104 972 l 1104 650 l 1215 650 m 843 463 l 375 463 l 375 267 q 388 231 375 244 q 424 218 401 218 l 794 218 q 831 231 818 218 q 843 267 843 244 l 843 463 z "},"Ŭ":{"ha":1190,"x_min":100,"x_max":1090,"o":"m 331 -14 q 163 49 225 -14 q 100 218 100 113 l 100 972 l 361 972 l 361 267 q 374 231 361 244 q 410 218 388 218 l 781 218 q 817 231 804 218 q 829 267 829 244 l 829 972 l 1090 972 l 1090 218 q 1028 49 1090 113 q 858 -14 965 -14 l 331 -14 m 418 1069 q 336 1103 369 1069 q 303 1185 303 1138 l 303 1296 l 511 1296 l 511 1250 q 542 1219 511 1219 l 647 1219 q 678 1250 678 1219 l 678 1296 l 886 1296 l 886 1185 q 852 1103 886 1138 q 771 1069 818 1069 l 418 1069 z "},"Û":{"ha":1190,"x_min":100,"x_max":1090,"o":"m 331 -14 q 163 49 225 -14 q 100 218 100 113 l 100 972 l 361 972 l 361 267 q 374 231 361 244 q 410 218 388 218 l 781 218 q 817 231 804 218 q 829 267 829 244 l 829 972 l 1090 972 l 1090 218 q 1028 49 1090 113 q 858 -14 965 -14 l 331 -14 m 522 1069 l 289 1069 l 458 1296 l 731 1296 l 900 1069 l 667 1069 l 599 1164 l 590 1164 l 522 1069 z "},"Ü":{"ha":1190,"x_min":100,"x_max":1090,"o":"m 331 -14 q 163 49 225 -14 q 100 218 100 113 l 100 972 l 361 972 l 361 267 q 374 231 361 244 q 410 218 388 218 l 781 218 q 817 231 804 218 q 829 267 829 244 l 829 972 l 1090 972 l 1090 218 q 1028 49 1090 113 q 858 -14 965 -14 l 331 -14 m 542 1074 l 303 1074 l 303 1289 l 542 1289 l 542 1074 m 886 1074 l 647 1074 l 647 1289 l 886 1289 l 886 1074 z "},"Ù":{"ha":1190,"x_min":100,"x_max":1090,"o":"m 331 -14 q 163 49 225 -14 q 100 218 100 113 l 100 972 l 361 972 l 361 267 q 374 231 361 244 q 410 218 388 218 l 781 218 q 817 231 804 218 q 829 267 829 244 l 829 972 l 1090 972 l 1090 218 q 1028 49 1090 113 q 858 -14 965 -14 l 331 -14 m 747 1069 l 504 1069 l 331 1296 l 636 1296 l 747 1069 z "},"Ű":{"ha":1190,"x_min":100,"x_max":1090,"o":"m 331 -14 q 163 49 225 -14 q 100 218 100 113 l 100 972 l 361 972 l 361 267 q 374 231 361 244 q 410 218 388 218 l 781 218 q 817 231 804 218 q 829 267 829 244 l 829 972 l 1090 972 l 1090 218 q 1028 49 1090 113 q 858 -14 965 -14 l 331 -14 m 513 1069 l 311 1069 l 422 1296 l 669 1296 l 513 1069 m 836 1069 l 635 1069 l 746 1296 l 994 1296 l 836 1069 z "},"Ū":{"ha":1190,"x_min":100,"x_max":1090,"o":"m 331 -14 q 163 49 225 -14 q 100 218 100 113 l 100 972 l 361 972 l 361 267 q 374 231 361 244 q 410 218 388 218 l 781 218 q 817 231 804 218 q 829 267 829 244 l 829 972 l 1090 972 l 1090 218 q 1028 49 1090 113 q 858 -14 965 -14 l 331 -14 m 858 1093 l 331 1093 l 331 1274 l 858 1274 l 858 1093 z "},"Ų":{"ha":1190,"x_min":100,"x_max":1090,"o":"m 829 972 l 1090 972 l 1090 218 q 1051 85 1090 132 q 924 -7 1011 38 q 769 -149 769 -85 q 780 -175 769 -165 q 808 -185 790 -185 l 922 -185 l 922 -326 l 754 -326 q 635 -290 675 -326 q 594 -190 594 -254 q 725 -14 594 -96 l 331 -14 q 163 49 225 -14 q 100 218 100 113 l 100 972 l 361 972 l 361 267 q 374 231 361 244 q 410 218 388 218 l 781 218 q 817 231 804 218 q 829 267 829 244 l 829 972 z "},"Ů":{"ha":1190,"x_min":100,"x_max":1090,"o":"m 331 -14 q 163 49 225 -14 q 100 218 100 113 l 100 972 l 361 972 l 361 267 q 374 231 361 244 q 410 218 388 218 l 781 218 q 817 231 804 218 q 829 267 829 244 l 829 972 l 1090 972 l 1090 218 q 1028 49 1090 113 q 858 -14 965 -14 l 331 -14 m 528 1028 q 437 1067 475 1028 q 399 1157 399 1106 l 399 1215 q 437 1306 399 1268 q 528 1344 475 1344 l 663 1344 q 753 1306 714 1344 q 792 1215 792 1268 l 792 1157 q 753 1067 792 1106 q 663 1028 714 1028 l 528 1028 m 618 1149 q 637 1156 629 1149 q 644 1174 644 1163 l 644 1199 q 637 1217 644 1210 q 618 1225 629 1225 l 572 1225 q 554 1217 561 1225 q 547 1199 547 1210 l 547 1174 q 554 1156 547 1164 q 572 1149 561 1149 l 618 1149 z "},"Ũ":{"ha":1190,"x_min":100,"x_max":1090,"o":"m 331 -14 q 163 49 225 -14 q 100 218 100 113 l 100 972 l 361 972 l 361 267 q 374 231 361 244 q 410 218 388 218 l 781 218 q 817 231 804 218 q 829 267 829 244 l 829 972 l 1090 972 l 1090 218 q 1028 49 1090 113 q 858 -14 965 -14 l 331 -14 m 743 1063 q 663 1074 699 1063 q 583 1104 628 1085 q 517 1126 536 1126 q 500 1110 500 1126 l 500 1069 l 336 1069 l 336 1201 q 365 1274 336 1247 q 447 1301 393 1301 q 527 1290 492 1301 q 607 1260 563 1279 q 674 1238 654 1238 q 690 1254 690 1238 l 690 1294 l 854 1294 l 854 1161 q 826 1090 854 1117 q 743 1063 797 1063 z "},"Ǔ":{"ha":1190,"x_min":100,"x_max":1090,"o":"m 331 -14 q 163 49 225 -14 q 100 218 100 113 l 100 972 l 361 972 l 361 267 q 374 231 361 244 q 410 218 388 218 l 781 218 q 817 231 804 218 q 829 267 829 244 l 829 972 l 1090 972 l 1090 218 q 1028 49 1090 113 q 858 -14 965 -14 l 331 -14 m 731 1069 l 458 1069 l 289 1296 l 522 1296 l 590 1201 l 599 1201 l 667 1296 l 900 1296 l 731 1069 z "},"Ẃ":{"ha":1544,"x_min":38,"x_max":1507,"o":"m 576 0 l 260 0 l 38 844 l 38 972 l 324 972 l 424 329 l 435 329 l 628 972 l 917 972 l 1108 329 l 1121 329 l 1219 972 l 1507 972 l 1507 844 l 1285 0 l 968 0 l 778 625 l 767 625 l 576 0 m 863 1069 l 619 1069 l 731 1296 l 1036 1296 l 863 1069 z "},"Ŵ":{"ha":1544,"x_min":38,"x_max":1507,"o":"m 576 0 l 260 0 l 38 844 l 38 972 l 324 972 l 424 329 l 435 329 l 628 972 l 917 972 l 1108 329 l 1121 329 l 1219 972 l 1507 972 l 1507 844 l 1285 0 l 968 0 l 778 625 l 767 625 l 576 0 m 700 1069 l 467 1069 l 636 1296 l 908 1296 l 1078 1069 l 844 1069 l 776 1164 l 768 1164 l 700 1069 z "},"Ẅ":{"ha":1544,"x_min":38,"x_max":1507,"o":"m 576 0 l 260 0 l 38 844 l 38 972 l 324 972 l 424 329 l 435 329 l 628 972 l 917 972 l 1108 329 l 1121 329 l 1219 972 l 1507 972 l 1507 844 l 1285 0 l 968 0 l 778 625 l 767 625 l 576 0 m 719 1074 l 481 1074 l 481 1289 l 719 1289 l 719 1074 m 1064 1074 l 825 1074 l 825 1289 l 1064 1289 l 1064 1074 z "},"Ẁ":{"ha":1544,"x_min":38,"x_max":1507,"o":"m 576 0 l 260 0 l 38 844 l 38 972 l 324 972 l 424 329 l 435 329 l 628 972 l 917 972 l 1108 329 l 1121 329 l 1219 972 l 1507 972 l 1507 844 l 1285 0 l 968 0 l 778 625 l 767 625 l 576 0 m 925 1069 l 682 1069 l 508 1296 l 814 1296 l 925 1069 z "},"Ẍ":{"ha":1097,"x_min":44,"x_max":1053,"o":"m 292 0 l 44 0 l 44 128 l 343 482 l 67 844 l 67 972 l 315 972 l 542 650 l 556 650 l 782 972 l 1031 972 l 1031 844 l 754 493 l 1053 128 l 1053 0 l 806 0 l 556 324 l 542 324 l 292 0 m 496 1074 l 257 1074 l 257 1289 l 496 1289 l 496 1074 m 840 1074 l 601 1074 l 601 1289 l 840 1289 l 840 1074 z "},"Ý":{"ha":1053,"x_min":31,"x_max":1024,"o":"m 657 0 l 396 0 l 396 292 l 31 844 l 31 972 l 281 972 l 524 563 l 539 563 l 774 972 l 1024 972 l 1024 844 l 657 292 l 657 0 m 617 1069 l 374 1069 l 485 1296 l 790 1296 l 617 1069 z "},"Ŷ":{"ha":1053,"x_min":31,"x_max":1024,"o":"m 657 0 l 396 0 l 396 292 l 31 844 l 31 972 l 281 972 l 524 563 l 539 563 l 774 972 l 1024 972 l 1024 844 l 657 292 l 657 0 m 454 1069 l 221 1069 l 390 1296 l 663 1296 l 832 1069 l 599 1069 l 531 1164 l 522 1164 l 454 1069 z "},"Ÿ":{"ha":1053,"x_min":31,"x_max":1024,"o":"m 657 0 l 396 0 l 396 292 l 31 844 l 31 972 l 281 972 l 524 563 l 539 563 l 774 972 l 1024 972 l 1024 844 l 657 292 l 657 0 m 474 1074 l 235 1074 l 235 1289 l 474 1289 l 474 1074 m 818 1074 l 579 1074 l 579 1289 l 818 1289 l 818 1074 z "},"Ỳ":{"ha":1053,"x_min":31,"x_max":1024,"o":"m 657 0 l 396 0 l 396 292 l 31 844 l 31 972 l 281 972 l 524 563 l 539 563 l 774 972 l 1024 972 l 1024 844 l 657 292 l 657 0 m 679 1069 l 436 1069 l 263 1296 l 568 1296 l 679 1069 z "},"Ȳ":{"ha":1053,"x_min":31,"x_max":1024,"o":"m 657 0 l 396 0 l 396 292 l 31 844 l 31 972 l 281 972 l 524 563 l 539 563 l 774 972 l 1024 972 l 1024 844 l 657 292 l 657 0 m 790 1093 l 263 1093 l 263 1274 l 790 1274 l 790 1093 z "},"Ỹ":{"ha":1053,"x_min":31,"x_max":1024,"o":"m 657 0 l 396 0 l 396 292 l 31 844 l 31 972 l 281 972 l 524 563 l 539 563 l 774 972 l 1024 972 l 1024 844 l 657 292 l 657 0 m 675 1063 q 595 1074 631 1063 q 515 1104 560 1085 q 449 1126 468 1126 q 432 1110 432 1126 l 432 1069 l 268 1069 l 268 1201 q 297 1274 268 1247 q 379 1301 325 1301 q 459 1290 424 1301 q 539 1260 494 1279 q 606 1238 586 1238 q 622 1254 622 1238 l 622 1294 l 786 1294 l 786 1161 q 758 1090 786 1117 q 675 1063 729 1063 z "},"Ź":{"ha":1039,"x_min":56,"x_max":983,"o":"m 983 0 l 56 0 l 56 225 l 588 725 l 588 736 l 153 736 l 69 819 l 69 972 l 983 972 l 983 747 l 451 247 l 451 236 l 983 236 l 983 0 m 617 1069 l 374 1069 l 485 1296 l 790 1296 l 617 1069 z "},"Ž":{"ha":1039,"x_min":56,"x_max":983,"o":"m 983 0 l 56 0 l 56 225 l 588 725 l 588 736 l 153 736 l 69 819 l 69 972 l 983 972 l 983 747 l 451 247 l 451 236 l 983 236 l 983 0 m 663 1069 l 390 1069 l 221 1296 l 454 1296 l 522 1201 l 531 1201 l 599 1296 l 832 1296 l 663 1069 z "},"Ż":{"ha":1039,"x_min":56,"x_max":983,"o":"m 983 0 l 56 0 l 56 225 l 588 725 l 588 736 l 153 736 l 69 819 l 69 972 l 983 972 l 983 747 l 451 247 l 451 236 l 983 236 l 983 0 m 650 1074 l 403 1074 l 403 1289 l 650 1289 l 650 1074 z "},"á":{"ha":886,"x_min":56,"x_max":799,"o":"m 250 -14 q 111 42 167 -14 q 56 181 56 97 l 56 243 q 111 382 56 326 q 250 438 167 438 l 551 438 l 551 483 q 540 517 551 506 q 507 528 528 528 l 121 528 l 121 715 l 604 715 q 743 660 688 715 q 799 521 799 604 l 799 0 l 621 0 l 583 86 l 576 86 q 516 17 560 47 q 414 -14 472 -14 l 250 -14 m 483 174 q 533 192 515 174 q 551 240 551 210 l 551 282 l 343 282 q 303 243 303 282 l 303 213 q 343 174 303 174 l 483 174 m 544 819 l 301 819 l 413 1046 l 718 1046 l 544 819 z "},"ă":{"ha":886,"x_min":56,"x_max":799,"o":"m 250 -14 q 111 42 167 -14 q 56 181 56 97 l 56 243 q 111 382 56 326 q 250 438 167 438 l 551 438 l 551 483 q 540 517 551 506 q 507 528 528 528 l 121 528 l 121 715 l 604 715 q 743 660 688 715 q 799 521 799 604 l 799 0 l 621 0 l 583 86 l 576 86 q 516 17 560 47 q 414 -14 472 -14 l 250 -14 m 483 174 q 533 192 515 174 q 551 240 551 210 l 551 282 l 343 282 q 303 243 303 282 l 303 213 q 343 174 303 174 l 483 174 m 271 819 q 189 853 222 819 q 156 935 156 888 l 156 1046 l 364 1046 l 364 1000 q 394 969 364 969 l 500 969 q 531 1000 531 969 l 531 1046 l 739 1046 l 739 935 q 705 853 739 888 q 624 819 671 819 l 271 819 z "},"â":{"ha":886,"x_min":56,"x_max":799,"o":"m 250 -14 q 111 42 167 -14 q 56 181 56 97 l 56 243 q 111 382 56 326 q 250 438 167 438 l 551 438 l 551 483 q 540 517 551 506 q 507 528 528 528 l 121 528 l 121 715 l 604 715 q 743 660 688 715 q 799 521 799 604 l 799 0 l 621 0 l 583 86 l 576 86 q 516 17 560 47 q 414 -14 472 -14 l 250 -14 m 483 174 q 533 192 515 174 q 551 240 551 210 l 551 282 l 343 282 q 303 243 303 282 l 303 213 q 343 174 303 174 l 483 174 m 375 819 l 142 819 l 311 1046 l 583 1046 l 753 819 l 519 819 l 451 914 l 443 914 l 375 819 z "},"ä":{"ha":886,"x_min":56,"x_max":799,"o":"m 250 -14 q 111 42 167 -14 q 56 181 56 97 l 56 243 q 111 382 56 326 q 250 438 167 438 l 551 438 l 551 483 q 540 517 551 506 q 507 528 528 528 l 121 528 l 121 715 l 604 715 q 743 660 688 715 q 799 521 799 604 l 799 0 l 621 0 l 583 86 l 576 86 q 516 17 560 47 q 414 -14 472 -14 l 250 -14 m 483 174 q 533 192 515 174 q 551 240 551 210 l 551 282 l 343 282 q 303 243 303 282 l 303 213 q 343 174 303 174 l 483 174 m 394 824 l 156 824 l 156 1039 l 394 1039 l 394 824 m 739 824 l 500 824 l 500 1039 l 739 1039 l 739 824 z "},"à":{"ha":886,"x_min":56,"x_max":799,"o":"m 250 -14 q 111 42 167 -14 q 56 181 56 97 l 56 243 q 111 382 56 326 q 250 438 167 438 l 551 438 l 551 483 q 540 517 551 506 q 507 528 528 528 l 121 528 l 121 715 l 604 715 q 743 660 688 715 q 799 521 799 604 l 799 0 l 621 0 l 583 86 l 576 86 q 516 17 560 47 q 414 -14 472 -14 l 250 -14 m 483 174 q 533 192 515 174 q 551 240 551 210 l 551 282 l 343 282 q 303 243 303 282 l 303 213 q 343 174 303 174 l 483 174 m 592 819 l 349 819 l 175 1046 l 481 1046 l 592 819 z "},"ā":{"ha":886,"x_min":56,"x_max":799,"o":"m 250 -14 q 111 42 167 -14 q 56 181 56 97 l 56 243 q 111 382 56 326 q 250 438 167 438 l 551 438 l 551 483 q 540 517 551 506 q 507 528 528 528 l 121 528 l 121 715 l 604 715 q 743 660 688 715 q 799 521 799 604 l 799 0 l 621 0 l 583 86 l 576 86 q 516 17 560 47 q 414 -14 472 -14 l 250 -14 m 483 174 q 533 192 515 174 q 551 240 551 210 l 551 282 l 343 282 q 303 243 303 282 l 303 213 q 343 174 303 174 l 483 174 m 711 843 l 183 843 l 183 1024 l 711 1024 l 711 843 z "},"ą":{"ha":886,"x_min":56,"x_max":799,"o":"m 799 0 q 685 -81 724 -44 q 646 -149 646 -117 q 683 -185 646 -185 l 799 -185 l 799 -326 l 629 -326 q 510 -290 550 -326 q 469 -190 469 -254 q 515 -85 469 -135 q 626 0 561 -36 l 621 0 l 583 86 l 576 86 q 516 17 560 47 q 414 -14 472 -14 l 250 -14 q 111 42 167 -14 q 56 181 56 97 l 56 243 q 111 382 56 326 q 250 438 167 438 l 551 438 l 551 483 q 540 517 551 506 q 507 528 528 528 l 121 528 l 121 715 l 604 715 q 743 660 688 715 q 799 521 799 604 l 799 0 m 551 282 l 343 282 q 303 243 303 282 l 303 213 q 343 174 303 174 l 483 174 q 533 192 515 174 q 551 240 551 210 l 551 282 z "},"ǎ":{"ha":886,"x_min":56,"x_max":799,"o":"m 250 -14 q 111 42 167 -14 q 56 181 56 97 l 56 243 q 111 382 56 326 q 250 438 167 438 l 551 438 l 551 483 q 540 517 551 506 q 507 528 528 528 l 121 528 l 121 715 l 604 715 q 743 660 688 715 q 799 521 799 604 l 799 0 l 621 0 l 583 86 l 576 86 q 516 17 560 47 q 414 -14 472 -14 l 250 -14 m 483 174 q 533 192 515 174 q 551 240 551 210 l 551 282 l 343 282 q 303 243 303 282 l 303 213 q 343 174 303 174 l 483 174 m 583 819 l 311 819 l 142 1046 l 375 1046 l 443 951 l 451 951 l 519 1046 l 753 1046 l 583 819 z "},"ã":{"ha":886,"x_min":56,"x_max":799,"o":"m 250 -14 q 111 42 167 -14 q 56 181 56 97 l 56 243 q 111 382 56 326 q 250 438 167 438 l 551 438 l 551 483 q 540 517 551 506 q 507 528 528 528 l 121 528 l 121 715 l 604 715 q 743 660 688 715 q 799 521 799 604 l 799 0 l 621 0 l 583 86 l 576 86 q 516 17 560 47 q 414 -14 472 -14 l 250 -14 m 483 174 q 533 192 515 174 q 551 240 551 210 l 551 282 l 343 282 q 303 243 303 282 l 303 213 q 343 174 303 174 l 483 174 m 594 813 q 515 824 550 813 q 435 854 479 835 q 368 876 388 876 q 351 860 351 876 l 351 819 l 188 819 l 188 951 q 216 1024 188 997 q 299 1051 244 1051 q 378 1040 343 1051 q 458 1010 414 1029 q 525 988 506 988 q 542 1004 542 988 l 542 1044 l 706 1044 l 706 911 q 677 840 706 867 q 594 813 649 813 z "},"å":{"ha":886,"x_min":56,"x_max":799,"o":"m 250 -14 q 111 42 167 -14 q 56 181 56 97 l 56 243 q 111 382 56 326 q 250 438 167 438 l 551 438 l 551 483 q 540 517 551 506 q 507 528 528 528 l 121 528 l 121 715 l 604 715 q 743 660 688 715 q 799 521 799 604 l 799 0 l 621 0 l 583 86 l 576 86 q 516 17 560 47 q 414 -14 472 -14 l 250 -14 m 483 174 q 533 192 515 174 q 551 240 551 210 l 551 282 l 343 282 q 303 243 303 282 l 303 213 q 343 174 303 174 l 483 174 m 379 778 q 288 817 326 778 q 250 907 250 856 l 250 965 q 288 1056 250 1018 q 379 1094 326 1094 l 514 1094 q 604 1056 565 1094 q 643 965 643 1018 l 643 907 q 604 817 643 856 q 514 778 565 778 l 379 778 m 469 899 q 488 906 481 899 q 496 924 496 913 l 496 949 q 488 967 496 960 q 469 975 481 975 l 424 975 q 406 967 413 975 q 399 949 399 960 l 399 924 q 406 906 399 914 q 424 899 413 899 l 469 899 z "},"ǻ":{"ha":886,"x_min":56,"x_max":799,"o":"m 250 -14 q 111 42 167 -14 q 56 181 56 97 l 56 243 q 111 382 56 326 q 250 438 167 438 l 551 438 l 551 483 q 540 517 551 506 q 507 528 528 528 l 121 528 l 121 715 l 604 715 q 743 660 688 715 q 799 521 799 604 l 799 0 l 621 0 l 583 86 l 576 86 q 516 17 560 47 q 414 -14 472 -14 l 250 -14 m 483 174 q 533 192 515 174 q 551 240 551 210 l 551 282 l 343 282 q 303 243 303 282 l 303 213 q 343 174 303 174 l 483 174 m 554 1088 q 618 1040 593 1074 q 643 965 643 1007 l 643 907 q 604 817 643 856 q 514 778 565 778 l 379 778 q 288 817 326 778 q 250 907 250 856 l 250 965 q 276 1041 250 1007 q 340 1088 301 1075 l 408 1229 l 682 1229 l 554 1088 m 496 949 q 488 967 496 960 q 469 975 481 975 l 424 975 q 406 967 413 975 q 399 949 399 960 l 399 924 q 406 906 399 914 q 424 899 413 899 l 469 899 q 488 906 481 899 q 496 924 496 913 l 496 949 z "},"æ":{"ha":1343,"x_min":56,"x_max":1268,"o":"m 250 -14 q 111 42 167 -14 q 56 181 56 97 l 56 243 q 111 383 56 326 q 250 440 167 440 l 524 440 l 524 483 q 512 517 524 506 q 479 528 500 528 l 121 528 l 121 715 l 528 715 q 597 699 567 715 q 647 660 628 682 l 658 660 q 712 708 675 686 q 796 729 749 729 l 1074 729 q 1213 674 1157 729 q 1268 535 1268 618 l 1268 282 l 771 282 l 771 232 q 815 188 771 188 l 1236 188 l 1236 0 l 781 0 q 708 18 742 0 q 658 58 674 36 l 647 58 q 593 8 629 31 q 510 -14 557 -14 l 250 -14 m 771 440 l 1021 440 l 1021 497 q 976 542 1021 542 l 815 542 q 771 497 771 542 l 771 440 m 456 174 q 506 192 488 174 q 524 240 524 210 l 524 282 l 343 282 q 303 243 303 282 l 303 213 q 343 174 303 174 l 456 174 z "},"ǽ":{"ha":1343,"x_min":56,"x_max":1268,"o":"m 250 -14 q 111 42 167 -14 q 56 181 56 97 l 56 243 q 111 383 56 326 q 250 440 167 440 l 524 440 l 524 483 q 512 517 524 506 q 479 528 500 528 l 121 528 l 121 715 l 528 715 q 597 699 567 715 q 647 660 628 682 l 658 660 q 712 708 675 686 q 796 729 749 729 l 1074 729 q 1213 674 1157 729 q 1268 535 1268 618 l 1268 282 l 771 282 l 771 232 q 815 188 771 188 l 1236 188 l 1236 0 l 781 0 q 708 18 742 0 q 658 58 674 36 l 647 58 q 593 8 629 31 q 510 -14 557 -14 l 250 -14 m 771 440 l 1021 440 l 1021 497 q 976 542 1021 542 l 815 542 q 771 497 771 542 l 771 440 m 456 174 q 506 192 488 174 q 524 240 524 210 l 524 282 l 343 282 q 303 243 303 282 l 303 213 q 343 174 303 174 l 456 174 m 771 819 l 528 819 l 639 1046 l 944 1046 l 771 819 z "},"ć":{"ha":817,"x_min":74,"x_max":761,"o":"m 268 0 q 129 56 185 0 q 74 194 74 111 l 74 521 q 129 660 74 604 q 268 715 185 715 l 761 715 l 761 576 l 690 500 l 365 500 q 322 456 322 500 l 322 260 q 365 215 322 215 l 761 215 l 761 0 l 268 0 m 538 819 l 294 819 l 406 1046 l 711 1046 l 538 819 z "},"č":{"ha":817,"x_min":74,"x_max":761,"o":"m 268 0 q 129 56 185 0 q 74 194 74 111 l 74 521 q 129 660 74 604 q 268 715 185 715 l 761 715 l 761 576 l 690 500 l 365 500 q 322 456 322 500 l 322 260 q 365 215 322 215 l 761 215 l 761 0 l 268 0 m 576 819 l 304 819 l 135 1046 l 368 1046 l 436 951 l 444 951 l 513 1046 l 746 1046 l 576 819 z "},"ç":{"ha":817,"x_min":74,"x_max":761,"o":"m 365 500 q 322 456 322 500 l 322 260 q 365 215 322 215 l 761 215 l 761 0 l 504 0 l 493 -49 l 554 -49 q 640 -82 607 -49 q 672 -167 672 -115 l 672 -222 q 640 -307 672 -274 q 554 -340 607 -340 l 301 -340 l 301 -219 l 485 -219 q 503 -214 496 -219 q 510 -199 510 -208 l 510 -190 q 503 -175 510 -181 q 485 -169 496 -169 l 368 -169 l 315 -121 l 343 0 l 268 0 q 129 56 185 0 q 74 194 74 111 l 74 521 q 129 660 74 604 q 268 715 185 715 l 761 715 l 761 576 l 690 500 l 365 500 z "},"ĉ":{"ha":817,"x_min":74,"x_max":761,"o":"m 268 0 q 129 56 185 0 q 74 194 74 111 l 74 521 q 129 660 74 604 q 268 715 185 715 l 761 715 l 761 576 l 690 500 l 365 500 q 322 456 322 500 l 322 260 q 365 215 322 215 l 761 215 l 761 0 l 268 0 m 368 819 l 135 819 l 304 1046 l 576 1046 l 746 819 l 513 819 l 444 914 l 436 914 l 368 819 z "},"ċ":{"ha":817,"x_min":74,"x_max":761,"o":"m 268 0 q 129 56 185 0 q 74 194 74 111 l 74 521 q 129 660 74 604 q 268 715 185 715 l 761 715 l 761 576 l 690 500 l 365 500 q 322 456 322 500 l 322 260 q 365 215 322 215 l 761 215 l 761 0 l 268 0 m 563 824 l 315 824 l 315 1039 l 563 1039 l 563 824 z "},"ð":{"ha":933,"x_min":74,"x_max":844,"o":"m 643 933 q 790 858 735 919 q 844 697 844 797 l 844 181 q 789 42 844 97 q 650 -14 733 -14 l 268 -14 q 129 42 185 -14 q 74 181 74 97 l 74 419 q 129 558 74 503 q 268 614 185 614 l 431 614 q 531 588 489 614 q 590 531 574 561 l 597 531 l 597 671 q 551 724 597 715 l 425 743 l 411 661 l 249 686 l 263 767 l 104 790 l 140 1007 l 299 983 l 313 1065 l 475 1042 l 461 960 l 643 933 m 597 350 q 580 399 597 382 q 531 417 563 417 l 365 417 q 322 372 322 417 l 322 236 q 333 203 322 215 q 365 192 344 192 l 553 192 q 586 203 575 192 q 597 236 597 215 l 597 350 z "},"ď":{"ha":951,"x_min":74,"x_max":1188,"o":"m 268 -14 q 129 42 185 -14 q 74 181 74 97 l 74 521 q 129 660 74 604 q 268 715 185 715 l 608 715 l 608 965 l 857 965 l 857 0 l 678 0 l 642 86 l 635 86 q 574 17 618 47 q 472 -14 531 -14 l 268 -14 m 542 201 q 591 219 574 201 q 608 268 608 238 l 608 500 l 365 500 q 322 456 322 500 l 322 246 q 365 201 322 201 l 542 201 m 1089 761 l 958 761 l 958 1053 l 1188 1053 l 1188 928 l 1089 761 z "},"đ":{"ha":951,"x_min":67,"x_max":968,"o":"m 968 856 l 968 658 l 850 658 l 850 0 l 671 0 l 635 86 l 628 86 q 567 17 611 47 q 465 -14 524 -14 l 261 -14 q 122 42 178 -14 q 67 181 67 97 l 67 396 q 122 535 67 479 q 261 590 178 590 l 601 590 l 601 658 l 371 658 l 371 856 l 601 856 l 601 965 l 850 965 l 850 856 l 968 856 m 601 375 l 358 375 q 315 331 315 375 l 315 246 q 358 201 315 201 l 535 201 q 584 219 567 201 q 601 268 601 238 l 601 375 z "},"ǳ":{"ha":1757,"x_min":74,"x_max":1701,"o":"m 268 -14 q 129 42 185 -14 q 74 181 74 97 l 74 521 q 129 660 74 604 q 268 715 185 715 l 608 715 l 608 965 l 857 965 l 857 0 l 678 0 l 642 86 l 635 86 q 574 17 618 47 q 472 -14 531 -14 l 268 -14 m 542 201 q 591 219 574 201 q 608 268 608 238 l 608 500 l 365 500 q 322 456 322 500 l 322 246 q 365 201 322 201 l 542 201 m 1701 0 l 1004 0 l 1004 192 l 1344 497 l 1344 510 l 1069 510 l 1007 576 l 1007 715 l 1701 715 l 1701 524 l 1361 218 l 1361 206 l 1701 206 l 1701 0 z "},"ǆ":{"ha":1757,"x_min":74,"x_max":1701,"o":"m 268 -14 q 129 42 185 -14 q 74 181 74 97 l 74 521 q 129 660 74 604 q 268 715 185 715 l 608 715 l 608 965 l 857 965 l 857 0 l 678 0 l 642 86 l 635 86 q 574 17 618 47 q 472 -14 531 -14 l 268 -14 m 542 201 q 591 219 574 201 q 608 268 608 238 l 608 500 l 365 500 q 322 456 322 500 l 322 246 q 365 201 322 201 l 542 201 z "},"é":{"ha":919,"x_min":74,"x_max":844,"o":"m 268 0 q 129 56 185 0 q 74 194 74 111 l 74 535 q 129 674 74 618 q 268 729 185 729 l 650 729 q 789 674 733 729 q 844 535 844 618 l 844 278 l 322 278 l 322 232 q 365 188 322 188 l 813 188 l 813 0 l 268 0 m 322 435 l 597 435 l 597 497 q 553 542 597 542 l 365 542 q 322 497 322 542 l 322 435 m 558 819 l 315 819 l 426 1046 l 732 1046 l 558 819 z "},"ĕ":{"ha":919,"x_min":74,"x_max":844,"o":"m 268 0 q 129 56 185 0 q 74 194 74 111 l 74 535 q 129 674 74 618 q 268 729 185 729 l 650 729 q 789 674 733 729 q 844 535 844 618 l 844 278 l 322 278 l 322 232 q 365 188 322 188 l 813 188 l 813 0 l 268 0 m 322 435 l 597 435 l 597 497 q 553 542 597 542 l 365 542 q 322 497 322 542 l 322 435 m 285 819 q 203 853 236 819 q 169 935 169 888 l 169 1046 l 378 1046 l 378 1000 q 408 969 378 969 l 514 969 q 544 1000 544 969 l 544 1046 l 753 1046 l 753 935 q 719 853 753 888 q 638 819 685 819 l 285 819 z "},"ě":{"ha":919,"x_min":74,"x_max":844,"o":"m 268 0 q 129 56 185 0 q 74 194 74 111 l 74 535 q 129 674 74 618 q 268 729 185 729 l 650 729 q 789 674 733 729 q 844 535 844 618 l 844 278 l 322 278 l 322 232 q 365 188 322 188 l 813 188 l 813 0 l 268 0 m 322 435 l 597 435 l 597 497 q 553 542 597 542 l 365 542 q 322 497 322 542 l 322 435 m 597 819 l 325 819 l 156 1046 l 389 1046 l 457 951 l 465 951 l 533 1046 l 767 1046 l 597 819 z "},"ê":{"ha":919,"x_min":74,"x_max":844,"o":"m 268 0 q 129 56 185 0 q 74 194 74 111 l 74 535 q 129 674 74 618 q 268 729 185 729 l 650 729 q 789 674 733 729 q 844 535 844 618 l 844 278 l 322 278 l 322 232 q 365 188 322 188 l 813 188 l 813 0 l 268 0 m 322 435 l 597 435 l 597 497 q 553 542 597 542 l 365 542 q 322 497 322 542 l 322 435 m 389 819 l 156 819 l 325 1046 l 597 1046 l 767 819 l 533 819 l 465 914 l 457 914 l 389 819 z "},"ë":{"ha":919,"x_min":74,"x_max":844,"o":"m 268 0 q 129 56 185 0 q 74 194 74 111 l 74 535 q 129 674 74 618 q 268 729 185 729 l 650 729 q 789 674 733 729 q 844 535 844 618 l 844 278 l 322 278 l 322 232 q 365 188 322 188 l 813 188 l 813 0 l 268 0 m 322 435 l 597 435 l 597 497 q 553 542 597 542 l 365 542 q 322 497 322 542 l 322 435 m 408 824 l 169 824 l 169 1039 l 408 1039 l 408 824 m 753 824 l 514 824 l 514 1039 l 753 1039 l 753 824 z "},"ė":{"ha":919,"x_min":74,"x_max":844,"o":"m 268 0 q 129 56 185 0 q 74 194 74 111 l 74 535 q 129 674 74 618 q 268 729 185 729 l 650 729 q 789 674 733 729 q 844 535 844 618 l 844 278 l 322 278 l 322 232 q 365 188 322 188 l 813 188 l 813 0 l 268 0 m 322 435 l 597 435 l 597 497 q 553 542 597 542 l 365 542 q 322 497 322 542 l 322 435 m 583 824 l 336 824 l 336 1039 l 583 1039 l 583 824 z "},"è":{"ha":919,"x_min":74,"x_max":844,"o":"m 268 0 q 129 56 185 0 q 74 194 74 111 l 74 535 q 129 674 74 618 q 268 729 185 729 l 650 729 q 789 674 733 729 q 844 535 844 618 l 844 278 l 322 278 l 322 232 q 365 188 322 188 l 813 188 l 813 0 l 268 0 m 322 435 l 597 435 l 597 497 q 553 542 597 542 l 365 542 q 322 497 322 542 l 322 435 m 606 819 l 363 819 l 189 1046 l 494 1046 l 606 819 z "},"ē":{"ha":919,"x_min":74,"x_max":844,"o":"m 268 0 q 129 56 185 0 q 74 194 74 111 l 74 535 q 129 674 74 618 q 268 729 185 729 l 650 729 q 789 674 733 729 q 844 535 844 618 l 844 278 l 322 278 l 322 232 q 365 188 322 188 l 813 188 l 813 0 l 268 0 m 322 435 l 597 435 l 597 497 q 553 542 597 542 l 365 542 q 322 497 322 542 l 322 435 m 725 843 l 197 843 l 197 1024 l 725 1024 l 725 843 z "},"ę":{"ha":919,"x_min":74,"x_max":844,"o":"m 844 278 l 322 278 l 322 232 q 365 188 322 188 l 813 188 l 813 0 q 699 -81 738 -44 q 660 -149 660 -117 q 697 -185 660 -185 l 813 -185 l 813 -326 l 643 -326 q 524 -290 564 -326 q 483 -190 483 -254 q 529 -85 483 -135 q 640 0 575 -36 l 268 0 q 129 56 185 0 q 74 194 74 111 l 74 535 q 129 674 74 618 q 268 729 185 729 l 650 729 q 789 674 733 729 q 844 535 844 618 l 844 278 m 322 435 l 597 435 l 597 497 q 553 542 597 542 l 365 542 q 322 497 322 542 l 322 435 z "},"ẽ":{"ha":919,"x_min":74,"x_max":844,"o":"m 268 0 q 129 56 185 0 q 74 194 74 111 l 74 535 q 129 674 74 618 q 268 729 185 729 l 650 729 q 789 674 733 729 q 844 535 844 618 l 844 278 l 322 278 l 322 232 q 365 188 322 188 l 813 188 l 813 0 l 268 0 m 322 435 l 597 435 l 597 497 q 553 542 597 542 l 365 542 q 322 497 322 542 l 322 435 m 608 813 q 528 824 564 813 q 449 854 493 835 q 382 876 401 876 q 365 860 365 876 l 365 819 l 201 819 l 201 951 q 230 1024 201 997 q 313 1051 258 1051 q 392 1040 357 1051 q 472 1010 428 1029 q 539 988 519 988 q 556 1004 556 988 l 556 1044 l 719 1044 l 719 911 q 691 840 719 867 q 608 813 663 813 z "},"ə":{"ha":913,"x_min":67,"x_max":838,"o":"m 261 -14 q 122 42 178 -14 q 67 181 67 97 l 67 431 l 590 431 l 590 483 q 546 528 590 528 l 171 528 l 100 604 l 100 715 l 643 715 q 782 660 726 715 q 838 521 838 604 l 838 181 q 782 42 838 97 q 643 -14 726 -14 l 261 -14 m 546 169 q 590 213 590 169 l 590 274 l 315 274 l 315 213 q 358 169 315 169 l 546 169 z "},"ǵ":{"ha":893,"x_min":35,"x_max":858,"o":"m 206 -250 q 85 -200 135 -250 q 35 -79 35 -150 l 35 0 q 74 103 35 65 q 164 150 113 142 l 164 163 q 127 190 143 169 q 111 239 111 211 q 127 287 111 267 q 164 313 143 307 l 164 324 q 103 369 129 333 q 76 463 76 406 l 76 558 q 126 679 76 629 q 247 729 176 729 l 524 729 l 574 806 l 775 806 l 775 732 l 718 694 l 718 683 q 786 627 756 668 q 817 528 817 586 l 817 426 q 767 304 817 354 q 646 254 717 254 l 338 254 q 318 247 326 254 q 310 226 310 239 q 318 206 310 214 q 338 199 326 199 l 688 199 q 808 149 758 199 q 858 28 858 99 l 858 -79 q 808 -200 858 -150 q 688 -250 758 -250 l 206 -250 m 532 438 q 560 447 550 438 q 569 475 569 457 l 569 510 q 532 546 569 546 l 361 546 q 324 510 324 546 l 324 475 q 333 447 324 457 q 361 438 343 438 l 532 438 m 574 -76 q 601 -67 590 -76 q 611 -42 611 -57 l 611 -10 q 601 15 611 6 q 574 25 590 25 l 319 25 q 292 15 303 25 q 282 -10 282 6 l 282 -42 q 292 -67 282 -57 q 319 -76 303 -76 l 574 -76 m 544 819 l 301 819 l 413 1046 l 718 1046 l 544 819 z "},"ğ":{"ha":893,"x_min":35,"x_max":858,"o":"m 206 -250 q 85 -200 135 -250 q 35 -79 35 -150 l 35 0 q 74 103 35 65 q 164 150 113 142 l 164 163 q 127 190 143 169 q 111 239 111 211 q 127 287 111 267 q 164 313 143 307 l 164 324 q 103 369 129 333 q 76 463 76 406 l 76 558 q 126 679 76 629 q 247 729 176 729 l 524 729 l 574 806 l 775 806 l 775 732 l 718 694 l 718 683 q 786 627 756 668 q 817 528 817 586 l 817 426 q 767 304 817 354 q 646 254 717 254 l 338 254 q 318 247 326 254 q 310 226 310 239 q 318 206 310 214 q 338 199 326 199 l 688 199 q 808 149 758 199 q 858 28 858 99 l 858 -79 q 808 -200 858 -150 q 688 -250 758 -250 l 206 -250 m 532 438 q 560 447 550 438 q 569 475 569 457 l 569 510 q 532 546 569 546 l 361 546 q 324 510 324 546 l 324 475 q 333 447 324 457 q 361 438 343 438 l 532 438 m 574 -76 q 601 -67 590 -76 q 611 -42 611 -57 l 611 -10 q 601 15 611 6 q 574 25 590 25 l 319 25 q 292 15 303 25 q 282 -10 282 6 l 282 -42 q 292 -67 282 -57 q 319 -76 303 -76 l 574 -76 m 271 819 q 189 853 222 819 q 156 935 156 888 l 156 1046 l 364 1046 l 364 1000 q 394 969 364 969 l 500 969 q 531 1000 531 969 l 531 1046 l 739 1046 l 739 935 q 705 853 739 888 q 624 819 671 819 l 271 819 z "},"ĝ":{"ha":893,"x_min":35,"x_max":858,"o":"m 206 -250 q 85 -200 135 -250 q 35 -79 35 -150 l 35 0 q 74 103 35 65 q 164 150 113 142 l 164 163 q 127 190 143 169 q 111 239 111 211 q 127 287 111 267 q 164 313 143 307 l 164 324 q 103 369 129 333 q 76 463 76 406 l 76 558 q 126 679 76 629 q 247 729 176 729 l 524 729 l 574 806 l 775 806 l 775 732 l 718 694 l 718 683 q 786 627 756 668 q 817 528 817 586 l 817 426 q 767 304 817 354 q 646 254 717 254 l 338 254 q 318 247 326 254 q 310 226 310 239 q 318 206 310 214 q 338 199 326 199 l 688 199 q 808 149 758 199 q 858 28 858 99 l 858 -79 q 808 -200 858 -150 q 688 -250 758 -250 l 206 -250 m 532 438 q 560 447 550 438 q 569 475 569 457 l 569 510 q 532 546 569 546 l 361 546 q 324 510 324 546 l 324 475 q 333 447 324 457 q 361 438 343 438 l 532 438 m 574 -76 q 601 -67 590 -76 q 611 -42 611 -57 l 611 -10 q 601 15 611 6 q 574 25 590 25 l 319 25 q 292 15 303 25 q 282 -10 282 6 l 282 -42 q 292 -67 282 -57 q 319 -76 303 -76 l 574 -76 m 375 819 l 142 819 l 311 1046 l 583 1046 l 753 819 l 519 819 l 451 914 l 443 914 l 375 819 z "},"ģ":{"ha":893,"x_min":35,"x_max":858,"o":"m 206 -250 q 85 -200 135 -250 q 35 -79 35 -150 l 35 0 q 74 103 35 65 q 164 150 113 142 l 164 163 q 127 190 143 169 q 111 239 111 211 q 127 287 111 267 q 164 313 143 307 l 164 324 q 103 369 129 333 q 76 463 76 406 l 76 558 q 126 679 76 629 q 247 729 176 729 l 524 729 l 574 806 l 775 806 l 775 732 l 718 694 l 718 683 q 786 627 756 668 q 817 528 817 586 l 817 426 q 767 304 817 354 q 646 254 717 254 l 338 254 q 318 247 326 254 q 310 226 310 239 q 318 206 310 214 q 338 199 326 199 l 688 199 q 808 149 758 199 q 858 28 858 99 l 858 -79 q 808 -200 858 -150 q 688 -250 758 -250 l 206 -250 m 532 438 q 560 447 550 438 q 569 475 569 457 l 569 510 q 532 546 569 546 l 361 546 q 324 510 324 546 l 324 475 q 333 447 324 457 q 361 438 343 438 l 532 438 m 574 -76 q 601 -67 590 -76 q 611 -42 611 -57 l 611 -10 q 601 15 611 6 q 574 25 590 25 l 319 25 q 292 15 303 25 q 282 -10 282 6 l 282 -42 q 292 -67 282 -57 q 319 -76 303 -76 l 574 -76 m 569 819 l 322 819 l 322 976 l 421 1143 l 569 1143 l 569 819 z "},"ġ":{"ha":893,"x_min":35,"x_max":858,"o":"m 206 -250 q 85 -200 135 -250 q 35 -79 35 -150 l 35 0 q 74 103 35 65 q 164 150 113 142 l 164 163 q 127 190 143 169 q 111 239 111 211 q 127 287 111 267 q 164 313 143 307 l 164 324 q 103 369 129 333 q 76 463 76 406 l 76 558 q 126 679 76 629 q 247 729 176 729 l 524 729 l 574 806 l 775 806 l 775 732 l 718 694 l 718 683 q 786 627 756 668 q 817 528 817 586 l 817 426 q 767 304 817 354 q 646 254 717 254 l 338 254 q 318 247 326 254 q 310 226 310 239 q 318 206 310 214 q 338 199 326 199 l 688 199 q 808 149 758 199 q 858 28 858 99 l 858 -79 q 808 -200 858 -150 q 688 -250 758 -250 l 206 -250 m 532 438 q 560 447 550 438 q 569 475 569 457 l 569 510 q 532 546 569 546 l 361 546 q 324 510 324 546 l 324 475 q 333 447 324 457 q 361 438 343 438 l 532 438 m 574 -76 q 601 -67 590 -76 q 611 -42 611 -57 l 611 -10 q 601 15 611 6 q 574 25 590 25 l 319 25 q 292 15 303 25 q 282 -10 282 6 l 282 -42 q 292 -67 282 -57 q 319 -76 303 -76 l 574 -76 m 569 824 l 322 824 l 322 1039 l 569 1039 l 569 824 z "},"ǧ":{"ha":893,"x_min":35,"x_max":858,"o":"m 583 819 l 311 819 l 142 1046 l 375 1046 l 443 951 l 451 951 l 519 1046 l 753 1046 l 583 819 m 206 -250 q 85 -200 135 -250 q 35 -79 35 -150 l 35 0 q 70 99 35 57 q 164 150 106 140 l 164 163 q 126 191 140 169 q 111 239 111 213 q 126 285 111 264 q 164 313 142 307 l 164 324 q 101 374 125 335 q 76 463 76 413 l 76 558 q 126 679 76 629 q 247 729 176 729 l 524 729 l 574 815 l 785 815 l 785 732 l 718 694 l 718 683 q 789 623 761 665 q 817 528 817 581 l 817 426 q 767 304 817 354 q 646 254 717 254 l 338 254 q 318 247 326 254 q 310 226 310 239 q 318 206 310 214 q 338 199 326 199 l 688 199 q 808 149 758 199 q 858 28 858 99 l 858 -79 q 808 -200 858 -150 q 688 -250 758 -250 l 206 -250 m 532 438 q 560 447 550 438 q 569 475 569 457 l 569 510 q 532 546 569 546 l 361 546 q 324 510 324 546 l 324 475 q 333 447 324 457 q 361 438 343 438 l 532 438 m 574 -76 q 601 -67 590 -76 q 611 -42 611 -57 l 611 -10 q 601 15 611 6 q 574 25 590 25 l 319 25 q 292 15 303 25 q 282 -10 282 6 l 282 -42 q 292 -67 282 -57 q 319 -76 303 -76 l 574 -76 z "},"ħ":{"ha":935,"x_min":-17,"x_max":861,"o":"m 667 604 q 806 549 750 604 q 861 410 861 493 l 861 0 l 614 0 l 614 340 q 602 373 614 361 q 569 385 590 385 l 417 385 q 368 367 386 385 q 350 317 350 349 l 350 0 l 101 0 l 101 658 l -17 658 l -17 856 l 101 856 l 101 965 l 350 965 l 350 856 l 581 856 l 581 658 l 350 658 l 350 517 l 357 517 q 416 577 374 550 q 517 604 458 604 l 667 604 z "},"ĥ":{"ha":942,"x_min":94,"x_max":854,"o":"m 94 0 l 94 965 l 343 965 l 343 642 l 350 642 q 409 702 367 675 q 510 729 451 729 l 660 729 q 799 674 743 729 q 854 535 854 618 l 854 0 l 607 0 l 607 465 q 595 498 607 486 q 563 510 583 510 l 410 510 q 361 492 379 510 q 343 442 343 474 l 343 0 l 94 0 m 403 1069 l 169 1069 l 339 1296 l 611 1296 l 781 1069 l 547 1069 l 479 1164 l 471 1164 l 403 1069 z "},"ȟ":{"ha":942,"x_min":94,"x_max":854,"o":"m 94 0 l 94 965 l 343 965 l 343 642 l 350 642 q 409 702 367 675 q 510 729 451 729 l 660 729 q 799 674 743 729 q 854 535 854 618 l 854 0 l 607 0 l 607 465 q 595 498 607 486 q 563 510 583 510 l 410 510 q 361 492 379 510 q 343 442 343 474 l 343 0 l 94 0 m 611 1063 l 339 1063 l 169 1289 l 403 1289 l 471 1194 l 479 1194 l 547 1289 l 781 1289 l 611 1063 z "},"ḧ":{"ha":942,"x_min":94,"x_max":854,"o":"m 94 0 l 94 965 l 343 965 l 343 642 l 350 642 q 409 702 367 675 q 510 729 451 729 l 660 729 q 799 674 743 729 q 854 535 854 618 l 854 0 l 607 0 l 607 465 q 595 498 607 486 q 563 510 583 510 l 410 510 q 361 492 379 510 q 343 442 343 474 l 343 0 l 94 0 m 422 1067 l 183 1067 l 183 1282 l 422 1282 l 422 1067 m 767 1067 l 528 1067 l 528 1282 l 767 1282 l 767 1067 z "},"ḥ":{"ha":942,"x_min":94,"x_max":854,"o":"m 94 0 l 94 965 l 343 965 l 343 642 l 350 642 q 409 702 367 675 q 510 729 451 729 l 660 729 q 799 674 743 729 q 854 535 854 618 l 854 0 l 607 0 l 607 465 q 595 498 607 486 q 563 510 583 510 l 410 510 q 361 492 379 510 q 343 442 343 474 l 343 0 l 94 0 m 601 -331 l 349 -331 l 349 -104 l 601 -104 l 601 -331 z "},"ı":{"ha":438,"x_min":94,"x_max":343,"o":"m 343 0 l 94 0 l 94 715 l 343 715 l 343 0 z "},"í":{"ha":438,"x_min":74,"x_max":490,"o":"m 343 0 l 94 0 l 94 715 l 343 715 l 343 0 m 317 819 l 74 819 l 185 1046 l 490 1046 l 317 819 z "},"ĭ":{"ha":438,"x_min":-72,"x_max":511,"o":"m 343 0 l 94 0 l 94 715 l 343 715 l 343 0 m 43 819 q -39 853 -6 819 q -72 935 -72 888 l -72 1046 l 136 1046 l 136 1000 q 167 969 136 969 l 272 969 q 303 1000 303 969 l 303 1046 l 511 1046 l 511 935 q 477 853 511 888 q 396 819 443 819 l 43 819 z "},"î":{"ha":438,"x_min":-86,"x_max":525,"o":"m 343 0 l 94 0 l 94 715 l 343 715 l 343 0 m 147 819 l -86 819 l 83 1046 l 356 1046 l 525 819 l 292 819 l 224 914 l 215 914 l 147 819 z "},"ï":{"ha":438,"x_min":-72,"x_max":511,"o":"m 343 0 l 94 0 l 94 715 l 343 715 l 343 0 m 167 824 l -72 824 l -72 1039 l 167 1039 l 167 824 m 511 824 l 272 824 l 272 1039 l 511 1039 l 511 824 z "},"ì":{"ha":438,"x_min":-53,"x_max":364,"o":"m 343 0 l 94 0 l 94 715 l 343 715 l 343 0 m 364 819 l 121 819 l -53 1046 l 253 1046 l 364 819 z "},"ī":{"ha":438,"x_min":-44,"x_max":483,"o":"m 343 0 l 94 0 l 94 715 l 343 715 l 343 0 m 483 843 l -44 843 l -44 1024 l 483 1024 l 483 843 z "},"į":{"ha":438,"x_min":14,"x_max":343,"o":"m 94 1039 l 342 1039 l 342 824 l 94 824 l 94 1039 m 343 0 q 228 -82 265 -46 q 190 -149 190 -118 q 228 -185 190 -185 l 343 -185 l 343 -326 l 174 -326 q 54 -290 94 -326 q 14 -190 14 -254 q 60 -85 14 -135 q 171 0 106 -36 l 94 0 l 94 715 l 343 715 l 343 0 z "},"ĩ":{"ha":438,"x_min":-40,"x_max":478,"o":"m 343 0 l 94 0 l 94 715 l 343 715 l 343 0 m 367 813 q 287 824 322 813 q 207 854 251 835 q 140 876 160 876 q 124 860 124 876 l 124 819 l -40 819 l -40 951 q -12 1024 -40 997 q 71 1051 17 1051 q 151 1040 115 1051 q 231 1010 186 1029 q 297 988 278 988 q 314 1004 314 988 l 314 1044 l 478 1044 l 478 911 q 449 840 478 867 q 367 813 421 813 z "},"ĳ":{"ha":875,"x_min":94,"x_max":788,"o":"m 343 0 l 94 0 l 94 715 l 343 715 l 343 0 m 342 824 l 94 824 l 94 1039 l 342 1039 l 342 824 m 368 -236 l 368 -21 l 496 -21 q 539 24 539 -21 l 539 715 l 788 715 l 788 -42 q 732 -181 788 -125 q 593 -236 676 -236 l 368 -236 m 786 824 l 539 824 l 539 1039 l 786 1039 l 786 824 z "},"":{"ha":875,"x_min":74,"x_max":935,"o":"m 343 0 l 94 0 l 94 715 l 343 715 l 343 0 m 317 819 l 74 819 l 185 1046 l 490 1046 l 317 819 m 368 -236 l 368 -21 l 496 -21 q 539 24 539 -21 l 539 715 l 788 715 l 788 -42 q 732 -181 788 -125 q 593 -236 676 -236 l 368 -236 m 761 819 l 518 819 l 629 1046 l 935 1046 l 761 819 z "},"ȷ":{"ha":438,"x_min":-69,"x_max":350,"o":"m -69 -236 l -69 -21 l 58 -21 q 101 24 101 -21 l 101 715 l 350 715 l 350 -42 q 294 -181 350 -125 q 156 -236 239 -236 l -69 -236 z "},"ĵ":{"ha":438,"x_min":-79,"x_max":532,"o":"m -69 -236 l -69 -21 l 58 -21 q 101 24 101 -21 l 101 715 l 350 715 l 350 -42 q 294 -181 350 -125 q 156 -236 239 -236 l -69 -236 m 154 819 l -79 819 l 90 1046 l 363 1046 l 532 819 l 299 819 l 231 914 l 222 914 l 154 819 z "},"ķ":{"ha":913,"x_min":94,"x_max":871,"o":"m 343 0 l 94 0 l 94 965 l 343 965 l 343 463 l 476 463 l 635 715 l 857 715 l 857 604 l 690 365 l 871 111 l 871 0 l 642 0 l 476 257 l 343 257 l 343 0 m 497 -399 l 367 -399 l 367 -86 l 596 -86 l 596 -243 l 497 -399 z "},"ḱ":{"ha":913,"x_min":94,"x_max":871,"o":"m 343 0 l 94 0 l 94 965 l 343 965 l 343 463 l 476 463 l 635 715 l 857 715 l 857 604 l 690 365 l 871 111 l 871 0 l 642 0 l 476 257 l 343 257 l 343 0 m 590 1063 l 347 1063 l 458 1289 l 764 1289 l 590 1063 z "},"ĺ":{"ha":438,"x_min":74,"x_max":490,"o":"m 343 0 l 94 0 l 94 965 l 343 965 l 343 0 m 317 1069 l 74 1069 l 185 1296 l 490 1296 l 317 1069 z "},"ľ":{"ha":438,"x_min":94,"x_max":674,"o":"m 343 0 l 94 0 l 94 965 l 343 965 l 343 0 m 575 761 l 444 761 l 444 1053 l 674 1053 l 674 928 l 575 761 z "},"ļ":{"ha":438,"x_min":94,"x_max":343,"o":"m 343 0 l 94 0 l 94 965 l 343 965 l 343 0 m 235 -399 l 104 -399 l 104 -86 l 333 -86 l 333 -243 l 235 -399 z "},"ŀ":{"ha":649,"x_min":94,"x_max":668,"o":"m 343 0 l 94 0 l 94 965 l 343 965 l 343 0 m 668 369 l 417 369 l 417 596 l 668 596 l 668 369 z "},"ł":{"ha":467,"x_min":18,"x_max":447,"o":"m 357 665 l 447 721 l 447 506 l 357 450 l 357 0 l 108 0 l 108 300 l 18 244 l 18 460 l 108 515 l 108 965 l 357 965 l 357 665 z "},"ḷ":{"ha":438,"x_min":93,"x_max":346,"o":"m 343 0 l 94 0 l 94 965 l 343 965 l 343 0 m 346 -331 l 93 -331 l 93 -104 l 346 -104 l 346 -331 z "},"ǉ":{"ha":875,"x_min":94,"x_max":788,"o":"m 343 0 l 94 0 l 94 965 l 343 965 l 343 0 m 368 -236 l 368 -21 l 496 -21 q 539 24 539 -21 l 539 715 l 788 715 l 788 -42 q 732 -181 788 -125 q 593 -236 676 -236 l 368 -236 m 786 824 l 539 824 l 539 1039 l 786 1039 l 786 824 z "},"ḿ":{"ha":1364,"x_min":88,"x_max":1275,"o":"m 88 0 l 88 715 l 267 715 l 303 629 l 310 629 q 370 699 326 668 q 472 729 414 729 l 583 729 q 685 699 642 729 q 746 629 729 668 l 753 629 q 811 698 768 667 q 914 729 854 729 l 1081 729 q 1219 674 1164 729 q 1275 535 1275 618 l 1275 0 l 1028 0 l 1028 465 q 1017 498 1028 486 q 983 510 1006 510 l 858 510 q 806 456 806 510 l 806 0 l 558 0 l 558 465 q 547 498 558 486 q 514 510 535 510 l 403 510 q 354 492 372 510 q 336 442 336 474 l 336 0 l 88 0 m 815 819 l 572 819 l 683 1046 l 989 1046 l 815 819 z "},"ń":{"ha":935,"x_min":88,"x_max":847,"o":"m 88 0 l 88 715 l 267 715 l 303 629 l 310 629 q 370 699 326 668 q 472 729 414 729 l 653 729 q 792 674 736 729 q 847 535 847 618 l 847 0 l 600 0 l 600 465 q 588 498 600 486 q 556 510 576 510 l 403 510 q 354 492 372 510 q 336 442 336 474 l 336 0 l 88 0 m 565 819 l 322 819 l 433 1046 l 739 1046 l 565 819 z "},"ň":{"ha":935,"x_min":88,"x_max":847,"o":"m 88 0 l 88 715 l 267 715 l 303 629 l 310 629 q 370 699 326 668 q 472 729 414 729 l 653 729 q 792 674 736 729 q 847 535 847 618 l 847 0 l 600 0 l 600 465 q 588 498 600 486 q 556 510 576 510 l 403 510 q 354 492 372 510 q 336 442 336 474 l 336 0 l 88 0 m 604 819 l 332 819 l 163 1046 l 396 1046 l 464 951 l 472 951 l 540 1046 l 774 1046 l 604 819 z "},"ņ":{"ha":935,"x_min":88,"x_max":847,"o":"m 88 0 l 88 715 l 267 715 l 303 629 l 310 629 q 370 699 326 668 q 472 729 414 729 l 653 729 q 792 674 736 729 q 847 535 847 618 l 847 0 l 600 0 l 600 465 q 588 498 600 486 q 556 510 576 510 l 403 510 q 354 492 372 510 q 336 442 336 474 l 336 0 l 88 0 m 483 -399 l 353 -399 l 353 -86 l 582 -86 l 582 -243 l 483 -399 z "},"ŋ":{"ha":935,"x_min":88,"x_max":847,"o":"m 428 -236 l 428 -62 l 556 -62 q 588 -51 576 -62 q 600 -18 600 -40 l 600 461 q 588 493 600 482 q 556 504 576 504 l 403 504 q 354 487 372 504 q 336 438 336 469 l 336 0 l 88 0 l 88 715 l 267 715 l 303 629 l 310 629 q 370 699 326 668 q 472 729 414 729 l 653 729 q 792 674 736 729 q 847 535 847 618 l 847 -42 q 792 -181 847 -125 q 653 -236 736 -236 l 428 -236 z "},"ñ":{"ha":935,"x_min":88,"x_max":847,"o":"m 88 0 l 88 715 l 267 715 l 303 629 l 310 629 q 370 699 326 668 q 472 729 414 729 l 653 729 q 792 674 736 729 q 847 535 847 618 l 847 0 l 600 0 l 600 465 q 588 498 600 486 q 556 510 576 510 l 403 510 q 354 492 372 510 q 336 442 336 474 l 336 0 l 88 0 m 615 813 q 535 824 571 813 q 456 854 500 835 q 389 876 408 876 q 372 860 372 876 l 372 819 l 208 819 l 208 951 q 237 1024 208 997 q 319 1051 265 1051 q 399 1040 364 1051 q 479 1010 435 1029 q 546 988 526 988 q 563 1004 563 988 l 563 1044 l 726 1044 l 726 911 q 698 840 726 867 q 615 813 669 813 z "},"ǌ":{"ha":1372,"x_min":88,"x_max":1285,"o":"m 88 0 l 88 715 l 267 715 l 303 629 l 310 629 q 370 699 326 668 q 472 729 414 729 l 653 729 q 792 674 736 729 q 847 535 847 618 l 847 0 l 600 0 l 600 465 q 588 498 600 486 q 556 510 576 510 l 403 510 q 354 492 372 510 q 336 442 336 474 l 336 0 l 88 0 m 865 -236 l 865 -21 l 993 -21 q 1036 24 1036 -21 l 1036 715 l 1285 715 l 1285 -42 q 1229 -181 1285 -125 q 1090 -236 1174 -236 l 865 -236 m 1283 824 l 1036 824 l 1036 1039 l 1283 1039 l 1283 824 z "},"ó":{"ha":935,"x_min":74,"x_max":861,"o":"m 268 -14 q 129 42 185 -14 q 74 181 74 97 l 74 535 q 129 674 74 618 q 268 729 185 729 l 667 729 q 806 674 750 729 q 861 535 861 618 l 861 181 q 806 42 861 97 q 667 -14 750 -14 l 268 -14 m 569 197 q 602 208 590 197 q 614 240 614 219 l 614 475 q 602 507 614 496 q 569 518 590 518 l 365 518 q 322 475 322 518 l 322 240 q 365 197 322 197 l 569 197 m 565 819 l 322 819 l 433 1046 l 739 1046 l 565 819 z "},"ŏ":{"ha":935,"x_min":74,"x_max":861,"o":"m 268 -14 q 129 42 185 -14 q 74 181 74 97 l 74 535 q 129 674 74 618 q 268 729 185 729 l 667 729 q 806 674 750 729 q 861 535 861 618 l 861 181 q 806 42 861 97 q 667 -14 750 -14 l 268 -14 m 569 197 q 602 208 590 197 q 614 240 614 219 l 614 475 q 602 507 614 496 q 569 518 590 518 l 365 518 q 322 475 322 518 l 322 240 q 365 197 322 197 l 569 197 m 292 819 q 210 853 243 819 q 176 935 176 888 l 176 1046 l 385 1046 l 385 1000 q 415 969 385 969 l 521 969 q 551 1000 551 969 l 551 1046 l 760 1046 l 760 935 q 726 853 760 888 q 644 819 692 819 l 292 819 z "},"ô":{"ha":935,"x_min":74,"x_max":861,"o":"m 268 -14 q 129 42 185 -14 q 74 181 74 97 l 74 535 q 129 674 74 618 q 268 729 185 729 l 667 729 q 806 674 750 729 q 861 535 861 618 l 861 181 q 806 42 861 97 q 667 -14 750 -14 l 268 -14 m 569 197 q 602 208 590 197 q 614 240 614 219 l 614 475 q 602 507 614 496 q 569 518 590 518 l 365 518 q 322 475 322 518 l 322 240 q 365 197 322 197 l 569 197 m 396 819 l 163 819 l 332 1046 l 604 1046 l 774 819 l 540 819 l 472 914 l 464 914 l 396 819 z "},"ö":{"ha":935,"x_min":74,"x_max":861,"o":"m 268 -14 q 129 42 185 -14 q 74 181 74 97 l 74 535 q 129 674 74 618 q 268 729 185 729 l 667 729 q 806 674 750 729 q 861 535 861 618 l 861 181 q 806 42 861 97 q 667 -14 750 -14 l 268 -14 m 569 197 q 602 208 590 197 q 614 240 614 219 l 614 475 q 602 507 614 496 q 569 518 590 518 l 365 518 q 322 475 322 518 l 322 240 q 365 197 322 197 l 569 197 m 415 824 l 176 824 l 176 1039 l 415 1039 l 415 824 m 760 824 l 521 824 l 521 1039 l 760 1039 l 760 824 z "},"ò":{"ha":935,"x_min":74,"x_max":861,"o":"m 268 -14 q 129 42 185 -14 q 74 181 74 97 l 74 535 q 129 674 74 618 q 268 729 185 729 l 667 729 q 806 674 750 729 q 861 535 861 618 l 861 181 q 806 42 861 97 q 667 -14 750 -14 l 268 -14 m 569 197 q 602 208 590 197 q 614 240 614 219 l 614 475 q 602 507 614 496 q 569 518 590 518 l 365 518 q 322 475 322 518 l 322 240 q 365 197 322 197 l 569 197 m 613 819 l 369 819 l 196 1046 l 501 1046 l 613 819 z "},"ő":{"ha":935,"x_min":74,"x_max":864,"o":"m 268 -14 q 129 42 185 -14 q 74 181 74 97 l 74 535 q 129 674 74 618 q 268 729 185 729 l 667 729 q 806 674 750 729 q 861 535 861 618 l 861 181 q 806 42 861 97 q 667 -14 750 -14 l 268 -14 m 569 197 q 602 208 590 197 q 614 240 614 219 l 614 475 q 602 507 614 496 q 569 518 590 518 l 365 518 q 322 475 322 518 l 322 240 q 365 197 322 197 l 569 197 m 382 819 l 181 819 l 292 1046 l 539 1046 l 382 819 m 706 819 l 504 819 l 615 1046 l 864 1046 l 706 819 z "},"ō":{"ha":935,"x_min":74,"x_max":861,"o":"m 268 -14 q 129 42 185 -14 q 74 181 74 97 l 74 535 q 129 674 74 618 q 268 729 185 729 l 667 729 q 806 674 750 729 q 861 535 861 618 l 861 181 q 806 42 861 97 q 667 -14 750 -14 l 268 -14 m 569 197 q 602 208 590 197 q 614 240 614 219 l 614 475 q 602 507 614 496 q 569 518 590 518 l 365 518 q 322 475 322 518 l 322 240 q 365 197 322 197 l 569 197 m 732 843 l 204 843 l 204 1024 l 732 1024 l 732 843 z "},"ø":{"ha":935,"x_min":74,"x_max":861,"o":"m 667 729 q 806 674 750 729 q 861 535 861 618 l 861 181 q 806 42 861 97 q 667 -14 750 -14 l 268 -14 q 129 42 185 -14 q 74 181 74 97 l 74 535 q 129 674 74 618 q 268 729 185 729 l 667 729 m 365 518 q 322 475 322 518 l 322 247 l 554 518 l 365 518 m 569 197 q 602 208 590 197 q 614 240 614 219 l 614 471 l 379 197 l 569 197 z "},"ǿ":{"ha":935,"x_min":74,"x_max":861,"o":"m 667 729 q 806 674 750 729 q 861 535 861 618 l 861 181 q 806 42 861 97 q 667 -14 750 -14 l 268 -14 q 129 42 185 -14 q 74 181 74 97 l 74 535 q 129 674 74 618 q 268 729 185 729 l 667 729 m 365 518 q 322 475 322 518 l 322 247 l 554 518 l 365 518 m 569 197 q 602 208 590 197 q 614 240 614 219 l 614 471 l 379 197 l 569 197 m 565 819 l 322 819 l 433 1046 l 739 1046 l 565 819 z "},"õ":{"ha":935,"x_min":74,"x_max":861,"o":"m 268 -14 q 129 42 185 -14 q 74 181 74 97 l 74 535 q 129 674 74 618 q 268 729 185 729 l 667 729 q 806 674 750 729 q 861 535 861 618 l 861 181 q 806 42 861 97 q 667 -14 750 -14 l 268 -14 m 569 197 q 602 208 590 197 q 614 240 614 219 l 614 475 q 602 507 614 496 q 569 518 590 518 l 365 518 q 322 475 322 518 l 322 240 q 365 197 322 197 l 569 197 m 615 813 q 535 824 571 813 q 456 854 500 835 q 389 876 408 876 q 372 860 372 876 l 372 819 l 208 819 l 208 951 q 237 1024 208 997 q 319 1051 265 1051 q 399 1040 364 1051 q 479 1010 435 1029 q 546 988 526 988 q 563 1004 563 988 l 563 1044 l 726 1044 l 726 911 q 698 840 726 867 q 615 813 669 813 z "},"œ":{"ha":1406,"x_min":74,"x_max":1331,"o":"m 268 -14 q 129 42 185 -14 q 74 181 74 97 l 74 535 q 129 674 74 618 q 268 729 185 729 l 588 729 q 662 708 628 729 q 713 663 696 688 l 719 663 q 775 708 738 688 q 858 729 813 729 l 1136 729 q 1275 674 1219 729 q 1331 535 1331 618 l 1331 278 l 833 278 l 833 232 q 878 188 833 188 l 1299 188 l 1299 0 l 844 0 q 773 18 806 0 q 722 58 740 36 l 715 58 q 660 8 697 31 q 574 -14 622 -14 l 268 -14 m 833 435 l 1083 435 l 1083 497 q 1039 542 1083 542 l 878 542 q 833 497 833 542 l 833 435 m 542 197 q 574 208 563 197 q 586 240 586 219 l 586 475 q 574 507 586 496 q 542 518 563 518 l 365 518 q 322 475 322 518 l 322 240 q 365 197 322 197 l 542 197 z "},"ṕ":{"ha":944,"x_min":88,"x_max":871,"o":"m 88 -236 l 88 715 l 267 715 l 303 629 l 310 629 q 370 699 326 668 q 472 729 414 729 l 676 729 q 815 674 760 729 q 871 535 871 618 l 871 194 q 815 56 871 111 q 676 0 760 0 l 336 0 l 336 -236 l 88 -236 m 579 215 q 622 260 622 215 l 622 469 q 579 514 622 514 l 403 514 q 354 497 372 514 q 336 447 336 479 l 336 215 l 579 215 m 592 819 l 349 819 l 460 1046 l 765 1046 l 592 819 z "},"þ":{"ha":951,"x_min":94,"x_max":878,"o":"m 94 -236 l 94 965 l 343 965 l 343 715 l 683 715 q 822 660 767 715 q 878 521 878 604 l 878 194 q 822 56 878 111 q 683 0 767 0 l 343 0 l 343 -236 l 94 -236 m 586 215 q 629 260 629 215 l 629 456 q 586 500 629 500 l 343 500 l 343 215 l 586 215 z "},"ŕ":{"ha":681,"x_min":88,"x_max":649,"o":"m 88 0 l 88 715 l 267 715 l 303 629 l 310 629 q 370 699 326 668 q 472 729 414 729 l 649 729 l 649 497 l 392 497 q 336 442 336 497 l 336 0 l 88 0 m 471 819 l 228 819 l 339 1046 l 644 1046 l 471 819 z "},"ř":{"ha":681,"x_min":67,"x_max":678,"o":"m 88 0 l 88 715 l 267 715 l 303 629 l 310 629 q 370 699 326 668 q 472 729 414 729 l 649 729 l 649 497 l 392 497 q 336 442 336 497 l 336 0 l 88 0 m 508 819 l 236 819 l 67 1046 l 300 1046 l 368 951 l 376 951 l 444 1046 l 678 1046 l 508 819 z "},"ŗ":{"ha":681,"x_min":88,"x_max":649,"o":"m 88 0 l 88 715 l 267 715 l 303 629 l 310 629 q 370 699 326 668 q 472 729 414 729 l 649 729 l 649 497 l 392 497 q 336 442 336 497 l 336 0 l 88 0 m 228 -399 l 97 -399 l 97 -86 l 326 -86 l 326 -243 l 228 -399 z "},"ś":{"ha":824,"x_min":60,"x_max":774,"o":"m 60 0 l 60 197 l 482 197 q 508 203 499 197 q 517 219 517 210 l 517 229 q 508 243 517 235 q 485 254 499 251 l 215 303 q 103 363 147 315 q 60 469 60 410 l 60 544 q 110 665 60 615 q 232 715 160 715 l 746 715 l 746 586 l 683 518 l 351 518 q 317 497 317 518 l 317 488 q 349 461 317 467 l 618 413 q 730 353 686 400 q 774 246 774 306 l 774 171 q 724 50 774 100 q 601 0 674 0 l 60 0 m 519 819 l 276 819 l 388 1046 l 693 1046 l 519 819 z "},"š":{"ha":824,"x_min":60,"x_max":774,"o":"m 60 0 l 60 197 l 482 197 q 508 203 499 197 q 517 219 517 210 l 517 229 q 508 243 517 235 q 485 254 499 251 l 215 303 q 103 363 147 315 q 60 469 60 410 l 60 544 q 110 665 60 615 q 232 715 160 715 l 746 715 l 746 586 l 683 518 l 351 518 q 317 497 317 518 l 317 488 q 349 461 317 467 l 618 413 q 730 353 686 400 q 774 246 774 306 l 774 171 q 724 50 774 100 q 601 0 674 0 l 60 0 m 557 819 l 285 819 l 115 1046 l 349 1046 l 417 951 l 425 951 l 493 1046 l 726 1046 l 557 819 z "},"ş":{"ha":824,"x_min":60,"x_max":774,"o":"m 618 413 q 730 353 686 400 q 774 246 774 306 l 774 171 q 724 50 774 100 q 601 0 674 0 l 442 0 l 431 -49 l 492 -49 q 577 -82 544 -49 q 610 -167 610 -115 l 610 -222 q 577 -307 610 -274 q 492 -340 544 -340 l 239 -340 l 239 -219 l 422 -219 q 440 -214 433 -219 q 447 -199 447 -208 l 447 -190 q 440 -175 447 -181 q 422 -169 433 -169 l 306 -169 l 253 -121 l 281 0 l 60 0 l 60 197 l 482 197 q 508 203 499 197 q 517 219 517 210 l 517 229 q 508 243 517 235 q 485 254 499 251 l 215 303 q 103 363 147 315 q 60 469 60 410 l 60 544 q 110 665 60 615 q 232 715 160 715 l 746 715 l 746 586 l 683 518 l 351 518 q 317 497 317 518 l 317 488 q 349 461 317 467 l 618 413 z "},"ŝ":{"ha":824,"x_min":60,"x_max":774,"o":"m 60 0 l 60 197 l 482 197 q 508 203 499 197 q 517 219 517 210 l 517 229 q 508 243 517 235 q 485 254 499 251 l 215 303 q 103 363 147 315 q 60 469 60 410 l 60 544 q 110 665 60 615 q 232 715 160 715 l 746 715 l 746 586 l 683 518 l 351 518 q 317 497 317 518 l 317 488 q 349 461 317 467 l 618 413 q 730 353 686 400 q 774 246 774 306 l 774 171 q 724 50 774 100 q 601 0 674 0 l 60 0 m 349 819 l 115 819 l 285 1046 l 557 1046 l 726 819 l 493 819 l 425 914 l 417 914 l 349 819 z "},"ș":{"ha":824,"x_min":60,"x_max":774,"o":"m 60 0 l 60 197 l 482 197 q 508 203 499 197 q 517 219 517 210 l 517 229 q 508 243 517 235 q 485 254 499 251 l 215 303 q 103 363 147 315 q 60 469 60 410 l 60 544 q 110 665 60 615 q 232 715 160 715 l 746 715 l 746 586 l 683 518 l 351 518 q 317 497 317 518 l 317 488 q 349 461 317 467 l 618 413 q 730 353 686 400 q 774 246 774 306 l 774 171 q 724 50 774 100 q 601 0 674 0 l 60 0 m 407 -399 l 276 -399 l 276 -86 l 506 -86 l 506 -243 l 407 -399 z "},"ß":{"ha":989,"x_min":94,"x_max":938,"o":"m 94 794 q 119 887 94 844 q 188 954 144 929 q 281 979 231 979 l 632 979 q 724 954 682 979 q 792 887 767 929 q 817 794 817 844 l 817 704 q 796 613 817 643 q 738 554 775 582 q 724 544 735 553 q 709 529 714 536 q 704 514 704 522 q 721 490 704 500 q 772 467 738 481 q 854 428 821 447 q 913 374 888 408 q 938 288 938 339 l 938 181 q 913 90 938 132 q 847 24 889 49 q 757 0 806 0 l 475 0 l 475 197 l 656 197 q 681 206 671 197 q 690 225 690 214 l 690 247 q 672 276 690 263 q 613 311 653 290 q 510 378 546 347 q 475 454 475 408 l 475 556 q 490 605 475 585 q 535 650 506 625 q 568 682 557 668 q 579 713 579 696 l 579 746 q 568 772 579 761 q 539 782 557 782 l 386 782 q 343 739 343 782 l 343 0 l 94 0 l 94 794 z "},"ŧ":{"ha":690,"x_min":35,"x_max":628,"o":"m 628 215 l 628 0 l 340 0 q 201 56 257 0 q 146 194 146 111 l 146 314 l 38 314 l 38 456 l 146 456 l 146 510 l 35 510 l 35 715 l 157 715 l 240 903 l 393 903 l 393 715 l 611 715 l 611 576 l 549 510 l 393 510 l 393 456 l 574 456 l 574 314 l 393 314 l 393 260 q 405 226 393 238 q 438 215 417 215 l 628 215 z "},"ť":{"ha":690,"x_min":35,"x_max":725,"o":"m 340 0 q 201 56 257 0 q 146 194 146 111 l 146 510 l 35 510 l 35 715 l 157 715 l 240 903 l 393 903 l 393 715 l 611 715 l 611 576 l 549 510 l 393 510 l 393 260 q 405 226 393 238 q 438 215 417 215 l 628 215 l 628 0 l 340 0 m 626 768 l 496 768 l 496 1060 l 725 1060 l 725 935 l 626 768 z "},"ţ":{"ha":690,"x_min":35,"x_max":628,"o":"m 628 0 l 443 0 l 432 -49 l 493 -49 q 578 -82 546 -49 q 611 -167 611 -115 l 611 -222 q 578 -307 611 -274 q 493 -340 546 -340 l 240 -340 l 240 -219 l 424 -219 q 442 -214 435 -219 q 449 -199 449 -208 l 449 -190 q 442 -175 449 -181 q 424 -169 435 -169 l 307 -169 l 254 -121 l 285 7 q 184 76 222 25 q 146 194 146 126 l 146 510 l 35 510 l 35 715 l 157 715 l 240 903 l 393 903 l 393 715 l 611 715 l 611 576 l 549 510 l 393 510 l 393 260 q 405 226 393 238 q 438 215 417 215 l 628 215 l 628 0 z "},"ț":{"ha":690,"x_min":35,"x_max":628,"o":"m 340 0 q 201 56 257 0 q 146 194 146 111 l 146 510 l 35 510 l 35 715 l 157 715 l 240 903 l 393 903 l 393 715 l 611 715 l 611 576 l 549 510 l 393 510 l 393 260 q 405 226 393 238 q 438 215 417 215 l 628 215 l 628 0 l 340 0 m 408 -399 l 278 -399 l 278 -86 l 507 -86 l 507 -243 l 408 -399 z "},"ú":{"ha":935,"x_min":88,"x_max":847,"o":"m 282 -14 q 143 42 199 -14 q 88 181 88 97 l 88 715 l 336 715 l 336 246 q 379 201 336 201 l 532 201 q 582 219 564 201 q 600 268 600 238 l 600 715 l 847 715 l 847 0 l 669 0 l 632 86 l 625 86 q 559 14 604 42 q 463 -14 514 -14 l 282 -14 m 565 819 l 322 819 l 433 1046 l 739 1046 l 565 819 z "},"ʉ":{"ha":963,"x_min":10,"x_max":954,"o":"m 954 543 l 954 346 l 861 346 l 861 0 l 683 0 l 646 86 l 639 86 q 573 14 618 42 q 476 -14 528 -14 l 296 -14 q 157 42 213 -14 q 101 181 101 97 l 101 346 l 10 346 l 10 543 l 101 543 l 101 715 l 350 715 l 350 543 l 614 543 l 614 715 l 861 715 l 861 543 l 954 543 m 614 346 l 350 346 l 350 246 q 393 201 350 201 l 546 201 q 596 219 578 201 q 614 268 614 238 l 614 346 z "},"ŭ":{"ha":935,"x_min":88,"x_max":847,"o":"m 282 -14 q 143 42 199 -14 q 88 181 88 97 l 88 715 l 336 715 l 336 246 q 379 201 336 201 l 532 201 q 582 219 564 201 q 600 268 600 238 l 600 715 l 847 715 l 847 0 l 669 0 l 632 86 l 625 86 q 559 14 604 42 q 463 -14 514 -14 l 282 -14 m 292 819 q 210 853 243 819 q 176 935 176 888 l 176 1046 l 385 1046 l 385 1000 q 415 969 385 969 l 521 969 q 551 1000 551 969 l 551 1046 l 760 1046 l 760 935 q 726 853 760 888 q 644 819 692 819 l 292 819 z "},"û":{"ha":935,"x_min":88,"x_max":847,"o":"m 282 -14 q 143 42 199 -14 q 88 181 88 97 l 88 715 l 336 715 l 336 246 q 379 201 336 201 l 532 201 q 582 219 564 201 q 600 268 600 238 l 600 715 l 847 715 l 847 0 l 669 0 l 632 86 l 625 86 q 559 14 604 42 q 463 -14 514 -14 l 282 -14 m 396 819 l 163 819 l 332 1046 l 604 1046 l 774 819 l 540 819 l 472 914 l 464 914 l 396 819 z "},"ü":{"ha":935,"x_min":88,"x_max":847,"o":"m 282 -14 q 143 42 199 -14 q 88 181 88 97 l 88 715 l 336 715 l 336 246 q 379 201 336 201 l 532 201 q 582 219 564 201 q 600 268 600 238 l 600 715 l 847 715 l 847 0 l 669 0 l 632 86 l 625 86 q 559 14 604 42 q 463 -14 514 -14 l 282 -14 m 415 824 l 176 824 l 176 1039 l 415 1039 l 415 824 m 760 824 l 521 824 l 521 1039 l 760 1039 l 760 824 z "},"ù":{"ha":935,"x_min":88,"x_max":847,"o":"m 282 -14 q 143 42 199 -14 q 88 181 88 97 l 88 715 l 336 715 l 336 246 q 379 201 336 201 l 532 201 q 582 219 564 201 q 600 268 600 238 l 600 715 l 847 715 l 847 0 l 669 0 l 632 86 l 625 86 q 559 14 604 42 q 463 -14 514 -14 l 282 -14 m 613 819 l 369 819 l 196 1046 l 501 1046 l 613 819 z "},"ű":{"ha":935,"x_min":88,"x_max":864,"o":"m 282 -14 q 143 42 199 -14 q 88 181 88 97 l 88 715 l 336 715 l 336 246 q 379 201 336 201 l 532 201 q 582 219 564 201 q 600 268 600 238 l 600 715 l 847 715 l 847 0 l 669 0 l 632 86 l 625 86 q 559 14 604 42 q 463 -14 514 -14 l 282 -14 m 382 819 l 181 819 l 292 1046 l 539 1046 l 382 819 m 706 819 l 504 819 l 615 1046 l 864 1046 l 706 819 z "},"ū":{"ha":935,"x_min":88,"x_max":847,"o":"m 282 -14 q 143 42 199 -14 q 88 181 88 97 l 88 715 l 336 715 l 336 246 q 379 201 336 201 l 532 201 q 582 219 564 201 q 600 268 600 238 l 600 715 l 847 715 l 847 0 l 669 0 l 632 86 l 625 86 q 559 14 604 42 q 463 -14 514 -14 l 282 -14 m 732 843 l 204 843 l 204 1024 l 732 1024 l 732 843 z "},"ų":{"ha":935,"x_min":88,"x_max":847,"o":"m 847 0 q 733 -81 772 -44 q 694 -149 694 -117 q 732 -185 694 -185 l 847 -185 l 847 -326 l 678 -326 q 558 -290 599 -326 q 518 -190 518 -254 q 564 -85 518 -135 q 675 0 610 -36 l 669 0 l 632 86 l 625 86 q 559 14 604 42 q 463 -14 514 -14 l 282 -14 q 143 42 199 -14 q 88 181 88 97 l 88 715 l 336 715 l 336 246 q 379 201 336 201 l 532 201 q 582 219 564 201 q 600 268 600 238 l 600 715 l 847 715 l 847 0 z "},"ů":{"ha":935,"x_min":88,"x_max":847,"o":"m 282 -14 q 143 42 199 -14 q 88 181 88 97 l 88 715 l 336 715 l 336 246 q 379 201 336 201 l 532 201 q 582 219 564 201 q 600 268 600 238 l 600 715 l 847 715 l 847 0 l 669 0 l 632 86 l 625 86 q 559 14 604 42 q 463 -14 514 -14 l 282 -14 m 400 778 q 309 817 347 778 q 271 907 271 856 l 271 965 q 309 1056 271 1018 q 400 1094 347 1094 l 535 1094 q 625 1056 586 1094 q 664 965 664 1018 l 664 907 q 625 817 664 856 q 535 778 586 778 l 400 778 m 490 899 q 509 906 501 899 q 517 924 517 913 l 517 949 q 509 967 517 960 q 490 975 501 975 l 444 975 q 426 967 433 975 q 419 949 419 960 l 419 924 q 426 906 419 914 q 444 899 433 899 l 490 899 z "},"ũ":{"ha":935,"x_min":88,"x_max":847,"o":"m 282 -14 q 143 42 199 -14 q 88 181 88 97 l 88 715 l 336 715 l 336 246 q 379 201 336 201 l 532 201 q 582 219 564 201 q 600 268 600 238 l 600 715 l 847 715 l 847 0 l 669 0 l 632 86 l 625 86 q 559 14 604 42 q 463 -14 514 -14 l 282 -14 m 615 813 q 535 824 571 813 q 456 854 500 835 q 389 876 408 876 q 372 860 372 876 l 372 819 l 208 819 l 208 951 q 237 1024 208 997 q 319 1051 265 1051 q 399 1040 364 1051 q 479 1010 435 1029 q 546 988 526 988 q 563 1004 563 988 l 563 1044 l 726 1044 l 726 911 q 698 840 726 867 q 615 813 669 813 z "},"ǔ":{"ha":935,"x_min":88,"x_max":847,"o":"m 282 -14 q 143 42 199 -14 q 88 181 88 97 l 88 715 l 336 715 l 336 246 q 379 201 336 201 l 532 201 q 582 219 564 201 q 600 268 600 238 l 600 715 l 847 715 l 847 0 l 669 0 l 632 86 l 625 86 q 559 14 604 42 q 463 -14 514 -14 l 282 -14 m 604 819 l 332 819 l 163 1046 l 396 1046 l 464 951 l 472 951 l 540 1046 l 774 1046 l 604 819 z "},"ẃ":{"ha":1219,"x_min":38,"x_max":1183,"o":"m 482 0 l 213 0 l 38 604 l 38 715 l 292 715 l 365 296 l 378 296 l 504 715 l 715 715 l 843 296 l 854 296 l 928 715 l 1183 715 l 1183 604 l 1007 0 l 739 0 l 615 396 l 604 396 l 482 0 m 708 819 l 465 819 l 576 1046 l 882 1046 l 708 819 z "},"ŵ":{"ha":1219,"x_min":38,"x_max":1183,"o":"m 482 0 l 213 0 l 38 604 l 38 715 l 292 715 l 365 296 l 378 296 l 504 715 l 715 715 l 843 296 l 854 296 l 928 715 l 1183 715 l 1183 604 l 1007 0 l 739 0 l 615 396 l 604 396 l 482 0 m 538 819 l 304 819 l 474 1046 l 746 1046 l 915 819 l 682 819 l 614 914 l 606 914 l 538 819 z "},"ẅ":{"ha":1219,"x_min":38,"x_max":1183,"o":"m 482 0 l 213 0 l 38 604 l 38 715 l 292 715 l 365 296 l 378 296 l 504 715 l 715 715 l 843 296 l 854 296 l 928 715 l 1183 715 l 1183 604 l 1007 0 l 739 0 l 615 396 l 604 396 l 482 0 m 557 824 l 318 824 l 318 1039 l 557 1039 l 557 824 m 901 824 l 663 824 l 663 1039 l 901 1039 l 901 824 z "},"ẁ":{"ha":1219,"x_min":38,"x_max":1183,"o":"m 482 0 l 213 0 l 38 604 l 38 715 l 292 715 l 365 296 l 378 296 l 504 715 l 715 715 l 843 296 l 854 296 l 928 715 l 1183 715 l 1183 604 l 1007 0 l 739 0 l 615 396 l 604 396 l 482 0 m 756 819 l 513 819 l 339 1046 l 644 1046 l 756 819 z "},"ẍ":{"ha":868,"x_min":42,"x_max":826,"o":"m 275 0 l 42 0 l 42 111 l 246 354 l 56 604 l 56 715 l 292 715 l 428 489 l 440 489 l 576 715 l 813 715 l 813 604 l 622 368 l 826 111 l 826 0 l 593 0 l 440 219 l 428 219 l 275 0 m 382 824 l 143 824 l 143 1039 l 382 1039 l 382 824 m 726 824 l 488 824 l 488 1039 l 726 1039 l 726 824 z "},"ý":{"ha":851,"x_min":31,"x_max":822,"o":"m 586 715 l 822 715 l 822 604 l 585 -25 q 483 -183 546 -129 q 315 -236 421 -236 l 94 -236 l 94 -17 l 244 -17 q 289 19 278 -17 l 289 21 l 31 604 l 31 715 l 271 715 l 438 271 l 449 271 l 586 715 m 528 819 l 285 819 l 396 1046 l 701 1046 l 528 819 z "},"ŷ":{"ha":851,"x_min":31,"x_max":822,"o":"m 586 715 l 822 715 l 822 604 l 585 -25 q 483 -183 546 -129 q 315 -236 421 -236 l 94 -236 l 94 -17 l 244 -17 q 289 19 278 -17 l 289 21 l 31 604 l 31 715 l 271 715 l 438 271 l 449 271 l 586 715 m 358 819 l 125 819 l 294 1046 l 567 1046 l 736 819 l 503 819 l 435 914 l 426 914 l 358 819 z "},"ÿ":{"ha":851,"x_min":31,"x_max":822,"o":"m 586 715 l 822 715 l 822 604 l 585 -25 q 483 -183 546 -129 q 315 -236 421 -236 l 94 -236 l 94 -17 l 244 -17 q 289 19 278 -17 l 289 21 l 31 604 l 31 715 l 271 715 l 438 271 l 449 271 l 586 715 m 378 824 l 139 824 l 139 1039 l 378 1039 l 378 824 m 722 824 l 483 824 l 483 1039 l 722 1039 l 722 824 z "},"ỳ":{"ha":851,"x_min":31,"x_max":822,"o":"m 586 715 l 822 715 l 822 604 l 585 -25 q 483 -183 546 -129 q 315 -236 421 -236 l 94 -236 l 94 -17 l 244 -17 q 289 19 278 -17 l 289 21 l 31 604 l 31 715 l 271 715 l 438 271 l 449 271 l 586 715 m 575 819 l 332 819 l 158 1046 l 464 1046 l 575 819 z "},"ȳ":{"ha":851,"x_min":31,"x_max":822,"o":"m 586 715 l 822 715 l 822 604 l 585 -25 q 483 -183 546 -129 q 315 -236 421 -236 l 94 -236 l 94 -17 l 244 -17 q 289 19 278 -17 l 289 21 l 31 604 l 31 715 l 271 715 l 438 271 l 449 271 l 586 715 m 694 843 l 167 843 l 167 1024 l 694 1024 l 694 843 z "},"ỹ":{"ha":851,"x_min":31,"x_max":822,"o":"m 586 715 l 822 715 l 822 604 l 585 -25 q 483 -183 546 -129 q 315 -236 421 -236 l 94 -236 l 94 -17 l 244 -17 q 289 19 278 -17 l 289 21 l 31 604 l 31 715 l 271 715 l 438 271 l 449 271 l 586 715 m 578 813 q 498 824 533 813 q 418 854 463 835 q 351 876 371 876 q 335 860 335 876 l 335 819 l 171 819 l 171 951 q 199 1024 171 997 q 282 1051 228 1051 q 362 1040 326 1051 q 442 1010 397 1029 q 508 988 489 988 q 525 1004 525 988 l 525 1044 l 689 1044 l 689 911 q 660 840 689 867 q 578 813 632 813 z "},"ź":{"ha":806,"x_min":53,"x_max":750,"o":"m 750 0 l 53 0 l 53 192 l 393 497 l 393 510 l 118 510 l 56 576 l 56 715 l 750 715 l 750 524 l 410 218 l 410 206 l 750 206 l 750 0 m 504 819 l 261 819 l 372 1046 l 678 1046 l 504 819 z "},"ž":{"ha":806,"x_min":53,"x_max":750,"o":"m 750 0 l 53 0 l 53 192 l 393 497 l 393 510 l 118 510 l 56 576 l 56 715 l 750 715 l 750 524 l 410 218 l 410 206 l 750 206 l 750 0 m 542 819 l 269 819 l 100 1046 l 333 1046 l 401 951 l 410 951 l 478 1046 l 711 1046 l 542 819 z "},"ż":{"ha":806,"x_min":53,"x_max":750,"o":"m 750 0 l 53 0 l 53 192 l 393 497 l 393 510 l 118 510 l 56 576 l 56 715 l 750 715 l 750 524 l 410 218 l 410 206 l 750 206 l 750 0 m 529 824 l 282 824 l 282 1039 l 529 1039 l 529 824 z "},"ﬁ":{"ha":1038,"x_min":94,"x_max":942,"o":"m 94 785 q 150 924 94 868 q 289 979 206 979 l 921 979 l 921 774 l 386 774 q 354 762 365 774 q 343 729 343 750 l 343 646 l 942 646 l 942 0 l 694 0 l 694 440 l 343 440 l 343 0 l 94 0 l 94 785 z "},"ﬂ":{"ha":1038,"x_min":94,"x_max":942,"o":"m 94 785 q 150 924 94 868 q 289 979 206 979 l 942 979 l 942 0 l 694 0 l 694 774 l 386 774 q 354 762 365 774 q 343 729 343 750 l 343 646 l 588 646 l 588 517 l 544 440 l 343 440 l 343 0 l 94 0 l 94 785 z "},"А":{"ha":1111,"x_min":18,"x_max":1093,"o":"m 385 972 l 726 972 l 1093 128 l 1093 0 l 840 0 l 779 167 l 332 167 l 271 0 l 18 0 l 18 128 l 385 972 m 549 750 l 414 385 l 697 385 l 563 750 l 549 750 z "},"Б":{"ha":1115,"x_min":107,"x_max":1053,"o":"m 107 0 l 107 972 l 983 972 l 983 819 l 900 736 l 368 736 l 368 604 l 822 604 q 990 541 928 604 q 1053 372 1053 478 l 1053 232 q 990 63 1053 126 q 822 0 928 0 l 107 0 m 743 218 q 779 231 767 218 q 792 267 792 244 l 792 347 q 779 383 792 371 q 743 396 767 396 l 368 396 l 368 218 l 743 218 z "},"В":{"ha":1139,"x_min":107,"x_max":1069,"o":"m 107 0 l 107 972 l 810 972 q 979 910 917 972 q 1042 740 1042 847 l 1042 713 q 1001 577 1042 629 q 910 514 960 525 l 910 503 q 984 473 947 497 q 1045 405 1021 449 q 1069 299 1069 361 l 1069 232 q 1007 63 1069 126 q 838 0 944 0 l 107 0 m 722 604 q 758 617 746 604 q 771 653 771 631 l 771 706 q 758 742 771 729 q 722 754 746 754 l 368 754 l 368 604 l 722 604 m 750 218 q 786 231 774 218 q 799 267 799 244 l 799 338 q 786 374 799 361 q 750 386 774 386 l 368 386 l 368 218 l 750 218 z "},"Г":{"ha":951,"x_min":107,"x_max":924,"o":"m 368 0 l 107 0 l 107 972 l 924 972 l 924 819 l 840 736 l 368 736 l 368 0 z "},"Д":{"ha":1192,"x_min":4,"x_max":1167,"o":"m 4 -174 l 4 236 l 76 236 q 123 285 100 251 q 153 371 146 319 l 235 972 l 1056 972 l 1056 236 l 1167 236 l 1167 -174 l 906 -174 l 906 0 l 267 0 l 267 -174 l 4 -174 m 351 236 l 794 236 l 794 736 l 463 736 l 414 371 q 389 289 407 321 q 351 249 371 257 l 351 236 z "},"Е":{"ha":1035,"x_min":107,"x_max":972,"o":"m 972 0 l 107 0 l 107 972 l 972 972 l 972 829 l 889 746 l 368 746 l 368 597 l 815 597 l 815 379 l 368 379 l 368 226 l 972 226 l 972 0 z "},"Ё":{"ha":1035,"x_min":107,"x_max":972,"o":"m 972 0 l 107 0 l 107 972 l 972 972 l 972 829 l 889 746 l 368 746 l 368 597 l 815 597 l 815 379 l 368 379 l 368 226 l 972 226 l 972 0 m 489 1074 l 250 1074 l 250 1289 l 489 1289 l 489 1074 m 833 1074 l 594 1074 l 594 1289 l 833 1289 l 833 1074 z "},"Ж":{"ha":1675,"x_min":49,"x_max":1626,"o":"m 286 0 l 49 0 l 49 128 l 303 511 l 67 844 l 67 972 l 297 972 l 535 608 l 707 608 l 707 972 l 968 972 l 968 608 l 1140 608 l 1376 972 l 1607 972 l 1607 844 l 1371 511 l 1626 128 l 1626 0 l 1389 0 l 1147 371 l 968 371 l 968 0 l 707 0 l 707 371 l 526 371 l 286 0 z "},"З":{"ha":1046,"x_min":56,"x_max":976,"o":"m 56 0 l 56 226 l 657 226 q 693 240 681 226 q 706 275 706 253 l 706 333 q 693 369 706 357 q 657 382 681 382 l 264 382 l 264 600 l 643 600 q 679 613 667 600 q 692 649 692 626 l 692 697 q 679 733 692 721 q 643 746 667 746 l 142 746 l 58 829 l 58 972 l 732 972 q 900 909 838 972 q 963 740 963 846 l 963 713 q 918 577 963 629 q 818 514 874 525 l 818 501 q 928 441 879 493 q 976 299 976 389 l 976 232 q 914 63 976 126 q 746 0 851 0 l 56 0 z "},"И":{"ha":1211,"x_min":107,"x_max":1104,"o":"m 372 0 l 107 0 l 107 972 l 368 972 l 368 549 l 349 358 l 360 358 l 838 972 l 1104 972 l 1104 0 l 843 0 l 843 424 l 863 614 l 850 614 l 372 0 z "},"Й":{"ha":1211,"x_min":107,"x_max":1104,"o":"m 372 0 l 107 0 l 107 972 l 368 972 l 368 549 l 349 358 l 360 358 l 838 972 l 1104 972 l 1104 0 l 843 0 l 843 424 l 863 614 l 850 614 l 372 0 m 414 1069 q 332 1103 365 1069 q 299 1185 299 1138 l 299 1310 l 507 1310 l 507 1250 q 538 1219 507 1219 l 674 1219 q 704 1250 704 1219 l 704 1310 l 913 1310 l 913 1185 q 878 1103 913 1136 q 796 1069 844 1069 l 414 1069 z "},"К":{"ha":1139,"x_min":107,"x_max":1090,"o":"m 368 0 l 107 0 l 107 972 l 368 972 l 368 608 l 604 608 l 842 972 l 1072 972 l 1072 844 l 836 511 l 1090 128 l 1090 0 l 853 0 l 613 371 l 368 371 l 368 0 z "},"Л":{"ha":1185,"x_min":7,"x_max":1079,"o":"m 7 -14 l 7 222 l 113 222 q 160 271 153 222 l 253 972 l 1079 972 l 1079 0 l 817 0 l 817 736 l 483 736 l 414 211 q 335 47 400 107 q 171 -14 271 -14 l 7 -14 z "},"М":{"ha":1419,"x_min":60,"x_max":1358,"o":"m 322 0 l 60 0 l 60 128 l 163 972 l 461 972 l 704 458 l 715 458 l 958 972 l 1257 972 l 1358 128 l 1358 0 l 1097 0 l 1050 601 l 1038 601 l 817 139 l 601 139 l 381 601 l 369 601 l 322 0 z "},"Н":{"ha":1199,"x_min":107,"x_max":1093,"o":"m 368 0 l 107 0 l 107 972 l 368 972 l 368 608 l 831 608 l 831 972 l 1093 972 l 1093 0 l 831 0 l 831 371 l 368 371 l 368 0 z "},"О":{"ha":1176,"x_min":90,"x_max":1086,"o":"m 322 -14 q 153 49 217 -14 q 90 218 90 113 l 90 754 q 153 924 90 861 q 322 986 217 986 l 854 986 q 1024 924 961 986 q 1086 754 1086 861 l 1086 218 q 1024 49 1086 113 q 854 -14 961 -14 l 322 -14 m 775 218 q 811 231 799 218 q 824 267 824 244 l 824 706 q 811 742 824 729 q 775 754 799 754 l 400 754 q 365 742 378 754 q 351 706 351 729 l 351 267 q 365 231 351 244 q 400 218 378 218 l 775 218 z "},"П":{"ha":1185,"x_min":107,"x_max":1079,"o":"m 368 0 l 107 0 l 107 972 l 1079 972 l 1079 0 l 817 0 l 817 736 l 368 736 l 368 0 z "},"Р":{"ha":1132,"x_min":107,"x_max":1056,"o":"m 107 0 l 107 972 l 824 972 q 993 910 931 972 q 1056 740 1056 847 l 1056 510 q 993 341 1056 404 q 824 278 931 278 l 368 278 l 368 0 l 107 0 m 746 504 q 782 517 769 504 q 794 553 794 531 l 794 697 q 782 733 794 721 q 746 746 769 746 l 368 746 l 368 504 l 746 504 z "},"С":{"ha":1044,"x_min":90,"x_max":982,"o":"m 322 0 q 153 63 217 0 q 90 232 90 126 l 90 740 q 153 910 90 847 q 322 972 217 972 l 982 972 l 982 819 l 899 736 l 400 736 q 365 724 378 736 q 351 688 351 711 l 351 285 q 365 249 351 263 q 400 236 378 236 l 982 236 l 982 0 l 322 0 z "},"Т":{"ha":1035,"x_min":28,"x_max":1007,"o":"m 649 0 l 386 0 l 386 736 l 28 736 l 28 972 l 1007 972 l 1007 819 l 924 736 l 649 736 l 649 0 z "},"У":{"ha":1069,"x_min":38,"x_max":1046,"o":"m 799 972 l 1046 972 l 1046 844 l 726 222 q 590 47 667 107 q 389 -14 513 -14 l 156 -14 l 156 213 l 339 213 q 369 218 358 213 q 390 238 381 224 l 403 256 l 38 844 l 38 972 l 294 972 l 560 479 l 574 479 l 799 972 z "},"Ф":{"ha":1469,"x_min":76,"x_max":1393,"o":"m 604 -31 l 604 69 l 308 69 q 140 133 203 69 q 76 301 76 196 l 76 685 q 140 854 76 792 q 308 917 203 917 l 604 917 l 604 1017 l 865 1017 l 865 917 l 1163 917 q 1331 853 1268 917 q 1393 685 1393 790 l 1393 301 q 1331 133 1393 196 q 1163 69 1268 69 l 865 69 l 865 -31 l 604 -31 m 604 292 l 604 694 l 386 694 q 351 682 364 694 q 338 646 338 669 l 338 340 q 351 305 338 318 q 386 292 364 292 l 604 292 m 1083 292 q 1119 305 1107 292 q 1132 340 1132 318 l 1132 646 q 1119 682 1132 669 q 1083 694 1107 694 l 865 694 l 865 292 l 1083 292 z "},"Х":{"ha":1097,"x_min":44,"x_max":1053,"o":"m 292 0 l 44 0 l 44 128 l 343 482 l 67 844 l 67 972 l 315 972 l 542 650 l 556 650 l 782 972 l 1031 972 l 1031 844 l 754 493 l 1053 128 l 1053 0 l 806 0 l 556 324 l 542 324 l 292 0 z "},"Ц":{"ha":1213,"x_min":107,"x_max":1188,"o":"m 1188 -174 l 926 -174 l 926 0 l 107 0 l 107 972 l 368 972 l 368 236 l 815 236 l 815 972 l 1076 972 l 1076 236 l 1188 236 l 1188 -174 z "},"Ч":{"ha":1142,"x_min":76,"x_max":1035,"o":"m 774 0 l 774 306 l 308 306 q 140 369 203 306 q 76 538 76 432 l 76 972 l 338 972 l 338 590 q 351 555 338 568 q 386 542 364 542 l 774 542 l 774 972 l 1035 972 l 1035 0 l 774 0 z "},"Ш":{"ha":1650,"x_min":107,"x_max":1544,"o":"m 1544 0 l 107 0 l 107 972 l 368 972 l 368 236 l 694 236 l 694 972 l 956 972 l 956 236 l 1282 236 l 1282 972 l 1544 972 l 1544 0 z "},"Щ":{"ha":1681,"x_min":107,"x_max":1656,"o":"m 1656 -174 l 1393 -174 l 1393 0 l 107 0 l 107 972 l 368 972 l 368 236 l 694 236 l 694 972 l 956 972 l 956 236 l 1282 236 l 1282 972 l 1544 972 l 1544 236 l 1656 236 l 1656 -174 z "},"Ъ":{"ha":1240,"x_min":14,"x_max":1163,"o":"m 218 0 l 218 746 l 14 746 l 14 972 l 479 972 l 479 667 l 931 667 q 1100 604 1038 667 q 1163 435 1163 542 l 1163 232 q 1100 63 1163 126 q 931 0 1038 0 l 218 0 m 851 226 q 888 240 875 226 q 900 275 900 253 l 900 392 q 888 428 900 415 q 851 440 875 440 l 479 440 l 479 226 l 851 226 z "},"Ы":{"ha":1551,"x_min":107,"x_max":1444,"o":"m 107 0 l 107 972 l 368 972 l 368 667 l 819 667 q 989 604 926 667 q 1051 435 1051 542 l 1051 232 q 989 63 1051 126 q 819 0 926 0 l 107 0 m 1444 0 l 1183 0 l 1183 972 l 1444 972 l 1444 0 m 740 226 q 776 240 764 226 q 789 275 789 253 l 789 392 q 776 428 789 415 q 740 440 764 440 l 368 440 l 368 226 l 740 226 z "},"Ь":{"ha":1153,"x_min":107,"x_max":1074,"o":"m 107 0 l 107 972 l 368 972 l 368 667 l 843 667 q 1011 603 949 667 q 1074 435 1074 540 l 1074 232 q 1011 63 1074 126 q 843 0 949 0 l 107 0 m 764 226 q 800 240 788 226 q 813 275 813 253 l 813 392 q 800 428 813 415 q 764 440 788 440 l 368 440 l 368 226 l 764 226 z "},"Э":{"ha":1038,"x_min":56,"x_max":947,"o":"m 56 0 l 56 226 l 636 226 q 672 240 660 226 q 685 275 685 253 l 685 379 l 274 379 l 274 597 l 685 597 l 685 697 q 672 733 685 721 q 636 746 660 746 l 139 746 l 56 829 l 56 972 l 715 972 q 885 910 822 972 q 947 740 947 847 l 947 232 q 885 63 947 126 q 715 0 822 0 l 56 0 z "},"Ю":{"ha":1593,"x_min":107,"x_max":1503,"o":"m 803 -14 q 635 49 697 -14 q 572 218 572 113 l 572 368 l 368 368 l 368 0 l 107 0 l 107 972 l 368 972 l 368 607 l 572 607 l 572 754 q 635 923 572 860 q 803 986 697 986 l 1271 986 q 1440 924 1378 986 q 1503 754 1503 861 l 1503 218 q 1440 49 1503 113 q 1271 -14 1378 -14 l 803 -14 m 1192 218 q 1228 231 1215 218 q 1240 267 1240 244 l 1240 706 q 1228 742 1240 729 q 1192 754 1215 754 l 882 754 q 847 742 860 754 q 833 706 833 729 l 833 267 q 847 231 833 244 q 882 218 860 218 l 1192 218 z "},"Я":{"ha":1139,"x_min":67,"x_max":1032,"o":"m 67 0 l 67 128 l 268 354 q 185 384 226 360 q 117 454 144 408 q 90 565 90 500 l 90 740 q 153 910 90 847 q 322 972 217 972 l 1032 972 l 1032 0 l 771 0 l 771 333 l 574 333 l 303 0 l 67 0 m 771 560 l 771 746 l 400 746 q 365 733 378 746 q 351 697 351 721 l 351 608 q 365 573 351 586 q 400 560 378 560 l 771 560 z "},"Ѓ":{"ha":951,"x_min":107,"x_max":924,"o":"m 368 0 l 107 0 l 107 972 l 924 972 l 924 819 l 840 736 l 368 736 l 368 0 m 607 1069 l 364 1069 l 475 1296 l 781 1296 l 607 1069 z "},"Ґ":{"ha":951,"x_min":107,"x_max":924,"o":"m 368 0 l 107 0 l 107 972 l 688 972 l 713 1088 l 924 1088 l 924 736 l 368 736 l 368 0 z "},"Ќ":{"ha":1139,"x_min":107,"x_max":1090,"o":"m 368 0 l 107 0 l 107 972 l 368 972 l 368 608 l 604 608 l 842 972 l 1072 972 l 1072 844 l 836 511 l 1090 128 l 1090 0 l 853 0 l 613 371 l 368 371 l 368 0 m 685 1069 l 442 1069 l 553 1296 l 858 1296 l 685 1069 z "},"Є":{"ha":1044,"x_min":90,"x_max":982,"o":"m 322 0 q 153 63 217 0 q 90 232 90 126 l 90 740 q 153 910 90 847 q 322 972 217 972 l 982 972 l 982 829 l 899 746 l 400 746 q 365 733 378 746 q 351 697 351 721 l 351 597 l 764 597 l 764 379 l 351 379 l 351 275 q 365 240 351 253 q 400 226 378 226 l 982 226 l 982 0 l 322 0 z "},"Ѕ":{"ha":1069,"x_min":69,"x_max":1010,"o":"m 69 0 l 69 232 l 690 232 q 726 245 714 232 q 739 281 739 258 l 739 299 q 726 331 739 317 q 694 347 714 344 l 296 403 q 69 636 69 435 l 69 740 q 133 910 69 847 q 301 972 196 972 l 982 972 l 982 824 l 899 740 l 389 740 q 353 728 367 740 q 340 692 340 715 l 340 676 q 352 644 340 657 q 385 628 364 631 l 782 572 q 1010 338 1010 540 l 1010 232 q 947 63 1010 126 q 778 0 885 0 l 69 0 z "},"І":{"ha":475,"x_min":107,"x_max":368,"o":"m 368 0 l 107 0 l 107 972 l 368 972 l 368 0 z "},"Ї":{"ha":475,"x_min":-54,"x_max":529,"o":"m 368 0 l 107 0 l 107 972 l 368 972 l 368 0 m 185 1074 l -54 1074 l -54 1289 l 185 1289 l 185 1074 m 529 1074 l 290 1074 l 290 1289 l 529 1289 l 529 1074 z "},"Ј":{"ha":813,"x_min":35,"x_max":713,"o":"m 35 -14 l 35 222 l 403 222 q 439 235 426 222 q 451 271 451 249 l 451 972 l 713 972 l 713 218 q 650 49 713 113 q 482 -14 588 -14 l 35 -14 z "},"Љ":{"ha":1771,"x_min":7,"x_max":1692,"o":"m 7 -14 l 7 222 l 113 222 q 160 271 153 222 l 253 972 l 1038 972 l 1038 629 l 1461 629 q 1629 567 1567 629 q 1692 399 1692 504 l 1692 232 q 1629 63 1692 126 q 1461 0 1567 0 l 775 0 l 775 736 l 483 736 l 414 211 q 335 47 400 107 q 171 -14 271 -14 l 7 -14 m 1382 226 q 1418 240 1406 226 q 1431 275 1431 253 l 1431 354 q 1418 390 1431 378 q 1382 403 1406 403 l 1038 403 l 1038 226 l 1382 226 z "},"Њ":{"ha":1785,"x_min":107,"x_max":1706,"o":"m 107 0 l 107 972 l 368 972 l 368 629 l 789 629 l 789 972 l 1051 972 l 1051 629 l 1475 629 q 1643 567 1581 629 q 1706 399 1706 504 l 1706 232 q 1643 63 1706 126 q 1475 0 1581 0 l 789 0 l 789 403 l 368 403 l 368 0 l 107 0 m 1396 226 q 1432 240 1419 226 q 1444 275 1444 253 l 1444 354 q 1432 390 1444 378 q 1396 403 1419 403 l 1051 403 l 1051 226 l 1396 226 z "},"Ћ":{"ha":1306,"x_min":14,"x_max":1218,"o":"m 260 0 l 260 746 l 14 746 l 14 972 l 926 972 l 926 829 l 843 746 l 521 746 l 521 618 l 986 618 q 1156 556 1093 618 q 1218 386 1218 493 l 1218 0 l 956 0 l 956 343 q 943 379 956 367 q 907 392 931 392 l 521 392 l 521 0 l 260 0 z "},"Ђ":{"ha":1306,"x_min":14,"x_max":1218,"o":"m 764 -28 l 764 199 l 907 199 q 943 212 931 199 q 956 247 956 225 l 956 343 q 943 379 956 367 q 907 392 931 392 l 521 392 l 521 0 l 260 0 l 260 746 l 14 746 l 14 972 l 926 972 l 926 829 l 843 746 l 521 746 l 521 618 l 986 618 q 1156 556 1093 618 q 1218 386 1218 493 l 1218 204 q 1156 35 1218 99 q 986 -28 1093 -28 l 764 -28 z "},"Ў":{"ha":1069,"x_min":38,"x_max":1046,"o":"m 799 972 l 1046 972 l 1046 844 l 726 222 q 590 47 667 107 q 389 -14 513 -14 l 156 -14 l 156 213 l 339 213 q 369 218 358 213 q 390 238 381 224 l 403 256 l 38 844 l 38 972 l 294 972 l 560 479 l 574 479 l 799 972 m 354 1069 q 272 1103 306 1069 q 239 1185 239 1138 l 239 1310 l 447 1310 l 447 1250 q 478 1219 447 1219 l 614 1219 q 644 1250 644 1219 l 644 1310 l 853 1310 l 853 1185 q 819 1103 853 1136 q 736 1069 785 1069 l 354 1069 z "},"Џ":{"ha":1183,"x_min":107,"x_max":1076,"o":"m 722 -174 l 461 -174 l 461 0 l 107 0 l 107 972 l 368 972 l 368 236 l 815 236 l 815 972 l 1076 972 l 1076 0 l 722 0 l 722 -174 z "},"а":{"ha":886,"x_min":56,"x_max":799,"o":"m 250 -14 q 111 42 167 -14 q 56 181 56 97 l 56 243 q 111 382 56 326 q 250 438 167 438 l 551 438 l 551 483 q 540 517 551 506 q 507 528 528 528 l 121 528 l 121 715 l 604 715 q 743 660 688 715 q 799 521 799 604 l 799 0 l 621 0 l 583 86 l 576 86 q 516 17 560 47 q 414 -14 472 -14 l 250 -14 m 483 174 q 533 192 515 174 q 551 240 551 210 l 551 282 l 343 282 q 303 243 303 282 l 303 213 q 343 174 303 174 l 483 174 z "},"б":{"ha":933,"x_min":88,"x_max":858,"o":"m 282 -14 q 143 42 199 -14 q 88 181 88 97 l 88 682 q 149 848 88 782 q 311 929 210 914 l 799 997 l 829 782 l 381 719 q 349 701 363 718 q 336 664 336 685 l 336 538 l 343 538 q 402 598 360 571 q 503 625 444 625 l 664 625 q 803 569 747 625 q 858 431 858 514 l 858 181 q 803 42 858 97 q 664 -14 747 -14 l 282 -14 m 567 192 q 600 203 589 192 q 611 236 611 215 l 611 365 q 567 410 611 410 l 403 410 q 354 392 372 410 q 336 343 336 375 l 336 236 q 347 203 336 215 q 379 192 358 192 l 567 192 z "},"в":{"ha":907,"x_min":88,"x_max":850,"o":"m 88 0 l 88 715 l 664 715 q 788 667 740 715 q 836 546 836 619 l 836 504 q 809 416 836 451 q 747 371 782 381 l 747 358 q 818 303 786 343 q 850 211 850 264 l 850 169 q 802 47 850 94 q 678 0 754 0 l 88 0 m 544 440 q 573 450 563 440 q 583 475 583 460 l 583 507 q 573 532 583 522 q 544 542 563 542 l 336 542 l 336 440 l 544 440 m 558 174 q 587 183 576 174 q 597 208 597 193 l 597 240 q 587 265 597 256 q 558 275 576 275 l 336 275 l 336 174 l 558 174 z "},"г":{"ha":747,"x_min":88,"x_max":726,"o":"m 336 0 l 88 0 l 88 715 l 726 715 l 726 563 l 664 496 l 336 496 l 336 0 z "},"д":{"ha":949,"x_min":0,"x_max":926,"o":"m 0 -146 l 0 206 l 56 206 q 93 246 75 218 q 115 317 111 274 l 164 715 l 831 715 l 831 206 l 926 206 l 926 -146 l 678 -146 l 678 0 l 247 0 l 247 -146 l 0 -146 m 317 206 l 583 206 l 583 510 l 389 510 l 365 317 q 347 253 361 279 q 317 218 332 226 l 317 206 z "},"е":{"ha":919,"x_min":74,"x_max":844,"o":"m 268 0 q 129 56 185 0 q 74 194 74 111 l 74 535 q 129 674 74 618 q 268 729 185 729 l 650 729 q 789 674 733 729 q 844 535 844 618 l 844 278 l 322 278 l 322 232 q 365 188 322 188 l 813 188 l 813 0 l 268 0 m 322 435 l 597 435 l 597 497 q 553 542 597 542 l 365 542 q 322 497 322 542 l 322 435 z "},"ё":{"ha":919,"x_min":74,"x_max":844,"o":"m 268 0 q 129 56 185 0 q 74 194 74 111 l 74 535 q 129 674 74 618 q 268 729 185 729 l 650 729 q 789 674 733 729 q 844 535 844 618 l 844 278 l 322 278 l 322 232 q 365 188 322 188 l 813 188 l 813 0 l 268 0 m 322 435 l 597 435 l 597 497 q 553 542 597 542 l 365 542 q 322 497 322 542 l 322 435 m 408 824 l 169 824 l 169 1039 l 408 1039 l 408 824 m 753 824 l 514 824 l 514 1039 l 753 1039 l 753 824 z "},"ж":{"ha":1308,"x_min":42,"x_max":1267,"o":"m 271 0 l 42 0 l 42 111 l 218 357 l 56 604 l 56 715 l 278 715 l 431 463 l 531 463 l 531 715 l 778 715 l 778 463 l 878 463 l 1031 715 l 1253 715 l 1253 604 l 1090 365 l 1267 111 l 1267 0 l 1038 0 l 878 257 l 778 257 l 778 0 l 531 0 l 531 257 l 431 257 l 271 0 z "},"з":{"ha":824,"x_min":49,"x_max":767,"o":"m 49 0 l 49 188 l 476 188 q 503 197 493 188 q 514 222 514 207 l 514 236 q 503 261 514 251 q 476 271 493 271 l 222 271 l 222 447 l 463 447 q 490 457 479 447 q 500 482 500 467 l 500 493 q 490 518 500 508 q 463 528 479 528 l 125 528 l 63 594 l 63 715 l 581 715 q 705 667 657 715 q 753 546 753 619 l 753 504 q 726 416 753 451 q 664 371 699 381 l 664 358 q 735 303 703 343 q 767 211 767 264 l 767 169 q 719 47 767 94 q 594 0 671 0 l 49 0 z "},"и":{"ha":972,"x_min":88,"x_max":885,"o":"m 336 0 l 88 0 l 88 715 l 336 715 l 336 472 l 313 313 l 324 313 l 636 715 l 885 715 l 885 0 l 636 0 l 636 243 l 660 403 l 649 403 l 336 0 z "},"й":{"ha":972,"x_min":88,"x_max":885,"o":"m 336 0 l 88 0 l 88 715 l 336 715 l 336 472 l 313 313 l 324 313 l 636 715 l 885 715 l 885 0 l 636 0 l 636 243 l 660 403 l 649 403 l 336 0 m 310 819 q 228 853 261 819 q 194 935 194 888 l 194 1046 l 403 1046 l 403 1000 q 433 969 403 969 l 539 969 q 569 1000 569 969 l 569 1046 l 778 1046 l 778 935 q 744 853 778 888 q 663 819 710 819 l 310 819 z "},"к":{"ha":906,"x_min":88,"x_max":864,"o":"m 336 0 l 88 0 l 88 715 l 336 715 l 336 463 l 469 463 l 628 715 l 850 715 l 850 604 l 683 365 l 864 111 l 864 0 l 635 0 l 469 257 l 336 257 l 336 0 z "},"л":{"ha":949,"x_min":7,"x_max":861,"o":"m 7 -14 l 7 206 l 90 206 q 133 253 128 206 l 192 715 l 861 715 l 861 0 l 614 0 l 614 496 l 417 496 l 379 201 q 310 41 365 96 q 164 -14 254 -14 l 7 -14 z "},"м":{"ha":1136,"x_min":53,"x_max":1083,"o":"m 301 0 l 53 0 l 53 111 l 142 715 l 414 715 l 563 364 l 574 364 l 722 715 l 996 715 l 1083 111 l 1083 0 l 836 0 l 806 410 l 799 410 l 667 97 l 469 97 l 338 410 l 331 410 l 301 0 z "},"н":{"ha":944,"x_min":88,"x_max":857,"o":"m 336 0 l 88 0 l 88 715 l 336 715 l 336 468 l 608 468 l 608 715 l 857 715 l 857 0 l 608 0 l 608 253 l 336 253 l 336 0 z "},"о":{"ha":935,"x_min":74,"x_max":861,"o":"m 268 -14 q 129 42 185 -14 q 74 181 74 97 l 74 535 q 129 674 74 618 q 268 729 185 729 l 667 729 q 806 674 750 729 q 861 535 861 618 l 861 181 q 806 42 861 97 q 667 -14 750 -14 l 268 -14 m 569 197 q 602 208 590 197 q 614 240 614 219 l 614 475 q 602 507 614 496 q 569 518 590 518 l 365 518 q 322 475 322 518 l 322 240 q 365 197 322 197 l 569 197 z "},"п":{"ha":944,"x_min":88,"x_max":857,"o":"m 336 0 l 88 0 l 88 715 l 857 715 l 857 0 l 608 0 l 608 496 l 336 496 l 336 0 z "},"р":{"ha":944,"x_min":88,"x_max":871,"o":"m 88 -236 l 88 715 l 267 715 l 303 629 l 310 629 q 370 699 326 668 q 472 729 414 729 l 676 729 q 815 674 760 729 q 871 535 871 618 l 871 194 q 815 56 871 111 q 676 0 760 0 l 336 0 l 336 -236 l 88 -236 m 579 215 q 622 260 622 215 l 622 469 q 579 514 622 514 l 403 514 q 354 497 372 514 q 336 447 336 479 l 336 215 l 579 215 z "},"с":{"ha":817,"x_min":74,"x_max":761,"o":"m 268 0 q 129 56 185 0 q 74 194 74 111 l 74 521 q 129 660 74 604 q 268 715 185 715 l 761 715 l 761 576 l 690 500 l 365 500 q 322 456 322 500 l 322 260 q 365 215 322 215 l 761 215 l 761 0 l 268 0 z "},"т":{"ha":799,"x_min":28,"x_max":771,"o":"m 524 0 l 275 0 l 275 496 l 28 496 l 28 715 l 771 715 l 771 563 l 708 496 l 524 496 l 524 0 z "},"у":{"ha":851,"x_min":31,"x_max":822,"o":"m 586 715 l 822 715 l 822 604 l 585 -25 q 483 -183 546 -129 q 315 -236 421 -236 l 94 -236 l 94 -17 l 244 -17 q 289 19 278 -17 l 289 21 l 31 604 l 31 715 l 271 715 l 438 271 l 449 271 l 586 715 z "},"ф":{"ha":1225,"x_min":74,"x_max":1150,"o":"m 489 -236 l 489 0 l 268 0 q 129 56 185 0 q 74 194 74 111 l 74 521 q 129 660 74 604 q 268 715 185 715 l 489 715 l 489 965 l 736 965 l 736 715 l 956 715 q 1094 660 1039 715 q 1150 521 1150 604 l 1150 194 q 1094 56 1150 111 q 956 0 1039 0 l 736 0 l 736 -236 l 489 -236 m 493 206 l 493 510 l 365 510 q 333 498 344 510 q 322 465 322 486 l 322 250 q 333 217 322 229 q 365 206 344 206 l 493 206 m 858 206 q 892 217 881 206 q 903 250 903 229 l 903 465 q 892 498 903 486 q 858 510 881 510 l 732 510 l 732 206 l 858 206 z "},"х":{"ha":868,"x_min":42,"x_max":826,"o":"m 275 0 l 42 0 l 42 111 l 246 354 l 56 604 l 56 715 l 292 715 l 428 489 l 440 489 l 576 715 l 813 715 l 813 604 l 622 368 l 826 111 l 826 0 l 593 0 l 440 219 l 428 219 l 275 0 z "},"ц":{"ha":961,"x_min":88,"x_max":938,"o":"m 938 -146 l 690 -146 l 690 0 l 88 0 l 88 715 l 336 715 l 336 215 l 594 215 l 594 715 l 843 715 l 843 215 l 938 215 l 938 -146 z "},"ч":{"ha":889,"x_min":60,"x_max":801,"o":"m 553 0 l 553 208 l 254 208 q 115 264 171 208 q 60 403 60 319 l 60 715 l 308 715 l 308 468 q 351 424 308 424 l 553 424 l 553 715 l 801 715 l 801 0 l 553 0 z "},"ш":{"ha":1299,"x_min":88,"x_max":1211,"o":"m 1211 0 l 88 0 l 88 715 l 336 715 l 336 215 l 525 215 l 525 715 l 774 715 l 774 215 l 963 215 l 963 715 l 1211 715 l 1211 0 z "},"щ":{"ha":1329,"x_min":88,"x_max":1306,"o":"m 1306 -146 l 1058 -146 l 1058 0 l 88 0 l 88 715 l 336 715 l 336 215 l 525 215 l 525 715 l 774 715 l 774 215 l 963 215 l 963 715 l 1211 715 l 1211 215 l 1306 215 l 1306 -146 z "},"ъ":{"ha":982,"x_min":14,"x_max":924,"o":"m 201 0 l 201 504 l 14 504 l 14 715 l 449 715 l 449 500 l 750 500 q 874 450 824 500 q 924 326 924 400 l 924 174 q 874 51 924 101 q 750 0 824 0 l 201 0 m 636 181 q 665 191 654 181 q 676 219 676 201 l 676 281 q 665 309 676 299 q 636 319 654 319 l 449 319 l 449 181 l 636 181 z "},"ы":{"ha":1236,"x_min":88,"x_max":1149,"o":"m 88 0 l 88 715 l 336 715 l 336 500 l 628 500 q 751 450 701 500 q 801 326 801 400 l 801 174 q 751 51 801 101 q 628 0 701 0 l 88 0 m 1149 0 l 900 0 l 900 715 l 1149 715 l 1149 0 m 514 181 q 542 191 532 181 q 553 219 553 201 l 553 281 q 542 309 553 299 q 514 319 532 319 l 336 319 l 336 181 l 514 181 z "},"ь":{"ha":882,"x_min":88,"x_max":824,"o":"m 88 0 l 88 715 l 336 715 l 336 500 l 650 500 q 774 450 724 500 q 824 326 824 400 l 824 174 q 774 51 824 101 q 650 0 724 0 l 88 0 m 538 181 q 566 191 556 181 q 576 219 576 201 l 576 281 q 566 309 576 299 q 538 319 556 319 l 336 319 l 336 181 l 538 181 z "},"э":{"ha":815,"x_min":49,"x_max":740,"o":"m 49 0 l 49 188 l 449 188 q 493 232 493 188 l 493 271 l 219 271 l 219 449 l 493 449 l 493 483 q 449 528 493 528 l 121 528 l 49 604 l 49 715 l 546 715 q 685 660 629 715 q 740 521 740 604 l 740 194 q 685 56 740 111 q 546 0 629 0 l 49 0 z "},"ю":{"ha":1301,"x_min":88,"x_max":1226,"o":"m 671 -14 q 532 42 588 -14 q 476 181 476 97 l 476 253 l 336 253 l 336 0 l 88 0 l 88 715 l 336 715 l 336 468 l 476 468 l 476 535 q 532 674 476 618 q 671 729 588 729 l 1032 729 q 1171 674 1115 729 q 1226 535 1226 618 l 1226 181 q 1171 42 1226 97 q 1032 -14 1115 -14 l 671 -14 m 935 197 q 979 240 979 197 l 979 475 q 935 518 979 518 l 768 518 q 725 475 725 518 l 725 240 q 768 197 725 197 l 935 197 z "},"я":{"ha":921,"x_min":56,"x_max":833,"o":"m 833 715 l 833 0 l 586 0 l 586 215 l 428 215 l 289 0 l 56 0 l 56 111 l 178 260 q 107 323 133 281 q 81 417 81 365 l 81 542 q 131 665 81 615 q 254 715 182 715 l 833 715 m 586 400 l 586 531 l 368 531 q 340 519 350 531 q 329 490 329 508 l 329 440 q 340 411 329 422 q 368 400 350 400 l 586 400 z "},"ѓ":{"ha":747,"x_min":88,"x_max":726,"o":"m 336 0 l 88 0 l 88 715 l 726 715 l 726 563 l 664 496 l 336 496 l 336 0 m 506 819 l 263 819 l 374 1046 l 679 1046 l 506 819 z "},"ґ":{"ha":750,"x_min":88,"x_max":726,"o":"m 336 0 l 88 0 l 88 715 l 504 715 l 525 806 l 726 806 l 726 496 l 336 496 l 336 0 z "},"ќ":{"ha":906,"x_min":88,"x_max":864,"o":"m 336 0 l 88 0 l 88 715 l 336 715 l 336 463 l 469 463 l 628 715 l 850 715 l 850 604 l 683 365 l 864 111 l 864 0 l 635 0 l 469 257 l 336 257 l 336 0 m 579 819 l 336 819 l 447 1046 l 753 1046 l 579 819 z "},"є":{"ha":822,"x_min":74,"x_max":767,"o":"m 268 0 q 129 56 185 0 q 74 194 74 111 l 74 521 q 129 660 74 604 q 268 715 185 715 l 767 715 l 767 604 l 694 528 l 365 528 q 322 483 322 528 l 322 449 l 597 449 l 597 271 l 322 271 l 322 232 q 365 188 322 188 l 767 188 l 767 0 l 268 0 z "},"ѕ":{"ha":824,"x_min":60,"x_max":774,"o":"m 60 0 l 60 197 l 482 197 q 508 203 499 197 q 517 219 517 210 l 517 229 q 508 243 517 235 q 485 254 499 251 l 215 303 q 103 363 147 315 q 60 469 60 410 l 60 544 q 110 665 60 615 q 232 715 160 715 l 746 715 l 746 586 l 683 518 l 351 518 q 317 497 317 518 l 317 488 q 349 461 317 467 l 618 413 q 730 353 686 400 q 774 246 774 306 l 774 171 q 724 50 774 100 q 601 0 674 0 l 60 0 z "},"і":{"ha":438,"x_min":94,"x_max":343,"o":"m 343 0 l 94 0 l 94 715 l 343 715 l 343 0 m 342 824 l 94 824 l 94 1039 l 342 1039 l 342 824 z "},"ї":{"ha":438,"x_min":-54,"x_max":492,"o":"m 343 0 l 94 0 l 94 715 l 343 715 l 343 0 m 175 824 l -54 824 l -54 1039 l 175 1039 l 175 824 m 492 824 l 263 824 l 263 1039 l 492 1039 l 492 824 z "},"ј":{"ha":438,"x_min":-69,"x_max":350,"o":"m -69 -236 l -69 -21 l 58 -21 q 101 24 101 -21 l 101 715 l 350 715 l 350 -42 q 294 -181 350 -125 q 156 -236 239 -236 l -69 -236 m 349 824 l 101 824 l 101 1039 l 349 1039 l 349 824 z "},"љ":{"ha":1338,"x_min":7,"x_max":1294,"o":"m 7 -14 l 7 206 l 90 206 q 133 253 128 206 l 192 715 l 833 715 l 833 486 l 1121 486 q 1244 436 1194 486 q 1294 313 1294 386 l 1294 174 q 1244 51 1294 101 q 1121 0 1194 0 l 586 0 l 586 496 l 417 496 l 379 201 q 310 41 365 96 q 164 -14 254 -14 l 7 -14 m 1007 181 q 1035 191 1025 181 q 1046 219 1046 201 l 1046 267 q 1035 295 1046 285 q 1007 306 1025 306 l 833 306 l 833 181 l 1007 181 z "},"њ":{"ha":1336,"x_min":88,"x_max":1292,"o":"m 88 0 l 88 715 l 336 715 l 336 486 l 581 486 l 581 715 l 829 715 l 829 486 l 1118 486 q 1242 436 1192 486 q 1292 313 1292 386 l 1292 174 q 1242 51 1292 101 q 1118 0 1192 0 l 581 0 l 581 281 l 336 281 l 336 0 l 88 0 m 1004 181 q 1033 191 1022 181 q 1044 219 1044 201 l 1044 264 q 1033 292 1044 282 q 1004 303 1022 303 l 829 303 l 829 181 l 1004 181 z "},"ћ":{"ha":935,"x_min":-17,"x_max":861,"o":"m 667 604 q 806 549 750 604 q 861 410 861 493 l 861 0 l 614 0 l 614 340 q 602 373 614 361 q 569 385 590 385 l 417 385 q 368 367 386 385 q 350 317 350 349 l 350 0 l 101 0 l 101 658 l -17 658 l -17 856 l 101 856 l 101 965 l 350 965 l 350 856 l 581 856 l 581 658 l 350 658 l 350 517 l 357 517 q 416 577 374 550 q 517 604 458 604 l 667 604 z "},"ђ":{"ha":935,"x_min":-17,"x_max":861,"o":"m 667 604 q 806 549 750 604 q 861 410 861 493 l 861 79 q 806 -60 861 -4 q 667 -115 750 -115 l 465 -115 l 465 100 l 569 100 q 614 143 614 100 l 614 340 q 602 373 614 361 q 569 385 590 385 l 417 385 q 368 367 386 385 q 350 317 350 349 l 350 0 l 101 0 l 101 658 l -17 658 l -17 856 l 101 856 l 101 965 l 350 965 l 350 856 l 581 856 l 581 658 l 350 658 l 350 517 l 357 517 q 416 577 374 550 q 517 604 458 604 l 667 604 z "},"ў":{"ha":851,"x_min":31,"x_max":822,"o":"m 586 715 l 822 715 l 822 604 l 585 -25 q 483 -183 546 -129 q 315 -236 421 -236 l 94 -236 l 94 -17 l 244 -17 q 289 19 278 -17 l 289 21 l 31 604 l 31 715 l 271 715 l 438 271 l 449 271 l 586 715 m 254 819 q 172 853 206 819 q 139 935 139 888 l 139 1046 l 347 1046 l 347 1000 q 378 969 347 969 l 483 969 q 514 1000 514 969 l 514 1046 l 722 1046 l 722 935 q 688 853 722 888 q 607 819 654 819 l 254 819 z "},"џ":{"ha":942,"x_min":88,"x_max":854,"o":"m 594 -146 l 347 -146 l 347 0 l 88 0 l 88 715 l 336 715 l 336 206 l 607 206 l 607 715 l 854 715 l 854 0 l 594 0 l 594 -146 z "},"Ӑ":{"ha":1111,"x_min":18,"x_max":1093,"o":"m 385 972 l 726 972 l 1093 128 l 1093 0 l 840 0 l 779 167 l 332 167 l 271 0 l 18 0 l 18 128 l 385 972 m 549 750 l 414 385 l 697 385 l 563 750 l 549 750 m 364 1069 q 282 1103 315 1069 q 249 1185 249 1138 l 249 1310 l 457 1310 l 457 1250 q 488 1219 457 1219 l 624 1219 q 654 1250 654 1219 l 654 1310 l 863 1310 l 863 1185 q 828 1103 863 1136 q 746 1069 794 1069 l 364 1069 z "},"Ғ":{"ha":965,"x_min":10,"x_max":938,"o":"m 121 536 l 121 972 l 938 972 l 938 819 l 854 736 l 382 736 l 382 536 l 725 536 l 725 346 l 382 346 l 382 0 l 121 0 l 121 346 l 10 346 l 10 536 l 121 536 z "},"":{"ha":982,"x_min":107,"x_max":954,"o":"m 368 0 l 107 0 l 107 972 l 954 972 l 954 819 l 871 736 l 368 736 l 368 556 l 792 556 l 792 319 l 368 319 l 368 0 z "},"Ѐ":{"ha":1035,"x_min":107,"x_max":972,"o":"m 972 0 l 107 0 l 107 972 l 972 972 l 972 829 l 889 746 l 368 746 l 368 597 l 815 597 l 815 379 l 368 379 l 368 226 l 972 226 l 972 0 m 694 1069 l 451 1069 l 278 1296 l 583 1296 l 694 1069 z "},"Ӗ":{"ha":1035,"x_min":107,"x_max":972,"o":"m 972 0 l 107 0 l 107 972 l 972 972 l 972 829 l 889 746 l 368 746 l 368 597 l 815 597 l 815 379 l 368 379 l 368 226 l 972 226 l 972 0 m 350 1069 q 268 1103 301 1069 q 235 1185 235 1138 l 235 1310 l 443 1310 l 443 1250 q 474 1219 443 1219 l 610 1219 q 640 1250 640 1219 l 640 1310 l 849 1310 l 849 1185 q 815 1103 849 1136 q 732 1069 781 1069 l 350 1069 z "},"Җ":{"ha":1711,"x_min":49,"x_max":1708,"o":"m 1708 -174 l 1447 -174 l 1447 0 l 1389 0 l 1147 371 l 968 371 l 968 0 l 707 0 l 707 371 l 526 371 l 286 0 l 49 0 l 49 128 l 303 511 l 67 844 l 67 972 l 297 972 l 535 608 l 707 608 l 707 972 l 968 972 l 968 608 l 1140 608 l 1376 972 l 1607 972 l 1607 844 l 1371 511 l 1557 236 l 1708 236 l 1708 -174 z "},"Ҙ":{"ha":1046,"x_min":56,"x_max":976,"o":"m 818 501 q 928 441 879 493 q 976 299 976 389 l 976 232 q 914 63 976 126 q 746 0 851 0 l 626 0 l 626 -199 l 365 -199 l 365 0 l 56 0 l 56 226 l 657 226 q 693 240 681 226 q 706 275 706 253 l 706 333 q 693 369 706 357 q 657 382 681 382 l 264 382 l 264 600 l 643 600 q 679 613 667 600 q 692 649 692 626 l 692 697 q 679 733 692 721 q 643 746 667 746 l 142 746 l 58 829 l 58 972 l 732 972 q 900 909 838 972 q 963 740 963 846 l 963 713 q 918 577 963 629 q 818 514 874 525 l 818 501 z "},"":{"ha":1046,"x_min":56,"x_max":976,"o":"m 818 501 q 928 441 879 493 q 976 299 976 389 l 976 232 q 914 63 976 126 q 746 0 851 0 l 585 0 l 585 -306 l 332 -306 l 332 -168 l 438 0 l 56 0 l 56 226 l 657 226 q 693 240 681 226 q 706 275 706 253 l 706 333 q 693 369 706 357 q 657 382 681 382 l 264 382 l 264 600 l 643 600 q 679 613 667 600 q 692 649 692 626 l 692 697 q 679 733 692 721 q 643 746 667 746 l 142 746 l 58 829 l 58 972 l 732 972 q 900 909 838 972 q 963 740 963 846 l 963 713 q 918 577 963 629 q 818 514 874 525 l 818 501 z "},"Ѝ":{"ha":1211,"x_min":107,"x_max":1104,"o":"m 372 0 l 107 0 l 107 972 l 368 972 l 368 549 l 349 358 l 360 358 l 838 972 l 1104 972 l 1104 0 l 843 0 l 843 424 l 863 614 l 850 614 l 372 0 m 758 1069 l 515 1069 l 342 1296 l 647 1296 l 758 1069 z "},"Ӣ":{"ha":1211,"x_min":107,"x_max":1104,"o":"m 372 0 l 107 0 l 107 972 l 368 972 l 368 549 l 349 358 l 360 358 l 838 972 l 1104 972 l 1104 0 l 843 0 l 843 424 l 863 614 l 850 614 l 372 0 m 869 1093 l 342 1093 l 342 1274 l 869 1274 l 869 1093 z "},"Ӏ":{"ha":475,"x_min":107,"x_max":368,"o":"m 368 0 l 107 0 l 107 972 l 368 972 l 368 0 z "},"Қ":{"ha":1176,"x_min":107,"x_max":1172,"o":"m 1172 -174 l 911 -174 l 911 0 l 853 0 l 613 371 l 368 371 l 368 0 l 107 0 l 107 972 l 368 972 l 368 608 l 604 608 l 842 972 l 1072 972 l 1072 844 l 836 511 l 1022 236 l 1172 236 l 1172 -174 z "},"Ҡ":{"ha":1250,"x_min":14,"x_max":1201,"o":"m 479 0 l 218 0 l 218 746 l 14 746 l 14 972 l 479 972 l 479 608 l 715 608 l 953 972 l 1183 972 l 1183 844 l 947 511 l 1201 128 l 1201 0 l 964 0 l 724 371 l 479 371 l 479 0 z "},"Ң":{"ha":1236,"x_min":107,"x_max":1211,"o":"m 1211 -174 l 949 -174 l 949 0 l 831 0 l 831 371 l 368 371 l 368 0 l 107 0 l 107 972 l 368 972 l 368 608 l 831 608 l 831 972 l 1093 972 l 1093 236 l 1211 236 l 1211 -174 z "},"":{"ha":1176,"x_min":90,"x_max":1086,"o":"m 322 -14 q 153 49 217 -14 q 90 218 90 113 l 90 754 q 153 924 90 861 q 322 986 217 986 l 854 986 q 1024 924 961 986 q 1086 754 1086 861 l 1086 218 q 1024 49 1086 113 q 854 -14 961 -14 l 322 -14 m 775 218 q 811 231 799 218 q 824 267 824 244 l 824 706 q 811 742 824 729 q 775 754 799 754 l 400 754 q 365 742 378 754 q 351 706 351 729 l 351 267 q 365 231 351 244 q 400 218 378 218 l 775 218 m 396 1069 q 314 1103 347 1069 q 281 1185 281 1138 l 281 1310 l 489 1310 l 489 1250 q 519 1219 489 1219 l 656 1219 q 686 1250 686 1219 l 686 1310 l 894 1310 l 894 1185 q 860 1103 894 1136 q 778 1069 826 1069 l 396 1069 z "},"Ө":{"ha":1176,"x_min":90,"x_max":1086,"o":"m 854 986 q 1024 924 961 986 q 1086 754 1086 861 l 1086 218 q 1024 49 1086 113 q 854 -14 961 -14 l 322 -14 q 153 49 217 -14 q 90 218 90 113 l 90 754 q 153 924 90 861 q 322 986 217 986 l 854 986 m 400 754 q 365 742 378 754 q 351 706 351 729 l 351 582 l 824 582 l 824 706 q 811 742 824 729 q 775 754 799 754 l 400 754 m 775 218 q 811 231 799 218 q 824 267 824 244 l 824 392 l 351 392 l 351 267 q 365 231 351 244 q 400 218 378 218 l 775 218 z "},"Ә":{"ha":1176,"x_min":90,"x_max":1086,"o":"m 322 -14 q 153 49 217 -14 q 90 218 90 113 l 90 581 l 824 581 l 824 697 q 811 733 824 721 q 775 746 799 746 l 268 746 l 185 829 l 185 972 l 854 972 q 1024 910 961 972 q 1086 740 1086 847 l 1086 218 q 1024 49 1086 113 q 854 -14 961 -14 l 322 -14 m 775 218 q 811 231 799 218 q 824 267 824 244 l 824 386 l 351 386 l 351 267 q 365 231 351 244 q 400 218 378 218 l 775 218 z "},"Ҫ":{"ha":1044,"x_min":90,"x_max":982,"o":"m 400 736 q 365 724 378 736 q 351 688 351 711 l 351 285 q 365 249 351 263 q 400 236 378 236 l 982 236 l 982 0 l 711 0 l 711 -199 l 450 -199 l 450 0 l 322 0 q 153 63 217 0 q 90 232 90 126 l 90 740 q 153 910 90 847 q 322 972 217 972 l 982 972 l 982 819 l 899 736 l 400 736 z "},"":{"ha":1044,"x_min":90,"x_max":982,"o":"m 400 736 q 365 724 378 736 q 351 688 351 711 l 351 285 q 365 249 351 263 q 400 236 378 236 l 982 236 l 982 0 l 671 0 l 671 -306 l 418 -306 l 418 -168 l 524 0 l 322 0 q 153 63 217 0 q 90 232 90 126 l 90 740 q 153 910 90 847 q 322 972 217 972 l 982 972 l 982 819 l 899 736 l 400 736 z "},"":{"ha":1044,"x_min":90,"x_max":982,"o":"m 400 736 q 365 724 378 736 q 351 688 351 711 l 351 285 q 365 249 351 263 q 400 236 378 236 l 982 236 l 982 0 l 632 0 l 621 -49 l 682 -49 q 767 -82 735 -49 q 800 -167 800 -115 l 800 -222 q 767 -307 800 -274 q 682 -340 735 -340 l 429 -340 l 429 -219 l 613 -219 q 631 -214 624 -219 q 638 -199 638 -208 l 638 -190 q 631 -175 638 -181 q 613 -169 624 -169 l 496 -169 l 443 -121 l 471 0 l 322 0 q 153 63 217 0 q 90 232 90 126 l 90 740 q 153 910 90 847 q 322 972 217 972 l 982 972 l 982 819 l 899 736 l 400 736 z "},"Ӯ":{"ha":1069,"x_min":38,"x_max":1046,"o":"m 799 972 l 1046 972 l 1046 844 l 726 222 q 590 47 667 107 q 389 -14 513 -14 l 156 -14 l 156 213 l 339 213 q 369 218 358 213 q 390 238 381 224 l 403 256 l 38 844 l 38 972 l 294 972 l 560 479 l 574 479 l 799 972 m 810 1093 l 282 1093 l 282 1274 l 810 1274 l 810 1093 z "},"Ӳ":{"ha":1069,"x_min":38,"x_max":1046,"o":"m 799 972 l 1046 972 l 1046 844 l 726 222 q 590 47 667 107 q 389 -14 513 -14 l 156 -14 l 156 213 l 339 213 q 369 218 358 213 q 390 238 381 224 l 403 256 l 38 844 l 38 972 l 294 972 l 560 479 l 574 479 l 799 972 m 464 1069 l 263 1069 l 374 1296 l 621 1296 l 464 1069 m 788 1069 l 586 1069 l 697 1296 l 946 1296 l 788 1069 z "},"Ү":{"ha":1053,"x_min":31,"x_max":1024,"o":"m 657 0 l 396 0 l 396 292 l 31 844 l 31 972 l 281 972 l 524 563 l 539 563 l 774 972 l 1024 972 l 1024 844 l 657 292 l 657 0 z "},"Ұ":{"ha":1053,"x_min":31,"x_max":1024,"o":"m 774 972 l 1024 972 l 1024 844 l 732 406 l 936 406 l 936 218 l 657 218 l 657 0 l 396 0 l 396 218 l 117 218 l 117 406 l 321 406 l 31 844 l 31 972 l 281 972 l 524 563 l 539 563 l 774 972 z "},"Ҳ":{"ha":1122,"x_min":44,"x_max":1125,"o":"m 1125 -174 l 864 -174 l 864 0 l 806 0 l 556 324 l 542 324 l 292 0 l 44 0 l 44 128 l 343 482 l 67 844 l 67 972 l 315 972 l 542 650 l 556 650 l 782 972 l 1031 972 l 1031 844 l 754 493 l 965 236 l 1125 236 l 1125 -174 z "},"Ҷ":{"ha":1178,"x_min":76,"x_max":1153,"o":"m 892 -174 l 892 0 l 774 0 l 774 306 l 308 306 q 140 369 203 306 q 76 538 76 432 l 76 972 l 338 972 l 338 590 q 351 555 338 568 q 386 542 364 542 l 774 542 l 774 972 l 1035 972 l 1035 236 l 1153 236 l 1153 -174 l 892 -174 z "},"":{"ha":1551,"x_min":107,"x_max":1444,"o":"m 107 0 l 107 972 l 368 972 l 368 667 l 819 667 q 989 604 926 667 q 1051 435 1051 542 l 1051 232 q 989 63 1051 126 q 819 0 926 0 l 107 0 m 1444 0 l 1183 0 l 1183 972 l 1444 972 l 1444 0 m 740 226 q 776 240 764 226 q 789 275 789 253 l 789 392 q 776 428 789 415 q 740 440 764 440 l 368 440 l 368 226 l 740 226 m 583 1069 q 501 1103 535 1069 q 468 1185 468 1138 l 468 1310 l 676 1310 l 676 1250 q 707 1219 676 1219 l 843 1219 q 874 1250 874 1219 l 874 1310 l 1082 1310 l 1082 1185 q 1048 1103 1082 1136 q 965 1069 1014 1069 l 583 1069 z "},"":{"ha":1038,"x_min":56,"x_max":947,"o":"m 56 0 l 56 226 l 636 226 q 672 240 660 226 q 685 275 685 253 l 685 379 l 274 379 l 274 597 l 685 597 l 685 697 q 672 733 685 721 q 636 746 660 746 l 139 746 l 56 829 l 56 972 l 715 972 q 885 910 822 972 q 947 740 947 847 l 947 232 q 885 63 947 126 q 715 0 822 0 l 56 0 m 308 1069 q 226 1103 260 1069 q 193 1185 193 1138 l 193 1310 l 401 1310 l 401 1250 q 432 1219 401 1219 l 568 1219 q 599 1250 599 1219 l 599 1310 l 807 1310 l 807 1185 q 773 1103 807 1136 q 690 1069 739 1069 l 308 1069 z "},"Һ":{"ha":1142,"x_min":107,"x_max":1065,"o":"m 107 0 l 107 972 l 368 972 l 368 667 l 833 667 q 1003 604 940 667 q 1065 435 1065 542 l 1065 0 l 803 0 l 803 382 q 790 418 803 406 q 754 431 778 431 l 368 431 l 368 0 l 107 0 z "},"ӑ":{"ha":886,"x_min":56,"x_max":799,"o":"m 250 -14 q 111 42 167 -14 q 56 181 56 97 l 56 243 q 111 382 56 326 q 250 438 167 438 l 551 438 l 551 483 q 540 517 551 506 q 507 528 528 528 l 121 528 l 121 715 l 604 715 q 743 660 688 715 q 799 521 799 604 l 799 0 l 621 0 l 583 86 l 576 86 q 516 17 560 47 q 414 -14 472 -14 l 250 -14 m 483 174 q 533 192 515 174 q 551 240 551 210 l 551 282 l 343 282 q 303 243 303 282 l 303 213 q 343 174 303 174 l 483 174 m 271 819 q 189 853 222 819 q 156 935 156 888 l 156 1046 l 364 1046 l 364 1000 q 394 969 364 969 l 500 969 q 531 1000 531 969 l 531 1046 l 739 1046 l 739 935 q 705 853 739 888 q 624 819 671 819 l 271 819 z "},"ғ":{"ha":761,"x_min":10,"x_max":740,"o":"m 101 396 l 101 715 l 740 715 l 740 563 l 678 496 l 350 496 l 350 396 l 608 396 l 608 210 l 350 210 l 350 0 l 101 0 l 101 210 l 10 210 l 10 396 l 101 396 z "},"":{"ha":747,"x_min":88,"x_max":726,"o":"m 88 0 l 88 715 l 726 715 l 726 563 l 664 496 l 336 496 l 336 396 l 594 396 l 594 211 l 336 211 l 336 0 l 88 0 z "},"ѐ":{"ha":919,"x_min":74,"x_max":844,"o":"m 268 0 q 129 56 185 0 q 74 194 74 111 l 74 535 q 129 674 74 618 q 268 729 185 729 l 650 729 q 789 674 733 729 q 844 535 844 618 l 844 278 l 322 278 l 322 232 q 365 188 322 188 l 813 188 l 813 0 l 268 0 m 322 435 l 597 435 l 597 497 q 553 542 597 542 l 365 542 q 322 497 322 542 l 322 435 m 606 819 l 363 819 l 189 1046 l 494 1046 l 606 819 z "},"ӗ":{"ha":919,"x_min":74,"x_max":844,"o":"m 268 0 q 129 56 185 0 q 74 194 74 111 l 74 535 q 129 674 74 618 q 268 729 185 729 l 650 729 q 789 674 733 729 q 844 535 844 618 l 844 278 l 322 278 l 322 232 q 365 188 322 188 l 813 188 l 813 0 l 268 0 m 322 435 l 597 435 l 597 497 q 553 542 597 542 l 365 542 q 322 497 322 542 l 322 435 m 285 819 q 203 853 236 819 q 169 935 169 888 l 169 1046 l 378 1046 l 378 1000 q 408 969 378 969 l 514 969 q 544 1000 544 969 l 544 1046 l 753 1046 l 753 935 q 719 853 753 888 q 638 819 685 819 l 285 819 z "},"җ":{"ha":1340,"x_min":42,"x_max":1322,"o":"m 1322 -146 l 1074 -146 l 1074 0 l 1038 0 l 878 257 l 778 257 l 778 0 l 531 0 l 531 257 l 431 257 l 271 0 l 42 0 l 42 111 l 218 357 l 56 604 l 56 715 l 278 715 l 431 463 l 531 463 l 531 715 l 778 715 l 778 463 l 878 463 l 1031 715 l 1253 715 l 1253 604 l 1090 365 l 1196 215 l 1322 215 l 1322 -146 z "},"ҙ":{"ha":824,"x_min":49,"x_max":767,"o":"m 664 358 q 735 303 703 343 q 767 211 767 264 l 767 169 q 719 47 767 94 q 594 0 671 0 l 519 0 l 519 -183 l 272 -183 l 272 0 l 49 0 l 49 188 l 476 188 q 503 197 493 188 q 514 222 514 207 l 514 236 q 503 261 514 251 q 476 271 493 271 l 222 271 l 222 447 l 463 447 q 490 457 479 447 q 500 482 500 467 l 500 493 q 490 518 500 508 q 463 528 479 528 l 125 528 l 63 594 l 63 715 l 581 715 q 705 667 657 715 q 753 546 753 619 l 753 504 q 726 416 753 451 q 664 371 699 381 l 664 358 z "},"":{"ha":824,"x_min":49,"x_max":767,"o":"m 664 358 q 735 303 703 343 q 767 211 767 264 l 767 169 q 719 47 767 94 q 594 0 671 0 l 493 0 l 493 -275 l 246 -275 l 246 -143 l 344 0 l 49 0 l 49 188 l 476 188 q 503 197 493 188 q 514 222 514 207 l 514 236 q 503 261 514 251 q 476 271 493 271 l 222 271 l 222 447 l 463 447 q 490 457 479 447 q 500 482 500 467 l 500 493 q 490 518 500 508 q 463 528 479 528 l 125 528 l 63 594 l 63 715 l 581 715 q 705 667 657 715 q 753 546 753 619 l 753 504 q 726 416 753 451 q 664 371 699 381 l 664 358 z "},"ѝ":{"ha":972,"x_min":88,"x_max":885,"o":"m 336 0 l 88 0 l 88 715 l 336 715 l 336 472 l 313 313 l 324 313 l 636 715 l 885 715 l 885 0 l 636 0 l 636 243 l 660 403 l 649 403 l 336 0 m 631 819 l 388 819 l 214 1046 l 519 1046 l 631 819 z "},"ӣ":{"ha":972,"x_min":88,"x_max":885,"o":"m 336 0 l 88 0 l 88 715 l 336 715 l 336 472 l 313 313 l 324 313 l 636 715 l 885 715 l 885 0 l 636 0 l 636 243 l 660 403 l 649 403 l 336 0 m 750 843 l 222 843 l 222 1024 l 750 1024 l 750 843 z "},"ӏ":{"ha":438,"x_min":94,"x_max":343,"o":"m 343 0 l 94 0 l 94 972 l 343 972 l 343 0 z "},"қ":{"ha":938,"x_min":88,"x_max":919,"o":"m 919 -146 l 671 -146 l 671 0 l 635 0 l 469 257 l 336 257 l 336 0 l 88 0 l 88 715 l 336 715 l 336 463 l 469 463 l 628 715 l 850 715 l 850 604 l 683 365 l 790 215 l 919 215 l 919 -146 z "},"ҡ":{"ha":1018,"x_min":14,"x_max":976,"o":"m 449 0 l 201 0 l 201 504 l 14 504 l 14 715 l 449 715 l 449 463 l 583 463 l 740 715 l 963 715 l 963 604 l 796 365 l 976 111 l 976 0 l 747 0 l 583 257 l 449 257 l 449 0 z "},"ң":{"ha":975,"x_min":88,"x_max":951,"o":"m 951 -146 l 704 -146 l 704 0 l 608 0 l 608 253 l 336 253 l 336 0 l 88 0 l 88 715 l 336 715 l 336 468 l 608 468 l 608 715 l 857 715 l 857 215 l 951 215 l 951 -146 z "},"":{"ha":935,"x_min":74,"x_max":861,"o":"m 268 -14 q 129 42 185 -14 q 74 181 74 97 l 74 535 q 129 674 74 618 q 268 729 185 729 l 667 729 q 806 674 750 729 q 861 535 861 618 l 861 181 q 806 42 861 97 q 667 -14 750 -14 l 268 -14 m 569 197 q 602 208 590 197 q 614 240 614 219 l 614 475 q 602 507 614 496 q 569 518 590 518 l 365 518 q 322 475 322 518 l 322 240 q 365 197 322 197 l 569 197 m 292 819 q 210 853 243 819 q 176 935 176 888 l 176 1046 l 385 1046 l 385 1000 q 415 969 385 969 l 521 969 q 551 1000 551 969 l 551 1046 l 760 1046 l 760 935 q 726 853 760 888 q 644 819 692 819 l 292 819 z "},"ө":{"ha":935,"x_min":74,"x_max":861,"o":"m 667 729 q 806 674 750 729 q 861 535 861 618 l 861 181 q 806 42 861 97 q 667 -14 750 -14 l 268 -14 q 129 42 185 -14 q 74 181 74 97 l 74 535 q 129 674 74 618 q 268 729 185 729 l 667 729 m 365 532 q 322 489 322 532 l 322 433 l 614 433 l 614 489 q 602 521 614 510 q 569 532 590 532 l 365 532 m 569 183 q 602 194 590 183 q 614 226 614 206 l 614 283 l 322 283 l 322 226 q 365 183 322 183 l 569 183 z "},"ә":{"ha":913,"x_min":67,"x_max":838,"o":"m 261 -14 q 122 42 178 -14 q 67 181 67 97 l 67 431 l 590 431 l 590 483 q 546 528 590 528 l 171 528 l 100 604 l 100 715 l 643 715 q 782 660 726 715 q 838 521 838 604 l 838 181 q 782 42 838 97 q 643 -14 726 -14 l 261 -14 m 546 169 q 590 213 590 169 l 590 274 l 315 274 l 315 213 q 358 169 315 169 l 546 169 z "},"ҫ":{"ha":817,"x_min":74,"x_max":761,"o":"m 365 500 q 322 456 322 500 l 322 260 q 365 215 322 215 l 761 215 l 761 0 l 576 0 l 576 -183 l 329 -183 l 329 0 l 268 0 q 129 56 185 0 q 74 194 74 111 l 74 521 q 129 660 74 604 q 268 715 185 715 l 761 715 l 761 576 l 690 500 l 365 500 z "},"":{"ha":817,"x_min":74,"x_max":761,"o":"m 365 500 q 322 456 322 500 l 322 260 q 365 215 322 215 l 761 215 l 761 0 l 550 0 l 550 -275 l 303 -275 l 303 -143 l 401 0 l 268 0 q 129 56 185 0 q 74 194 74 111 l 74 521 q 129 660 74 604 q 268 715 185 715 l 761 715 l 761 576 l 690 500 l 365 500 z "},"":{"ha":817,"x_min":74,"x_max":761,"o":"m 365 500 q 322 456 322 500 l 322 260 q 365 215 322 215 l 761 215 l 761 0 l 504 0 l 493 -49 l 554 -49 q 640 -82 607 -49 q 672 -167 672 -115 l 672 -222 q 640 -307 672 -274 q 554 -340 607 -340 l 301 -340 l 301 -219 l 485 -219 q 503 -214 496 -219 q 510 -199 510 -208 l 510 -190 q 503 -175 510 -181 q 485 -169 496 -169 l 368 -169 l 315 -121 l 343 0 l 268 0 q 129 56 185 0 q 74 194 74 111 l 74 521 q 129 660 74 604 q 268 715 185 715 l 761 715 l 761 576 l 690 500 l 365 500 z "},"ӯ":{"ha":851,"x_min":31,"x_max":822,"o":"m 586 715 l 822 715 l 822 604 l 585 -25 q 483 -183 546 -129 q 315 -236 421 -236 l 94 -236 l 94 -17 l 244 -17 q 289 19 278 -17 l 289 21 l 31 604 l 31 715 l 271 715 l 438 271 l 449 271 l 586 715 m 694 843 l 167 843 l 167 1024 l 694 1024 l 694 843 z "},"ӳ":{"ha":851,"x_min":31,"x_max":826,"o":"m 586 715 l 822 715 l 822 604 l 585 -25 q 483 -183 546 -129 q 315 -236 421 -236 l 94 -236 l 94 -17 l 244 -17 q 289 19 278 -17 l 289 21 l 31 604 l 31 715 l 271 715 l 438 271 l 449 271 l 586 715 m 344 819 l 143 819 l 254 1046 l 501 1046 l 344 819 m 668 819 l 467 819 l 578 1046 l 826 1046 l 668 819 z "},"ү":{"ha":857,"x_min":31,"x_max":826,"o":"m 553 -236 l 304 -236 l 304 0 l 31 604 l 31 715 l 268 715 l 422 250 l 435 250 l 588 715 l 826 715 l 826 604 l 553 0 l 553 -236 z "},"ұ":{"ha":857,"x_min":31,"x_max":826,"o":"m 588 715 l 826 715 l 826 604 l 636 183 l 782 183 l 782 0 l 553 0 l 553 -236 l 304 -236 l 304 0 l 74 0 l 74 183 l 221 183 l 31 604 l 31 715 l 268 715 l 422 250 l 435 250 l 588 715 z "},"ҳ":{"ha":889,"x_min":42,"x_max":878,"o":"m 878 -146 l 629 -146 l 629 0 l 593 0 l 440 219 l 428 219 l 275 0 l 42 0 l 42 111 l 246 354 l 56 604 l 56 715 l 292 715 l 428 489 l 440 489 l 576 715 l 813 715 l 813 604 l 622 368 l 746 215 l 878 215 l 878 -146 z "},"ҷ":{"ha":919,"x_min":60,"x_max":896,"o":"m 649 -146 l 649 0 l 553 0 l 553 208 l 254 208 q 115 264 171 208 q 60 403 60 319 l 60 715 l 308 715 l 308 468 q 351 424 308 424 l 553 424 l 553 715 l 801 715 l 801 215 l 896 215 l 896 -146 l 649 -146 z "},"":{"ha":1236,"x_min":88,"x_max":1149,"o":"m 88 0 l 88 715 l 336 715 l 336 500 l 628 500 q 751 450 701 500 q 801 326 801 400 l 801 174 q 751 51 801 101 q 628 0 701 0 l 88 0 m 1149 0 l 900 0 l 900 715 l 1149 715 l 1149 0 m 514 181 q 542 191 532 181 q 553 219 553 201 l 553 281 q 542 309 553 299 q 514 319 532 319 l 336 319 l 336 181 l 514 181 m 442 819 q 360 853 393 819 q 326 935 326 888 l 326 1046 l 535 1046 l 535 1000 q 565 969 535 969 l 671 969 q 701 1000 701 969 l 701 1046 l 910 1046 l 910 935 q 876 853 910 888 q 794 819 842 819 l 442 819 z "},"":{"ha":815,"x_min":49,"x_max":740,"o":"m 49 0 l 49 188 l 449 188 q 493 232 493 188 l 493 271 l 219 271 l 219 449 l 493 449 l 493 483 q 449 528 493 528 l 121 528 l 49 604 l 49 715 l 546 715 q 685 660 629 715 q 740 521 740 604 l 740 194 q 685 56 740 111 q 546 0 629 0 l 49 0 m 218 819 q 136 853 169 819 q 103 935 103 888 l 103 1046 l 311 1046 l 311 1000 q 342 969 311 969 l 447 969 q 478 1000 478 969 l 478 1046 l 686 1046 l 686 935 q 652 853 686 888 q 571 819 618 819 l 218 819 z "},"һ":{"ha":942,"x_min":94,"x_max":854,"o":"m 94 0 l 94 965 l 343 965 l 343 642 l 350 642 q 409 702 367 675 q 510 729 451 729 l 660 729 q 799 674 743 729 q 854 535 854 618 l 854 0 l 607 0 l 607 465 q 595 498 607 486 q 563 510 583 510 l 410 510 q 361 492 379 510 q 343 442 343 474 l 343 0 l 94 0 z "},"":{"ha":1060,"x_min":88,"x_max":972,"o":"m 319 -14 q 151 49 214 -14 q 88 218 88 113 l 88 497 q 151 667 88 604 q 319 729 214 729 l 740 729 q 910 667 847 729 q 972 497 972 604 l 972 218 q 910 49 972 113 q 740 -14 847 -14 l 319 -14 m 663 213 q 699 226 686 213 q 711 261 711 239 l 711 454 q 699 490 711 478 q 663 503 686 503 l 399 503 q 363 490 376 503 q 350 454 350 478 l 350 261 q 363 226 350 239 q 399 213 376 213 l 663 213 z "},"":{"ha":858,"x_min":81,"x_max":829,"o":"m 829 0 l 81 0 l 81 218 l 331 218 l 331 442 l 114 442 l 114 649 l 331 649 l 331 718 l 593 718 l 593 218 l 829 218 l 829 0 z "},"":{"ha":944,"x_min":58,"x_max":875,"o":"m 58 0 l 58 185 l 542 388 q 583 436 583 406 l 583 447 q 571 477 583 465 q 538 489 558 489 l 146 489 l 72 563 l 72 715 l 643 715 q 813 653 750 715 q 875 483 875 590 l 875 458 q 833 328 875 379 q 688 242 790 276 l 600 208 l 600 197 l 875 197 l 875 0 l 58 0 z "},"":{"ha":944,"x_min":44,"x_max":885,"o":"m 44 -236 l 44 -10 l 565 -10 q 601 3 589 -10 q 614 39 614 17 l 614 79 q 601 115 614 103 q 565 128 589 128 l 250 128 l 250 315 l 482 472 l 482 483 l 118 483 l 44 558 l 44 715 l 844 715 l 844 511 l 583 336 l 583 324 l 653 324 q 822 261 758 324 q 885 93 885 199 l 885 -4 q 822 -174 885 -111 q 653 -236 760 -236 l 44 -236 z "},"":{"ha":996,"x_min":35,"x_max":982,"o":"m 838 -236 l 576 -236 l 576 0 l 35 0 l 35 215 l 469 715 l 697 715 l 697 600 l 343 206 l 343 199 l 590 199 l 590 358 l 838 358 l 838 199 l 982 199 l 982 0 l 838 0 l 838 -236 z "},"":{"ha":975,"x_min":81,"x_max":914,"o":"m 81 -236 l 81 -10 l 594 -10 q 631 3 618 -10 q 643 39 643 17 l 643 100 q 631 136 643 124 q 594 149 618 149 l 94 149 l 94 715 l 886 715 l 886 563 l 813 489 l 357 489 l 357 365 l 683 365 q 851 303 789 365 q 914 135 914 240 l 914 -4 q 851 -173 914 -110 q 683 -236 789 -236 l 81 -236 z "},"":{"ha":1038,"x_min":81,"x_max":956,"o":"m 313 -14 q 144 49 207 -14 q 81 218 81 113 l 81 406 q 106 520 81 469 q 192 632 131 571 l 532 972 l 753 972 l 753 844 l 496 611 l 496 604 l 594 604 l 725 604 q 893 541 831 604 q 956 372 956 478 l 956 218 q 893 49 956 113 q 725 -14 831 -14 l 313 -14 m 646 213 q 682 226 669 213 q 694 261 694 239 l 694 347 q 682 383 694 371 q 646 396 669 396 l 392 396 q 356 383 369 396 q 343 347 343 371 l 343 261 q 356 226 343 239 q 392 213 369 213 l 646 213 z "},"":{"ha":886,"x_min":28,"x_max":857,"o":"m 461 -236 l 229 -236 l 229 -114 l 551 475 l 551 486 l 28 486 l 28 715 l 857 715 l 857 497 l 461 -236 z "},"":{"ha":1058,"x_min":81,"x_max":976,"o":"m 313 -14 q 144 49 207 -14 q 81 218 81 113 l 81 306 q 121 437 81 388 q 211 496 161 486 l 211 507 q 133 563 168 517 q 97 683 97 608 l 97 754 q 160 924 97 861 q 329 986 224 986 l 729 986 q 899 924 836 986 q 961 754 961 861 l 961 683 q 925 563 961 608 q 846 507 889 517 l 846 496 q 936 438 896 486 q 976 306 976 389 l 976 218 q 914 49 976 113 q 746 -14 851 -14 l 313 -14 m 642 600 q 678 613 665 600 q 690 649 690 626 l 690 719 q 678 756 690 743 q 642 768 665 768 l 417 768 q 381 756 394 768 q 368 719 368 743 l 368 649 q 381 613 368 626 q 417 600 394 600 l 642 600 m 657 204 q 693 217 681 204 q 706 253 706 231 l 706 343 q 693 379 706 367 q 657 392 681 392 l 400 392 q 365 379 378 392 q 351 343 351 367 l 351 253 q 365 217 351 231 q 400 204 378 204 l 657 204 z "},"":{"ha":1038,"x_min":81,"x_max":956,"o":"m 289 -236 l 289 -114 l 518 104 l 518 111 l 449 111 l 313 111 q 144 174 207 111 q 81 343 81 238 l 81 497 q 144 667 81 604 q 313 729 207 729 l 725 729 q 893 666 831 729 q 956 497 956 603 l 956 319 q 931 203 956 253 q 844 93 907 154 l 510 -236 l 289 -236 m 646 319 q 682 333 669 319 q 694 368 694 346 l 694 454 q 682 490 694 478 q 646 503 669 503 l 392 503 q 356 490 369 503 q 343 454 343 478 l 343 368 q 356 333 343 346 q 392 319 369 319 l 646 319 z "},"ª":{"ha":601,"x_min":44,"x_max":544,"o":"m 167 500 q 78 534 113 500 q 44 621 44 568 l 44 671 q 78 758 44 724 q 167 792 113 792 l 361 792 l 361 815 q 353 837 361 829 q 331 844 344 844 l 97 844 l 97 972 l 407 972 q 503 932 463 972 q 544 838 544 892 l 544 500 l 410 500 l 392 549 l 385 549 q 356 515 379 531 q 296 500 332 500 l 167 500 m 325 618 q 365 657 365 618 l 365 685 l 254 685 q 235 677 243 685 q 226 657 226 669 l 226 646 q 235 626 226 633 q 254 618 243 618 l 325 618 z "},"º":{"ha":621,"x_min":56,"x_max":565,"o":"m 194 500 q 97 541 138 500 q 56 639 56 582 l 56 833 q 97 931 56 890 q 194 972 138 972 l 426 972 q 524 931 483 972 q 565 833 565 890 l 565 639 q 524 541 565 582 q 426 500 483 500 l 194 500 m 350 649 q 373 658 364 649 q 382 681 382 667 l 382 792 q 373 815 382 806 q 350 824 364 824 l 271 824 q 248 815 257 824 q 239 792 239 807 l 239 681 q 248 658 239 667 q 271 649 257 649 l 350 649 z "},"⁰":{"ha":579,"x_min":44,"x_max":535,"o":"m 185 618 q 85 659 126 618 q 44 760 44 700 l 44 976 q 85 1077 44 1036 q 185 1118 126 1118 l 393 1118 q 494 1077 453 1118 q 535 976 535 1036 l 535 760 q 494 659 535 700 q 393 618 453 618 l 185 618 m 324 767 q 348 776 339 767 q 357 799 357 785 l 357 938 q 348 960 357 951 q 324 969 339 969 l 254 969 q 231 960 240 969 q 222 938 222 951 l 222 799 q 231 776 222 785 q 254 767 240 767 l 324 767 z "},"¹":{"ha":493,"x_min":44,"x_max":463,"o":"m 463 625 l 44 625 l 44 760 l 171 760 l 171 938 l 58 938 l 58 1069 l 171 1069 l 171 1111 l 354 1111 l 354 760 l 463 760 l 463 625 z "},"²":{"ha":532,"x_min":31,"x_max":496,"o":"m 31 625 l 31 747 l 282 922 q 303 940 297 932 q 308 956 308 947 l 308 961 q 301 976 308 971 q 281 982 293 982 l 88 982 l 38 1032 l 38 1111 l 358 1111 q 457 1072 418 1111 q 496 975 496 1033 l 496 968 q 475 896 496 926 q 414 838 454 865 l 299 761 l 299 754 l 496 754 l 496 625 l 31 625 z "},"³":{"ha":538,"x_min":31,"x_max":500,"o":"m 31 625 l 31 753 l 294 753 q 315 759 307 753 q 324 776 324 765 l 324 785 q 315 803 324 796 q 294 810 307 810 l 132 810 l 132 907 l 243 976 l 243 983 l 79 983 l 31 1032 l 31 1111 l 475 1111 l 475 1000 l 351 924 l 351 917 l 365 917 q 463 879 425 917 q 500 782 500 842 l 500 760 q 463 663 500 700 q 365 625 425 625 l 31 625 z "},"⁴":{"ha":567,"x_min":24,"x_max":544,"o":"m 482 625 l 299 625 l 299 713 l 24 713 l 24 831 l 229 1111 l 378 1111 l 378 1044 l 226 844 l 226 838 l 315 838 l 315 913 l 482 913 l 482 838 l 544 838 l 544 713 l 482 713 l 482 625 z "},"⁵":{"ha":539,"x_min":44,"x_max":503,"o":"m 44 625 l 44 753 l 294 753 q 316 760 308 753 q 324 781 324 768 l 324 792 q 315 811 324 803 q 294 819 307 819 l 51 819 l 51 1111 l 489 1111 l 489 1032 l 440 983 l 229 983 l 229 938 l 368 938 q 465 900 428 938 q 503 803 503 863 l 503 760 q 465 663 503 700 q 368 625 428 625 l 44 625 z "},"⁶":{"ha":556,"x_min":38,"x_max":518,"o":"m 171 618 q 75 656 113 618 q 38 753 38 693 l 38 813 q 47 867 38 843 q 81 919 56 890 l 254 1111 l 393 1111 l 393 1044 l 296 938 l 296 931 l 339 931 l 385 931 q 481 893 443 931 q 518 797 518 856 l 518 753 q 481 656 518 693 q 385 618 443 618 l 171 618 m 310 740 q 332 748 324 740 q 340 769 340 756 l 340 789 q 332 809 340 801 q 310 817 324 817 l 246 817 q 224 809 232 817 q 215 789 215 801 l 215 769 q 224 748 215 756 q 246 740 232 740 l 310 740 z "},"⁷":{"ha":504,"x_min":24,"x_max":482,"o":"m 281 625 l 115 625 l 115 688 l 274 972 l 274 979 l 24 979 l 24 1111 l 482 1111 l 482 993 l 281 625 z "},"⁸":{"ha":576,"x_min":44,"x_max":532,"o":"m 174 618 q 79 653 114 618 q 44 747 44 689 l 44 771 q 67 835 44 808 q 115 871 89 863 l 115 878 q 76 910 93 885 q 58 972 58 936 l 58 990 q 94 1083 58 1049 q 188 1118 129 1118 l 389 1118 q 483 1083 449 1118 q 518 990 518 1049 l 518 972 q 501 910 518 936 q 461 878 483 885 l 461 871 q 510 836 489 863 q 532 771 532 810 l 532 747 q 497 653 532 689 q 403 618 463 618 l 174 618 m 319 926 q 342 934 333 926 q 350 954 350 942 l 350 972 q 342 992 350 985 q 319 1000 333 1000 l 257 1000 q 235 992 243 1000 q 226 972 226 985 l 226 954 q 235 934 226 942 q 257 926 243 926 l 319 926 m 324 736 q 346 744 338 736 q 354 764 354 751 l 354 788 q 346 808 354 800 q 324 815 338 815 l 253 815 q 231 808 239 815 q 222 788 222 800 l 222 764 q 231 744 222 751 q 253 736 239 736 l 324 736 z "},"⁹":{"ha":556,"x_min":38,"x_max":518,"o":"m 163 625 l 163 692 l 260 799 l 260 806 l 217 806 l 171 806 q 75 843 113 806 q 38 939 38 881 l 38 983 q 75 1081 38 1043 q 171 1118 113 1118 l 385 1118 q 481 1081 443 1118 q 518 983 518 1043 l 518 924 q 509 869 518 893 q 475 817 500 846 l 301 625 l 163 625 m 310 919 q 332 927 324 919 q 340 947 340 935 l 340 967 q 332 988 340 981 q 310 996 324 996 l 246 996 q 224 988 232 996 q 215 967 215 981 l 215 947 q 224 927 215 935 q 246 919 232 919 l 310 919 z "},"₀":{"ha":579,"x_min":44,"x_max":535,"o":"m 185 -146 q 85 -105 126 -146 q 44 -4 44 -64 l 44 213 q 85 313 44 272 q 185 354 126 354 l 393 354 q 494 313 453 354 q 535 213 535 272 l 535 -4 q 494 -105 535 -64 q 393 -146 453 -146 l 185 -146 m 324 3 q 348 12 339 3 q 357 35 357 21 l 357 174 q 348 197 357 188 q 324 206 339 206 l 254 206 q 231 197 240 206 q 222 174 222 188 l 222 35 q 231 12 222 21 q 254 3 240 3 l 324 3 z "},"₁":{"ha":493,"x_min":44,"x_max":463,"o":"m 463 -139 l 44 -139 l 44 -4 l 171 -4 l 171 174 l 58 174 l 58 306 l 171 306 l 171 347 l 354 347 l 354 -4 l 463 -4 l 463 -139 z "},"₂":{"ha":532,"x_min":31,"x_max":496,"o":"m 31 -139 l 31 -17 l 282 158 q 303 176 297 168 q 308 192 308 183 l 308 197 q 301 213 308 207 q 281 218 293 218 l 88 218 l 38 268 l 38 347 l 358 347 q 457 308 418 347 q 496 211 496 269 l 496 204 q 475 132 496 163 q 414 74 454 101 l 299 -3 l 299 -10 l 496 -10 l 496 -139 l 31 -139 z "},"₃":{"ha":538,"x_min":31,"x_max":500,"o":"m 31 -139 l 31 -11 l 294 -11 q 315 -5 307 -11 q 324 13 324 1 l 324 21 q 315 39 324 32 q 294 46 307 46 l 132 46 l 132 143 l 243 213 l 243 219 l 79 219 l 31 268 l 31 347 l 475 347 l 475 236 l 351 160 l 351 153 l 365 153 q 463 115 425 153 q 500 18 500 78 l 500 -4 q 463 -101 500 -64 q 365 -139 425 -139 l 31 -139 z "},"₄":{"ha":567,"x_min":24,"x_max":544,"o":"m 482 -139 l 299 -139 l 299 -51 l 24 -51 l 24 67 l 229 347 l 378 347 l 378 281 l 226 81 l 226 74 l 315 74 l 315 149 l 482 149 l 482 74 l 544 74 l 544 -51 l 482 -51 l 482 -139 z "},"₅":{"ha":539,"x_min":44,"x_max":503,"o":"m 44 -139 l 44 -11 l 294 -11 q 316 -3 308 -11 q 324 17 324 4 l 324 28 q 315 47 324 39 q 294 56 307 56 l 51 56 l 51 347 l 489 347 l 489 268 l 440 219 l 229 219 l 229 174 l 368 174 q 465 136 428 174 q 503 39 503 99 l 503 -4 q 465 -101 503 -64 q 368 -139 428 -139 l 44 -139 z "},"₆":{"ha":556,"x_min":38,"x_max":518,"o":"m 171 -146 q 75 -108 113 -146 q 38 -11 38 -71 l 38 49 q 47 103 38 79 q 81 156 56 126 l 254 347 l 393 347 l 393 281 l 296 174 l 296 167 l 339 167 l 385 167 q 481 129 443 167 q 518 33 518 92 l 518 -11 q 481 -108 518 -71 q 385 -146 443 -146 l 171 -146 m 310 -24 q 332 -16 324 -24 q 340 6 340 -8 l 340 25 q 332 45 340 38 q 310 53 324 53 l 246 53 q 224 45 232 53 q 215 25 215 38 l 215 6 q 224 -16 215 -8 q 246 -24 232 -24 l 310 -24 z "},"₇":{"ha":504,"x_min":24,"x_max":482,"o":"m 281 -139 l 115 -139 l 115 -76 l 274 208 l 274 215 l 24 215 l 24 347 l 482 347 l 482 229 l 281 -139 z "},"₈":{"ha":576,"x_min":44,"x_max":532,"o":"m 174 -146 q 79 -110 114 -146 q 44 -17 44 -75 l 44 7 q 67 72 44 44 q 115 107 89 99 l 115 114 q 76 147 93 121 q 58 208 58 172 l 58 226 q 94 319 58 285 q 188 354 129 354 l 389 354 q 483 319 449 354 q 518 226 518 285 l 518 208 q 501 147 518 172 q 461 114 483 121 l 461 107 q 510 72 489 99 q 532 7 532 46 l 532 -17 q 497 -110 532 -75 q 403 -146 463 -146 l 174 -146 m 319 163 q 342 170 333 163 q 350 190 350 178 l 350 208 q 342 228 350 221 q 319 236 333 236 l 257 236 q 235 228 243 236 q 226 208 226 221 l 226 190 q 235 170 226 178 q 257 163 243 163 l 319 163 m 324 -28 q 346 -20 338 -28 q 354 0 354 -12 l 354 24 q 346 44 354 36 q 324 51 338 51 l 253 51 q 231 44 239 51 q 222 24 222 36 l 222 0 q 231 -20 222 -12 q 253 -28 239 -28 l 324 -28 z "},"₉":{"ha":556,"x_min":38,"x_max":518,"o":"m 163 -139 l 163 -72 l 260 35 l 260 42 l 217 42 l 171 42 q 75 79 113 42 q 38 175 38 117 l 38 219 q 75 317 38 279 q 171 354 113 354 l 385 354 q 481 317 443 354 q 518 219 518 279 l 518 160 q 509 106 518 129 q 475 53 500 82 l 301 -139 l 163 -139 m 310 156 q 332 163 324 156 q 340 183 340 171 l 340 203 q 332 224 340 217 q 310 232 324 232 l 246 232 q 224 224 232 232 q 215 203 215 217 l 215 183 q 224 163 215 171 q 246 156 232 156 l 310 156 z "},"⓿":{"ha":1583,"x_min":90,"x_max":1493,"o":"m 299 -136 q 146 -81 201 -136 q 90 72 90 -25 l 90 900 q 146 1053 90 997 q 299 1108 201 1108 l 1285 1108 q 1438 1053 1382 1108 q 1493 900 1493 997 l 1493 72 q 1438 -81 1493 -25 q 1285 -136 1382 -136 l 299 -136 m 896 236 q 995 277 954 236 q 1036 378 1036 318 l 1036 594 q 995 695 1036 654 q 896 736 954 736 l 688 736 q 587 695 628 736 q 546 594 546 654 l 546 378 q 587 277 546 318 q 688 236 628 236 l 896 236 m 757 385 q 733 394 742 385 q 724 417 724 403 l 724 556 q 733 578 724 569 q 757 588 742 588 l 826 588 q 849 578 840 588 q 858 556 858 569 l 858 417 q 849 394 858 403 q 826 385 840 385 l 757 385 z "},"❶":{"ha":1583,"x_min":90,"x_max":1493,"o":"m 299 -136 q 146 -81 201 -136 q 90 72 90 -25 l 90 900 q 146 1053 90 997 q 299 1108 201 1108 l 1285 1108 q 1438 1053 1382 1108 q 1493 900 1493 997 l 1493 72 q 1438 -81 1493 -25 q 1285 -136 1382 -136 l 299 -136 m 579 378 l 579 243 l 997 243 l 997 378 l 889 378 l 889 729 l 706 729 l 706 688 l 593 688 l 593 556 l 706 556 l 706 378 l 579 378 z "},"❷":{"ha":1583,"x_min":90,"x_max":1493,"o":"m 299 -136 q 146 -81 201 -136 q 90 72 90 -25 l 90 900 q 146 1053 90 997 q 299 1108 201 1108 l 1285 1108 q 1438 1053 1382 1108 q 1493 900 1493 997 l 1493 72 q 1438 -81 1493 -25 q 1285 -136 1382 -136 l 299 -136 m 546 243 l 1011 243 l 1011 372 l 815 372 l 815 379 l 929 456 q 990 514 969 483 q 1011 586 1011 544 l 1011 593 q 973 690 1011 651 q 875 729 935 729 l 553 729 l 553 650 l 604 600 l 797 600 q 817 594 810 600 q 824 579 824 589 l 824 574 q 818 558 824 565 q 799 540 813 550 l 546 365 l 546 243 z "},"❸":{"ha":1583,"x_min":90,"x_max":1493,"o":"m 299 -136 q 146 -81 201 -136 q 90 72 90 -25 l 90 900 q 146 1053 90 997 q 299 1108 201 1108 l 1285 1108 q 1438 1053 1382 1108 q 1493 900 1493 997 l 1493 72 q 1438 -81 1493 -25 q 1285 -136 1382 -136 l 299 -136 m 883 243 q 981 281 943 243 q 1018 378 1018 318 l 1018 400 q 981 497 1018 460 q 883 535 943 535 l 869 535 l 869 542 l 992 618 l 992 729 l 547 729 l 547 650 l 596 601 l 761 601 l 761 594 l 650 525 l 650 428 l 811 428 q 833 421 825 428 q 842 403 842 414 l 842 394 q 833 377 842 383 q 811 371 825 371 l 547 371 l 547 243 l 883 243 z "},"❹":{"ha":1583,"x_min":90,"x_max":1493,"o":"m 299 -136 q 146 -81 201 -136 q 90 72 90 -25 l 90 900 q 146 1053 90 997 q 299 1108 201 1108 l 1285 1108 q 1438 1053 1382 1108 q 1493 900 1493 997 l 1493 72 q 1438 -81 1493 -25 q 1285 -136 1382 -136 l 299 -136 m 793 331 l 793 243 l 976 243 l 976 331 l 1039 331 l 1039 456 l 976 456 l 976 531 l 810 531 l 810 456 l 721 456 l 721 463 l 872 663 l 872 729 l 724 729 l 518 449 l 518 331 l 793 331 z "},"❺":{"ha":1583,"x_min":90,"x_max":1493,"o":"m 299 -136 q 146 -81 201 -136 q 90 72 90 -25 l 90 900 q 146 1053 90 997 q 299 1108 201 1108 l 1285 1108 q 1438 1053 1382 1108 q 1493 900 1493 997 l 1493 72 q 1438 -81 1493 -25 q 1285 -136 1382 -136 l 299 -136 m 879 243 q 976 281 939 243 q 1014 378 1014 318 l 1014 421 q 976 518 1014 481 q 879 556 939 556 l 740 556 l 740 601 l 951 601 l 1000 650 l 1000 729 l 563 729 l 563 438 l 806 438 q 827 429 818 438 q 836 410 836 421 l 836 399 q 828 378 836 386 q 806 371 819 371 l 556 371 l 556 243 l 879 243 z "},"❻":{"ha":1583,"x_min":90,"x_max":1493,"o":"m 299 -136 q 146 -81 201 -136 q 90 72 90 -25 l 90 900 q 146 1053 90 997 q 299 1108 201 1108 l 1285 1108 q 1438 1053 1382 1108 q 1493 900 1493 997 l 1493 72 q 1438 -81 1493 -25 q 1285 -136 1382 -136 l 299 -136 m 896 236 q 993 274 956 236 q 1031 371 1031 311 l 1031 415 q 992 511 1031 474 q 896 549 954 549 l 850 549 l 808 549 l 808 556 l 906 663 l 906 729 l 767 729 l 593 538 q 559 488 569 513 q 549 431 549 464 l 549 371 q 586 274 549 311 q 683 236 624 236 l 896 236 m 757 358 q 735 366 743 358 q 726 388 726 374 l 726 407 q 735 427 726 419 q 757 435 743 435 l 822 435 q 844 427 836 435 q 851 407 851 419 l 851 388 q 844 366 851 374 q 822 358 836 358 l 757 358 z "},"❼":{"ha":1583,"x_min":90,"x_max":1493,"o":"m 299 -136 q 146 -81 201 -136 q 90 72 90 -25 l 90 900 q 146 1053 90 997 q 299 1108 201 1108 l 1285 1108 q 1438 1053 1382 1108 q 1493 900 1493 997 l 1493 72 q 1438 -81 1493 -25 q 1285 -136 1382 -136 l 299 -136 m 643 306 l 643 243 l 808 243 l 1010 611 l 1010 729 l 551 729 l 551 597 l 801 597 l 801 590 l 643 306 z "},"❽":{"ha":1583,"x_min":90,"x_max":1493,"o":"m 299 -136 q 146 -81 201 -136 q 90 72 90 -25 l 90 900 q 146 1053 90 997 q 299 1108 201 1108 l 1285 1108 q 1438 1053 1382 1108 q 1493 900 1493 997 l 1493 72 q 1438 -81 1493 -25 q 1285 -136 1382 -136 l 299 -136 m 904 236 q 999 272 964 236 q 1035 365 1035 307 l 1035 389 q 1013 454 1035 428 q 963 489 990 481 l 963 496 q 1003 528 985 503 q 1021 590 1021 554 l 1021 608 q 985 701 1021 665 q 890 736 950 736 l 689 736 q 595 701 631 736 q 560 608 560 665 l 560 590 q 577 528 560 554 q 617 496 594 503 l 617 489 q 568 453 590 481 q 546 389 546 426 l 546 365 q 581 272 546 307 q 675 236 617 236 l 904 236 m 758 544 q 737 552 744 544 q 729 572 729 560 l 729 590 q 737 610 729 603 q 758 618 744 618 l 821 618 q 843 610 835 618 q 851 590 851 603 l 851 572 q 843 552 851 560 q 821 544 835 544 l 758 544 m 754 354 q 732 362 740 354 q 724 382 724 369 l 724 406 q 732 426 724 418 q 754 433 740 433 l 826 433 q 848 426 840 433 q 856 406 856 418 l 856 382 q 848 362 856 369 q 826 354 840 354 l 754 354 z "},"❾":{"ha":1583,"x_min":90,"x_max":1493,"o":"m 299 -136 q 146 -81 201 -136 q 90 72 90 -25 l 90 900 q 146 1053 90 997 q 299 1108 201 1108 l 1285 1108 q 1438 1053 1382 1108 q 1493 900 1493 997 l 1493 72 q 1438 -81 1493 -25 q 1285 -136 1382 -136 l 299 -136 m 667 243 l 806 243 l 979 435 q 1013 484 1003 460 q 1024 542 1024 508 l 1024 601 q 986 699 1024 661 q 889 736 949 736 l 676 736 q 579 699 617 736 q 542 601 542 661 l 542 557 q 579 461 542 499 q 675 424 617 424 l 722 424 l 764 424 l 764 417 l 667 310 l 667 243 m 750 538 q 728 545 736 538 q 719 565 719 553 l 719 585 q 728 606 719 599 q 750 614 736 614 l 815 614 q 837 606 829 614 q 844 585 844 599 l 844 565 q 837 545 844 553 q 815 538 829 538 l 750 538 z "},"⓪":{"ha":1583,"x_min":90,"x_max":1493,"o":"m 299 -136 q 146 -81 201 -136 q 90 72 90 -25 l 90 900 q 146 1053 90 997 q 299 1108 201 1108 l 1285 1108 q 1438 1053 1382 1108 q 1493 900 1493 997 l 1493 72 q 1438 -81 1493 -25 q 1285 -136 1382 -136 l 299 -136 m 1268 39 q 1317 89 1317 39 l 1317 883 q 1268 933 1317 933 l 315 933 q 267 883 267 933 l 267 89 q 315 39 267 39 l 1268 39 m 688 236 q 587 277 628 236 q 546 378 546 318 l 546 594 q 587 695 546 654 q 688 736 628 736 l 896 736 q 995 695 954 736 q 1036 594 1036 654 l 1036 378 q 995 277 1036 318 q 896 236 954 236 l 688 236 m 826 385 q 849 394 840 385 q 858 417 858 403 l 858 556 q 849 578 858 569 q 826 588 840 588 l 757 588 q 733 578 742 588 q 724 556 724 569 l 724 417 q 733 394 724 403 q 757 385 742 385 l 826 385 z "},"①":{"ha":1583,"x_min":90,"x_max":1493,"o":"m 299 -136 q 146 -81 201 -136 q 90 72 90 -25 l 90 900 q 146 1053 90 997 q 299 1108 201 1108 l 1285 1108 q 1438 1053 1382 1108 q 1493 900 1493 997 l 1493 72 q 1438 -81 1493 -25 q 1285 -136 1382 -136 l 299 -136 m 1268 39 q 1317 89 1317 39 l 1317 883 q 1268 933 1317 933 l 315 933 q 267 883 267 933 l 267 89 q 315 39 267 39 l 1268 39 m 997 243 l 579 243 l 579 378 l 706 378 l 706 556 l 593 556 l 593 688 l 706 688 l 706 729 l 889 729 l 889 378 l 997 378 l 997 243 z "},"②":{"ha":1583,"x_min":90,"x_max":1493,"o":"m 299 -136 q 146 -81 201 -136 q 90 72 90 -25 l 90 900 q 146 1053 90 997 q 299 1108 201 1108 l 1285 1108 q 1438 1053 1382 1108 q 1493 900 1493 997 l 1493 72 q 1438 -81 1493 -25 q 1285 -136 1382 -136 l 299 -136 m 1268 39 q 1317 89 1317 39 l 1317 883 q 1268 933 1317 933 l 315 933 q 267 883 267 933 l 267 89 q 315 39 267 39 l 1268 39 m 546 243 l 546 365 l 799 540 q 818 558 813 550 q 824 574 824 565 l 824 579 q 817 594 824 589 q 797 600 810 600 l 604 600 l 553 650 l 553 729 l 875 729 q 973 690 935 729 q 1011 593 1011 651 l 1011 586 q 990 514 1011 544 q 929 456 969 483 l 815 379 l 815 372 l 1011 372 l 1011 243 l 546 243 z "}}}
